if (_typeface_js && _typeface_js.loadFace) _typeface_js.loadFace({"glyphs":{"":{"x_min":-124.21875,"x_max":534.5625,"ha":417,"o":"m -35 990 b 50 1079 13 990 50 1030 b -34 1169 50 1130 13 1169 b -124 1079 -84 1169 -124 1130 b -37 990 -124 1031 -86 990 l -35 990 m 447 990 b 534 1079 496 990 534 1029 b 448 1169 534 1130 497 1169 b 360 1079 398 1169 360 1130 b 446 990 360 1031 398 990 l 447 990 m 50 1162 l 207 988 l 358 988 l 252 1162 l 50 1162 "},"₅":{"x_min":29.9375,"x_max":432.828125,"ha":483,"o":"m 406 335 l 91 335 l 55 45 b 132 51 76 48 104 51 b 285 -28 246 51 285 20 b 182 -100 285 -80 227 -100 b 54 -72 132 -100 78 -85 l 29 -180 b 190 -211 62 -196 129 -211 b 432 -21 341 -211 432 -128 b 367 112 432 39 405 85 b 215 151 326 141 268 151 b 178 149 202 151 187 151 l 187 217 l 406 217 l 406 335 "},"":{"x_min":57.171875,"x_max":334.828125,"ha":436,"o":"m 57 1005 l 57 888 l 186 888 l 186 13 l 57 13 l 57 -102 l 334 -102 l 334 1005 l 57 1005 "},"Á":{"x_min":23,"x_max":860,"ha":911,"o":"m 566 240 l 636 0 l 860 0 l 574 936 l 303 936 l 23 0 l 238 0 l 302 240 l 566 240 m 331 398 l 387 597 b 428 777 401 651 416 722 l 432 777 b 477 597 446 723 462 652 l 534 398 l 331 398 m 458 1156 l 344 986 l 510 986 l 676 1156 l 458 1156 "},"ĥ":{"x_min":-20.421875,"x_max":714.578125,"ha":814,"o":"m 83 0 l 289 0 l 289 402 b 296 448 289 418 291 436 b 400 523 311 487 345 523 b 507 373 477 523 507 462 l 507 0 l 714 0 l 714 395 b 481 694 714 601 613 694 b 374 668 443 694 405 684 b 292 597 341 651 314 627 l 289 597 l 289 987 l 83 987 l 83 0 m 115 1190 l -20 1019 l 123 1019 l 191 1105 l 194 1105 l 262 1019 l 408 1019 l 270 1190 l 115 1190 "},"":{"x_min":27.21875,"x_max":1185.53125,"ha":1238,"o":"m 274 855 b 27 572 123 855 27 733 b 268 300 27 402 133 300 b 513 586 396 300 513 400 b 276 855 513 741 427 855 l 274 855 m 270 740 b 359 577 334 740 359 669 b 272 415 359 475 330 415 b 181 576 212 415 179 481 b 269 740 181 668 208 740 l 270 740 m 424 -15 l 899 856 l 789 856 l 313 -15 l 424 -15 m 947 543 b 699 261 796 543 699 420 b 940 -12 699 90 805 -12 b 1185 276 1068 -12 1185 87 b 948 543 1185 429 1099 543 l 947 543 m 943 427 b 1031 266 1007 427 1031 358 b 944 102 1031 163 1003 102 b 853 265 884 102 852 170 b 941 427 853 356 880 427 l 943 427 "},"":{"x_min":3,"x_max":407.25,"ha":417,"o":"m 407 1002 b 209 1172 400 1113 329 1172 b 3 1002 88 1172 12 1118 l 143 1001 b 207 1086 148 1052 164 1086 b 267 1001 250 1086 265 1052 l 407 1002 "},"Κ":{"x_min":89.828125,"x_max":839.8125,"ha":853,"o":"m 89 0 l 295 0 l 295 305 l 372 404 l 598 0 l 839 0 l 521 537 l 824 936 l 568 936 l 362 625 b 298 522 340 591 318 558 l 295 522 l 295 936 l 89 936 l 89 0 "},"»":{"x_min":31,"x_max":593,"ha":646,"o":"m 192 350 l 31 86 l 173 86 l 331 350 l 172 615 l 31 615 l 192 350 m 454 350 l 292 86 l 433 86 l 593 350 l 433 615 l 292 615 l 454 350 "},"":{"x_min":100.875,"x_max":663.015625,"ha":779,"o":"m 442 -122 l 442 1 b 663 208 588 26 663 113 b 449 413 663 301 607 365 b 325 494 344 448 325 462 b 424 544 325 526 366 544 b 590 501 490 544 556 520 l 631 636 b 447 681 592 658 525 677 l 447 804 l 328 804 l 328 675 b 117 484 197 652 117 581 b 332 279 117 386 177 329 b 447 198 426 248 447 229 b 341 143 447 161 405 143 b 143 197 275 143 186 169 l 100 56 b 321 -4 151 25 236 -1 l 321 -122 l 442 -122 "},"∆":{"x_min":56.03125,"x_max":801.96875,"ha":876,"o":"m 801 0 l 801 106 l 556 905 l 309 905 l 56 105 l 56 0 l 801 0 m 580 172 l 264 172 l 367 525 b 418 734 385 587 408 688 l 423 734 b 478 512 435 676 461 575 l 580 172 "},"ў":{"x_min":8.171875,"x_max":707.78125,"ha":726,"o":"m 8 679 l 253 56 b 261 22 259 40 261 30 b 250 -8 261 13 257 2 b 164 -93 231 -41 196 -76 b 74 -129 133 -111 100 -123 l 118 -306 b 318 -213 171 -301 247 -277 b 552 231 393 -145 457 -38 l 707 679 l 485 679 l 404 345 b 374 218 394 305 383 255 l 370 218 b 337 344 362 254 348 305 l 238 679 l 8 679 m 161 959 b 352 763 167 840 227 763 b 552 959 469 763 544 830 l 421 959 b 355 861 417 900 396 861 b 292 959 317 861 294 898 l 161 959 "},"ţ":{"x_min":23.59375,"x_max":463.234375,"ha":510,"o":"m 112 806 l 112 679 l 23 679 l 23 523 l 112 523 l 112 245 b 169 44 112 150 131 84 b 325 -13 203 9 259 -13 b 459 4 382 -13 433 -5 l 457 163 b 396 158 438 159 425 158 b 314 277 335 158 314 195 l 314 523 l 463 523 l 463 679 l 314 679 l 314 863 l 112 806 m 173 -338 b 388 -166 291 -334 388 -281 b 335 -56 388 -118 362 -77 l 192 -80 b 231 -163 210 -101 231 -131 b 142 -248 231 -211 186 -240 l 173 -338 "},"«":{"x_min":35,"x_max":601,"ha":646,"o":"m 337 615 l 192 615 l 35 350 l 192 86 l 337 86 l 173 350 l 337 615 m 601 615 l 456 615 l 298 350 l 456 86 l 601 86 l 437 350 l 601 615 "},"":{"x_min":22,"x_max":855,"ha":900,"o":"m 22 0 l 855 0 l 855 106 l 567 936 l 316 936 l 22 105 l 22 0 m 246 173 l 377 577 b 427 765 396 638 416 719 l 433 765 b 488 565 446 706 469 625 l 618 173 l 246 173 "},"í":{"x_min":83.015625,"x_max":406.953125,"ha":381,"o":"m 289 0 l 289 679 l 83 679 l 83 0 l 289 0 m 216 975 l 99 763 l 240 763 l 406 975 l 216 975 "},"ņ":{"x_min":77.578125,"x_max":714.578125,"ha":814,"o":"m 83 0 l 289 0 l 289 391 b 296 444 289 411 291 430 b 402 523 311 483 345 523 b 507 376 477 523 507 463 l 507 0 l 714 0 l 714 401 b 476 694 714 601 612 694 b 270 584 364 694 298 629 l 266 584 l 257 679 l 77 679 b 83 462 80 618 83 547 l 83 0 m 306 -336 b 521 -163 424 -331 521 -279 b 468 -54 521 -115 495 -75 l 325 -77 b 364 -161 343 -98 364 -129 b 274 -245 364 -208 319 -237 l 306 -336 "},"µ":{"x_min":83.109375,"x_max":767.734375,"ha":813,"o":"m 532 92 b 681 -15 552 23 604 -15 b 756 -3 714 -15 740 -11 l 767 142 b 711 220 729 144 711 162 l 711 678 l 505 678 l 505 274 b 498 228 505 258 503 241 b 390 153 484 194 443 153 b 289 299 322 153 289 208 l 289 678 l 83 678 l 83 -29 b 102 -275 83 -129 88 -241 l 284 -275 b 269 -28 273 -222 269 -101 l 269 30 b 363 -9 292 3 328 -9 b 528 92 449 -9 506 44 l 532 92 "},"ỳ":{"x_min":8,"x_max":708,"ha":726,"o":"m 8 679 l 253 56 b 261 22 259 40 261 30 b 250 -8 261 13 257 2 b 164 -93 231 -41 195 -76 b 74 -129 133 -111 100 -123 l 118 -306 b 318 -213 171 -301 247 -277 b 552 231 393 -145 457 -38 l 708 679 l 486 679 l 404 345 b 374 218 394 305 383 255 l 370 218 b 337 344 362 254 348 305 l 238 679 l 8 679 m 157 975 l 323 763 l 465 763 l 348 975 l 157 975 "},"Ι":{"x_min":91.1875,"x_max":298.078125,"ha":396,"o":"m 91 936 l 91 0 l 298 0 l 298 936 l 91 936 "},"Ύ":{"x_min":1.359375,"x_max":1048.0625,"ha":1082,"o":"m 217 769 b 507 387 381 738 472 584 b 522 204 518 323 522 273 l 522 0 l 729 0 l 729 202 b 752 394 729 266 737 330 b 1048 765 796 576 918 729 l 1015 944 b 773 811 945 941 845 891 b 643 519 710 740 660 640 l 634 519 b 515 819 622 643 582 745 b 250 944 438 906 326 943 l 217 769 m 4 936 l 1 694 l 119 694 l 170 936 l 4 936 "},"ѕ":{"x_min":44.703125,"x_max":546.953125,"ha":603,"o":"m 44 34 b 259 -13 95 6 172 -13 b 546 206 450 -13 546 79 b 367 415 545 305 493 370 b 259 493 285 443 259 461 b 338 547 259 526 288 547 b 482 509 394 547 453 525 l 518 654 b 331 694 477 675 409 694 b 61 470 167 694 61 598 b 251 268 59 391 112 315 b 348 190 327 243 348 225 b 259 134 348 155 322 134 b 81 184 198 134 119 161 l 44 34 "},"Ш":{"x_min":91.1875,"x_max":1152.859375,"ha":1268,"o":"m 91 936 l 91 0 l 1152 0 l 1152 936 l 950 936 l 950 173 l 722 173 l 722 936 l 519 936 l 519 173 l 294 173 l 294 936 l 91 936 "},"M":{"x_min":69.421875,"x_max":1082.078125,"ha":1175,"o":"m 880 0 l 1082 0 l 1033 936 l 760 936 l 664 625 b 577 288 632 520 601 397 l 571 288 b 494 623 551 398 524 515 l 404 936 l 127 936 l 69 0 l 261 0 l 279 355 b 294 743 284 472 289 616 l 296 743 b 379 377 319 619 349 487 l 477 15 l 639 15 l 751 380 b 854 743 786 490 824 623 l 857 743 b 865 358 857 605 861 470 l 880 0 "},"Ψ":{"x_min":57.171875,"x_max":954.140625,"ha":1031,"o":"m 954 936 l 755 936 l 755 695 b 600 415 755 480 684 422 l 600 936 l 411 936 l 411 416 b 255 651 322 422 255 475 l 255 936 l 57 936 l 57 619 b 411 255 57 368 223 266 l 411 0 l 600 0 l 600 255 b 954 665 794 268 954 384 l 954 936 "},"ũ":{"x_min":80.3125,"x_max":715.953125,"ha":810,"o":"m 710 679 l 503 679 l 503 275 b 495 229 503 256 500 241 b 392 155 483 195 449 155 b 287 313 318 155 287 215 l 287 679 l 80 679 l 80 280 b 314 -15 80 70 178 -15 b 522 95 434 -15 496 54 l 526 95 l 536 0 l 715 0 b 710 218 713 56 710 129 l 710 679 m 302 775 b 334 837 304 816 315 837 b 386 815 352 837 362 829 b 480 786 415 801 442 786 b 592 963 552 786 596 837 l 496 963 b 461 902 492 915 483 902 b 404 929 445 902 426 916 b 315 956 377 943 349 956 b 204 775 246 956 200 891 l 302 775 "},"ŭ":{"x_min":80.3125,"x_max":715.953125,"ha":810,"o":"m 710 679 l 503 679 l 503 275 b 495 229 503 256 500 241 b 392 155 483 195 449 155 b 287 313 318 155 287 215 l 287 679 l 80 679 l 80 280 b 314 -15 80 70 178 -15 b 522 95 434 -15 496 54 l 526 95 l 536 0 l 715 0 b 710 218 713 56 710 129 l 710 679 m 208 961 b 397 763 209 850 270 763 b 586 961 519 763 585 844 l 479 961 b 396 876 476 916 451 876 b 315 961 348 876 323 911 l 208 961 "},"₍":{"x_min":55.8125,"x_max":253.171875,"ha":283,"o":"m 149 386 b 55 54 110 326 55 213 b 149 -276 55 -104 108 -215 l 253 -276 b 172 54 213 -201 172 -93 b 253 386 172 198 215 315 l 149 386 "},"":{"x_min":49,"x_max":705.0625,"ha":779,"o":"m 115 -166 b 705 345 431 -168 705 -12 b 381 702 705 552 579 702 b 49 390 194 702 49 570 b 308 122 49 233 159 122 b 479 187 386 122 450 154 l 481 185 b 103 -18 443 67 330 -9 l 115 -166 m 375 260 b 254 401 307 260 254 310 b 375 544 254 494 311 544 b 499 390 447 544 499 479 b 484 322 499 360 494 335 b 377 260 464 287 419 260 l 375 260 "},"{":{"x_min":40.828125,"x_max":383.828125,"ha":436,"o":"m 40 345 b 144 251 134 341 144 288 b 137 143 144 216 140 180 b 129 33 133 105 129 68 b 334 -155 129 -105 213 -155 l 383 -155 l 383 -38 l 359 -38 b 276 61 296 -37 276 0 b 283 138 276 84 279 111 b 289 236 285 168 289 200 b 174 397 291 341 249 381 l 174 400 b 289 561 249 416 291 456 b 283 656 289 597 285 629 b 276 736 279 686 276 711 b 359 834 276 797 298 833 l 383 834 l 383 952 l 336 952 b 129 765 209 952 129 895 b 137 655 129 730 133 693 b 144 547 140 618 144 580 b 40 451 144 505 134 455 l 40 345 "},"¼":{"x_min":49,"x_max":1083.453125,"ha":1154,"o":"m 338 369 l 338 911 l 200 911 l 49 844 l 69 730 l 178 779 l 179 779 l 179 369 l 338 369 m 348 -15 l 850 918 l 737 918 l 235 -15 l 348 -15 m 1011 0 l 1011 125 l 1083 125 l 1083 227 l 1011 227 l 1011 547 l 830 547 l 597 212 l 597 125 l 864 125 l 864 0 l 1011 0 m 864 227 l 744 227 l 741 229 l 818 343 b 867 433 834 369 849 400 l 869 433 b 864 330 868 400 864 366 l 864 227 "},"ι":{"x_min":83.03125,"x_max":351.171875,"ha":389,"o":"m 289 679 l 83 679 l 83 191 b 254 -15 83 30 147 -15 b 341 -1 285 -15 323 -9 l 351 145 b 289 212 308 143 289 161 l 289 679 "},"Ĳ":{"x_min":91.1875,"x_max":864.3125,"ha":967,"o":"m 91 936 l 91 0 l 298 0 l 298 936 l 91 936 m 657 345 b 515 161 657 201 602 161 b 409 177 475 161 438 168 l 386 6 b 539 -15 427 -6 490 -15 b 864 344 739 -15 864 77 l 864 936 l 657 936 l 657 345 "},"":{"x_min":49,"x_max":394.71875,"ha":458,"o":"m 311 608 l 311 684 b 394 704 343 687 372 693 l 377 806 b 298 793 356 798 329 793 b 194 895 243 793 194 825 b 296 997 194 958 232 997 b 367 983 326 997 349 991 l 389 1088 b 311 1104 363 1098 334 1104 l 311 1176 l 221 1176 l 221 1100 b 49 888 106 1077 49 987 b 95 752 49 836 65 787 b 221 687 125 719 167 695 l 221 608 l 311 608 "},"Ê":{"x_min":91.046875,"x_max":674.96875,"ha":742,"o":"m 635 568 l 297 568 l 297 762 l 655 762 l 655 936 l 91 936 l 91 0 l 674 0 l 674 173 l 297 173 l 297 395 l 635 395 l 635 568 m 302 1156 l 165 986 l 310 986 l 378 1072 l 380 1072 l 449 986 l 594 986 l 457 1156 l 302 1156 "},"Ά":{"x_min":26,"x_max":871,"ha":922,"o":"m 577 240 l 647 0 l 871 0 l 585 936 l 314 936 l 34 0 l 249 0 l 313 240 l 577 240 m 343 398 l 398 597 b 439 777 412 651 427 722 l 443 777 b 488 597 457 723 473 652 l 545 398 l 343 398 m 28 936 l 26 694 l 144 694 l 194 936 l 28 936 "},")":{"x_min":47.640625,"x_max":347.078125,"ha":436,"o":"m 191 -162 b 347 398 264 -52 345 129 b 191 959 347 669 264 852 l 47 959 b 185 400 123 830 185 645 b 47 -162 185 154 123 -33 l 191 -162 "},"ε":{"x_min":44.921875,"x_max":608.421875,"ha":650,"o":"m 190 356 b 44 194 111 340 44 279 b 345 -15 44 38 201 -15 b 608 45 430 -15 536 1 l 579 183 b 400 140 534 159 461 140 b 268 218 332 140 268 163 b 436 286 268 270 341 284 l 502 286 l 502 423 l 436 423 b 284 483 340 425 284 441 b 397 547 284 520 325 547 b 553 509 457 547 517 529 l 589 643 b 366 694 532 677 462 694 b 76 504 167 694 76 598 b 190 363 76 437 118 387 l 190 356 "},"э":{"x_min":30,"x_max":615.109375,"ha":674,"o":"m 112 275 l 400 275 b 213 145 382 191 310 145 b 61 173 146 145 89 161 l 30 30 b 234 -15 85 1 159 -15 b 615 341 469 -15 615 126 b 506 611 615 463 570 551 b 262 694 442 668 352 694 b 39 644 187 694 102 677 l 77 509 b 225 540 114 525 161 540 b 404 408 333 540 390 487 l 112 408 l 112 275 "},"":{"x_min":4.078125,"x_max":394.71875,"ha":417,"o":"m 134 777 b 201 876 138 837 160 876 b 264 777 239 876 262 838 l 394 777 b 204 973 389 898 329 973 b 4 777 87 973 12 908 l 134 777 "},"ш":{"x_min":81.671875,"x_max":1024.921875,"ha":1129,"o":"m 81 679 l 81 0 l 1024 0 l 1024 679 l 819 679 l 819 161 l 656 161 l 656 679 l 450 679 l 450 161 l 287 161 l 287 679 l 81 679 "},"Я":{"x_min":10.890625,"x_max":726.828125,"ha":833,"o":"m 231 0 b 264 79 246 29 254 51 b 372 331 291 155 314 276 b 470 368 397 355 430 368 l 521 368 l 521 0 l 726 0 l 726 922 b 464 943 660 934 564 943 b 163 869 344 943 234 923 b 68 670 106 825 68 756 b 261 443 68 536 159 462 l 261 438 b 185 391 231 427 205 411 b 57 105 115 323 93 212 b 10 0 44 66 29 30 l 231 0 m 521 525 b 447 520 502 520 473 520 b 274 651 352 520 274 565 b 436 784 274 747 347 784 b 521 776 479 784 506 780 l 521 525 "},"a":{"x_min":38.953125,"x_max":647.375,"ha":733,"o":"m 636 401 b 345 694 636 561 567 694 b 86 633 224 694 132 659 l 124 498 b 308 548 168 525 240 548 b 429 461 410 548 429 497 l 429 452 b 38 193 194 452 38 369 b 254 -15 38 84 119 -15 b 444 68 332 -15 401 13 l 448 68 l 460 0 l 647 0 b 636 163 639 37 636 100 l 636 401 m 436 247 b 432 211 436 234 435 222 b 324 133 418 168 375 133 b 243 213 278 133 243 159 b 436 320 243 294 327 320 l 436 247 "},"Ę":{"x_min":90.6875,"x_max":685.5,"ha":742,"o":"m 656 -161 b 599 -172 637 -169 617 -172 b 548 -127 568 -172 548 -155 b 640 0 548 -81 595 -30 b 674 0 652 0 663 0 l 674 173 l 297 173 l 297 395 l 635 395 l 635 568 l 297 568 l 297 762 l 655 762 l 655 936 l 90 936 l 90 0 l 493 0 b 396 -175 448 -33 396 -95 b 538 -304 396 -256 450 -304 b 685 -261 595 -304 646 -288 l 656 -161 "},"Z":{"x_min":32.671875,"x_max":744.53125,"ha":801,"o":"m 32 0 l 744 0 l 744 175 l 310 175 l 310 180 l 737 813 l 737 936 l 72 936 l 72 761 l 469 761 l 469 756 l 32 113 l 32 0 "},"⁸":{"x_min":31.3125,"x_max":458.6875,"ha":501,"o":"m 247 1164 b 49 1009 136 1164 49 1102 b 130 891 49 961 78 916 l 130 889 b 31 758 72 864 31 823 b 239 608 31 693 88 608 b 458 775 377 608 458 679 b 356 905 458 847 404 887 l 356 908 b 436 1023 406 930 436 973 b 249 1164 436 1091 378 1164 l 247 1164 m 245 708 b 174 773 202 708 174 740 b 235 844 174 808 196 830 b 313 768 273 834 313 812 b 246 708 313 732 284 708 l 245 708 m 243 1066 b 304 1007 284 1066 304 1039 b 254 946 304 977 281 954 b 182 1012 210 959 182 982 b 242 1066 182 1043 204 1066 l 243 1066 "},"":{"x_min":-42,"x_max":449,"ha":417,"o":"m -42 972 l 92 763 l 208 763 l 121 972 l -42 972 m 198 972 l 333 763 l 449 763 l 361 972 l 198 972 "},"k":{"x_min":83.03125,"x_max":758.140625,"ha":753,"o":"m 289 987 l 83 987 l 83 0 l 289 0 l 289 212 l 341 279 l 503 0 l 758 0 l 485 404 l 724 679 l 475 679 l 340 475 b 292 393 323 450 307 422 l 289 393 l 289 987 "},"Ù":{"x_min":90.078125,"x_max":838.6875,"ha":947,"o":"m 90 936 l 90 413 b 456 -15 90 116 224 -15 b 838 411 695 -15 838 122 l 838 936 l 631 936 l 631 398 b 463 154 631 231 571 154 b 296 398 358 154 296 236 l 296 936 l 90 936 m 237 1158 l 403 988 l 569 988 l 454 1158 l 237 1158 "},"Ů":{"x_min":89.828125,"x_max":838.453125,"ha":947,"o":"m 89 936 l 89 413 b 455 -15 89 116 224 -15 b 838 411 695 -15 838 122 l 838 936 l 631 936 l 631 398 b 462 154 631 231 571 154 b 296 398 357 154 296 236 l 296 936 l 89 936 m 465 1229 b 308 1091 364 1229 308 1166 b 465 958 308 1018 367 958 b 620 1093 562 958 620 1018 b 466 1229 620 1168 568 1229 l 465 1229 m 464 1158 b 524 1093 502 1158 524 1126 b 464 1029 524 1056 502 1029 b 404 1091 426 1029 404 1059 b 462 1158 404 1126 424 1158 l 464 1158 "},"¢":{"x_min":102.078125,"x_max":649.25,"ha":771,"o":"m 513 -15 l 513 116 b 649 148 567 120 616 133 l 624 301 b 490 276 589 287 547 276 b 313 462 394 276 313 338 b 488 650 313 575 381 650 b 609 625 541 650 581 640 l 642 780 b 513 808 605 795 556 806 l 513 934 l 379 934 l 379 801 b 102 455 200 766 102 622 b 176 226 102 363 129 283 b 379 120 225 170 292 133 l 379 -15 l 513 -15 "},"":{"x_min":5.015625,"x_max":629.765625,"ha":643,"o":"m 5 902 l 5 729 l 410 729 l 410 726 l 45 0 l 264 0 l 629 770 l 629 902 l 5 902 "},"В":{"x_min":89.828125,"x_max":770.390625,"ha":839,"o":"m 89 4 b 314 -9 136 -2 212 -9 b 675 75 496 -9 608 20 b 770 273 732 120 770 187 b 588 504 770 394 692 476 l 588 506 b 737 705 690 547 737 623 b 628 890 737 791 692 855 b 357 943 562 930 484 943 b 89 922 253 943 144 933 l 89 4 m 295 781 b 383 788 311 786 337 788 b 530 680 477 788 530 751 b 363 565 530 611 473 565 l 295 565 l 295 781 m 295 413 l 366 413 b 552 281 469 413 552 376 b 375 145 552 183 469 145 b 295 150 340 145 315 145 l 295 413 "},"І":{"x_min":91.1875,"x_max":298.078125,"ha":396,"o":"m 91 936 l 91 0 l 298 0 l 298 936 l 91 936 "},"ē":{"x_min":44.640625,"x_max":676.984375,"ha":733,"o":"m 670 272 b 676 355 672 287 676 319 b 380 694 676 523 595 694 b 44 331 150 694 44 504 b 399 -13 44 119 173 -13 b 640 29 489 -13 572 0 l 613 172 b 429 143 557 152 500 143 b 242 272 333 143 248 184 l 670 272 m 240 416 b 369 554 246 472 281 554 b 485 416 463 554 485 468 l 240 416 m 194 925 l 194 808 l 534 808 l 534 925 l 194 925 "},"β":{"x_min":78.9375,"x_max":752.703125,"ha":815,"o":"m 283 46 b 465 -15 330 2 392 -15 b 752 277 626 -15 752 101 b 570 531 752 412 665 509 l 570 540 b 679 746 641 577 679 669 b 409 1001 679 887 583 1001 b 186 917 307 1001 236 966 b 78 573 127 862 78 774 l 78 -37 b 104 -275 78 -132 85 -235 l 296 -275 b 280 -33 283 -218 280 -116 l 280 46 l 283 46 m 279 612 b 397 837 279 778 326 837 b 494 713 455 837 494 785 b 390 573 494 644 455 585 b 367 570 382 570 375 570 l 367 440 b 397 440 377 440 387 441 b 544 285 477 433 544 381 b 412 142 544 210 500 142 b 279 213 356 142 310 171 l 279 612 "},"":{"x_min":-10.421875,"x_max":206,"ha":239,"o":"m 90 284 b 206 540 137 362 176 447 l 54 533 b -10 276 41 447 19 362 l 90 284 "},"":{"x_min":27.21875,"x_max":504.96875,"ha":546,"o":"m 435 369 l 435 494 l 504 494 l 504 597 l 435 597 l 435 915 l 253 915 l 27 581 l 27 494 l 288 494 l 288 369 l 435 369 m 288 597 l 172 597 l 170 598 l 242 709 b 291 802 258 736 273 768 l 294 802 b 288 698 292 768 288 734 l 288 597 "},"≠":{"x_min":53.96875,"x_max":756.046875,"ha":828,"o":"m 756 159 l 756 288 l 415 288 l 519 454 l 756 454 l 756 583 l 600 583 l 687 723 l 556 723 l 471 583 l 53 583 l 53 454 l 390 454 l 288 288 l 53 288 l 53 159 l 206 159 l 117 19 l 251 19 l 335 159 l 756 159 "},"¥":{"x_min":2.71875,"x_max":752.703125,"ha":771,"o":"m 468 0 l 468 222 l 681 222 l 681 320 l 468 320 l 468 409 l 681 409 l 681 508 l 519 508 l 752 902 l 534 902 l 438 681 b 379 529 415 627 397 575 l 377 529 b 319 680 359 577 344 625 l 224 902 l 2 902 l 224 508 l 61 508 l 61 409 l 273 409 l 273 320 l 61 320 l 61 222 l 273 222 l 273 0 l 468 0 "},"Ĥ":{"x_min":91.09375,"x_max":846.90625,"ha":957,"o":"m 91 936 l 91 0 l 298 0 l 298 390 l 639 390 l 639 0 l 846 0 l 846 936 l 639 936 l 639 575 l 298 575 l 298 936 l 91 936 m 392 1156 l 255 986 l 400 986 l 468 1072 l 471 1072 l 539 986 l 684 986 l 547 1156 l 392 1156 "},"U":{"x_min":89.828125,"x_max":838.453125,"ha":947,"o":"m 89 936 l 89 413 b 455 -15 89 116 224 -15 b 838 411 695 -15 838 122 l 838 936 l 631 936 l 631 398 b 462 154 631 231 571 154 b 296 398 357 154 296 236 l 296 936 l 89 936 "},"Ñ":{"x_min":90.09375,"x_max":849.59375,"ha":958,"o":"m 280 0 l 280 281 b 271 691 280 434 277 566 l 276 691 b 435 361 320 581 381 462 l 631 0 l 849 0 l 849 936 l 659 936 l 659 663 b 675 272 659 522 663 395 l 672 272 b 522 593 630 377 577 494 l 332 936 l 90 936 l 90 0 l 280 0 m 377 993 b 409 1052 380 1033 392 1052 b 468 1027 429 1052 443 1041 b 556 1001 492 1013 520 1001 b 663 1175 627 1001 665 1050 l 570 1175 b 533 1115 565 1127 556 1115 b 473 1141 516 1115 497 1127 b 386 1169 449 1156 423 1169 b 282 993 321 1169 279 1109 l 377 993 "},"F":{"x_min":91.1875,"x_max":650.609375,"ha":732,"o":"m 91 0 l 298 0 l 298 376 l 627 376 l 627 548 l 298 548 l 298 762 l 650 762 l 650 936 l 91 936 l 91 0 "},"":{"x_min":117.0625,"x_max":428.75,"ha":556,"o":"m 273 1240 b 117 1102 172 1240 117 1177 b 273 969 117 1029 175 969 b 428 1104 370 969 428 1029 b 274 1240 428 1179 377 1240 l 273 1240 m 272 1169 b 332 1104 310 1169 332 1137 b 272 1040 332 1068 310 1040 b 212 1102 234 1040 212 1070 b 270 1169 212 1137 232 1169 l 272 1169 "},"Ќ":{"x_min":91.1875,"x_max":818.03125,"ha":840,"o":"m 91 936 l 91 0 l 295 0 l 295 391 l 334 391 b 519 205 446 391 488 311 b 590 0 541 136 559 63 l 813 0 b 707 294 770 93 740 194 b 498 519 669 406 616 490 l 818 936 l 566 936 l 314 545 l 295 545 l 295 936 l 91 936 m 424 1150 l 310 979 l 476 979 l 642 1150 l 424 1150 "},"∕":{"x_min":-19.21875,"x_max":596,"ha":589,"o":"m 93 -15 l 596 918 l 483 918 l -19 -15 l 93 -15 "},"å":{"x_min":38.953125,"x_max":647.375,"ha":733,"o":"m 636 401 b 345 694 636 561 567 694 b 86 633 224 694 132 659 l 124 498 b 308 548 168 525 240 548 b 429 461 410 548 429 497 l 429 452 b 38 193 194 452 38 369 b 254 -15 38 84 119 -15 b 444 68 332 -15 401 13 l 448 68 l 460 0 l 647 0 b 636 163 639 37 636 100 l 636 401 m 436 247 b 432 211 436 234 435 222 b 324 133 418 168 375 133 b 243 213 278 133 243 159 b 436 320 243 294 327 320 l 436 247 m 361 1022 b 203 883 259 1022 203 961 b 361 748 203 806 263 748 b 515 884 455 748 515 806 b 362 1022 515 962 460 1022 l 361 1022 m 360 952 b 422 884 401 952 422 919 b 360 818 422 848 399 818 b 298 883 322 818 298 851 b 358 952 298 919 319 952 l 360 952 "},"Ϋ":{"x_min":12.25,"x_max":842.53125,"ha":868,"o":"m 292 969 b 382 1063 344 969 382 1012 b 292 1158 382 1118 344 1158 b 198 1063 239 1158 198 1118 b 291 969 198 1012 239 969 l 292 969 m 570 969 b 661 1063 623 969 661 1012 b 570 1158 661 1118 623 1158 b 479 1063 517 1158 479 1118 b 568 969 479 1012 515 969 l 570 969 m 12 769 b 302 387 175 738 266 584 b 317 204 313 323 317 273 l 317 0 l 524 0 l 524 202 b 547 394 524 266 532 330 b 842 765 590 576 713 729 l 809 944 b 567 811 740 941 639 891 b 438 519 504 740 454 640 l 428 519 b 310 819 416 643 377 745 b 44 944 232 906 121 943 l 12 769 "},"0":{"x_min":44.921875,"x_max":710.5,"ha":771,"o":"m 377 -15 b 710 455 600 -15 710 177 b 381 918 710 702 616 918 b 44 450 152 918 44 712 b 375 -15 46 194 147 -15 l 377 -15 m 378 144 b 251 452 299 144 250 244 b 378 758 251 656 300 758 b 503 452 461 758 503 652 b 379 144 503 247 460 144 l 378 144 "},"ō":{"x_min":44.921875,"x_max":740.453125,"ha":801,"o":"m 390 -15 b 740 345 567 -15 740 98 b 401 694 740 551 604 694 b 44 334 186 694 44 554 b 389 -15 44 115 194 -15 l 390 -15 m 393 136 b 258 338 306 136 258 223 b 394 543 258 440 296 543 b 526 340 488 543 526 440 b 394 136 526 218 476 136 l 393 136 m 224 925 l 224 808 l 564 808 l 564 925 l 224 925 "},"”":{"x_min":33,"x_max":588.1875,"ha":631,"o":"m 128 948 b 33 573 109 826 75 693 l 158 586 b 321 961 220 690 279 826 l 128 948 m 394 948 b 299 573 375 826 340 693 l 424 586 b 588 961 486 690 545 826 l 394 948 "},"ö":{"x_min":44.921875,"x_max":740.453125,"ha":801,"o":"m 390 -15 b 740 345 567 -15 740 98 b 401 694 740 551 604 694 b 44 334 186 694 44 554 b 389 -15 44 115 194 -15 l 390 -15 m 393 136 b 258 338 306 136 258 223 b 394 543 258 440 296 543 b 526 340 488 543 526 440 b 394 136 526 218 476 136 l 393 136 m 251 773 b 344 872 304 773 344 818 b 251 969 344 927 303 969 b 153 872 197 969 153 927 b 250 773 153 818 196 773 l 251 773 m 537 773 b 631 872 592 773 631 818 b 537 969 631 927 590 969 b 441 872 481 969 441 927 b 534 773 441 818 481 773 l 537 773 "},"":{"x_min":35,"x_max":337,"ha":375,"o":"m 337 719 l 192 719 l 35 454 l 192 190 l 337 190 l 173 454 l 337 719 "},"ć":{"x_min":44.921875,"x_max":588,"ha":626,"o":"m 558 173 b 439 151 526 159 488 151 b 257 341 338 151 257 216 b 435 530 255 451 326 530 b 551 509 490 530 526 520 l 583 666 b 426 693 540 683 480 693 b 44 333 178 693 44 530 b 397 -13 44 120 182 -13 b 582 18 476 -13 545 0 l 558 173 m 397 975 l 280 763 l 421 763 l 588 975 l 397 975 "},"þ":{"x_min":83.03125,"x_max":767.671875,"ha":831,"o":"m 83 938 l 83 -275 l 289 -275 l 289 63 l 292 63 b 468 -15 326 18 386 -15 b 767 345 605 -15 767 94 b 491 694 767 570 632 697 b 292 595 398 694 332 655 l 289 595 l 289 938 l 83 938 m 289 394 b 303 451 289 412 296 436 b 421 529 325 500 370 529 b 558 343 507 529 558 447 b 416 147 558 222 502 147 b 308 212 370 147 329 173 b 289 277 296 229 289 258 l 289 394 "},"]":{"x_min":57.171875,"x_max":334.828125,"ha":436,"o":"m 57 952 l 57 836 l 186 836 l 186 -38 l 57 -38 l 57 -155 l 334 -155 l 334 952 l 57 952 "},"А":{"x_min":23,"x_max":860,"ha":911,"o":"m 566 240 l 636 0 l 860 0 l 574 936 l 303 936 l 23 0 l 238 0 l 302 240 l 566 240 m 331 398 l 387 597 b 428 777 401 651 416 722 l 432 777 b 477 597 446 723 462 652 l 534 398 l 331 398 "},"Ы":{"x_min":91.1875,"x_max":1053.5,"ha":1183,"o":"m 91 934 l 91 2 b 313 -11 137 -4 212 -11 b 688 108 446 -11 600 16 b 762 309 733 155 762 222 b 398 616 762 520 588 616 b 296 608 364 616 323 612 l 296 934 l 91 934 m 296 448 b 368 454 317 451 341 454 b 544 304 447 454 544 411 b 366 147 544 201 457 147 b 296 152 338 147 313 148 l 296 448 m 846 934 l 846 -1 l 1053 -1 l 1053 934 l 846 934 "},"ẁ":{"x_min":15,"x_max":1020,"ha":1054,"o":"m 15 679 l 209 0 l 404 0 l 471 238 b 513 450 487 301 501 365 l 516 450 b 559 237 529 365 542 304 l 622 0 l 815 0 l 1020 679 l 817 679 l 761 409 b 721 177 744 331 731 254 l 719 177 b 670 408 706 255 689 330 l 603 679 l 439 679 l 369 398 b 321 177 354 331 333 254 l 317 177 b 280 400 306 255 292 330 l 226 679 l 15 679 m 311 975 l 478 763 l 619 763 l 502 975 l 311 975 "},"ĭ":{"x_min":-1.359375,"x_max":377.03125,"ha":381,"o":"m 289 0 l 289 679 l 83 679 l 83 0 l 289 0 m -1 961 b 187 763 0 850 61 763 b 377 961 310 763 375 844 l 269 961 b 186 876 266 916 242 876 b 106 961 138 876 114 911 l -1 961 "},"8":{"x_min":43.5625,"x_max":711.859375,"ha":771,"o":"m 383 918 b 73 663 208 918 73 816 b 201 465 73 584 115 511 l 201 462 b 43 236 104 419 43 344 b 371 -15 43 113 147 -15 b 711 259 577 -15 711 95 b 548 483 711 375 635 450 l 548 487 b 677 686 637 531 677 608 b 385 918 677 795 592 918 l 383 918 m 378 130 b 254 256 302 130 253 191 b 362 391 254 322 294 372 b 500 243 442 369 500 322 b 379 130 500 179 451 130 l 378 130 m 377 775 b 483 662 451 775 483 719 b 393 548 483 606 441 562 b 269 670 322 570 269 609 b 375 775 269 726 304 775 l 377 775 "},"R":{"x_min":89.828125,"x_max":782.640625,"ha":824,"o":"m 89 0 l 295 0 l 295 368 l 356 368 b 507 218 442 366 481 336 b 570 0 533 102 556 27 l 782 0 b 709 265 764 36 737 158 b 586 438 686 351 650 412 l 586 443 b 748 672 665 472 748 554 b 662 868 748 758 718 823 b 366 943 597 922 502 943 b 89 922 254 943 156 934 l 89 0 m 295 777 b 389 784 310 781 338 784 b 541 655 484 784 541 740 b 377 520 541 573 480 520 l 295 520 l 295 777 "},"":{"x_min":27.21875,"x_max":598.890625,"ha":654,"o":"m 27 -143 b 230 -175 65 -159 140 -175 b 598 98 423 -175 598 -72 b 404 297 598 213 510 280 l 404 300 b 567 490 495 322 567 398 b 294 694 567 616 454 694 b 38 625 196 694 95 665 l 73 486 b 245 531 114 506 182 531 b 360 452 318 531 360 504 b 178 354 360 391 279 361 l 140 351 l 141 204 b 215 206 161 205 189 206 b 385 102 319 206 385 166 b 208 -13 385 26 311 -13 b 49 9 144 -13 85 -4 l 27 -143 "},"":{"x_min":49,"x_max":394.71875,"ha":458,"o":"m 311 -7 l 311 69 b 394 88 343 72 372 77 l 377 191 b 298 177 356 183 329 177 b 194 280 243 177 194 209 b 296 381 194 343 232 381 b 367 368 326 381 349 376 l 389 473 b 311 488 363 483 334 488 l 311 561 l 221 561 l 221 484 b 49 273 106 462 49 372 b 95 137 49 220 65 172 b 221 72 125 104 167 80 l 221 -7 l 311 -7 "},"Ż":{"x_min":32.671875,"x_max":744.53125,"ha":801,"o":"m 32 0 l 744 0 l 744 175 l 310 175 l 310 180 l 737 813 l 737 936 l 72 936 l 72 761 l 469 761 l 469 756 l 32 113 l 32 0 m 400 990 b 491 1084 451 990 491 1034 b 400 1180 491 1138 451 1180 b 304 1084 347 1180 304 1138 b 398 990 304 1034 345 990 l 400 990 "},"ħ":{"x_min":-23.140625,"x_max":714.578125,"ha":814,"o":"m 714 0 l 714 395 b 481 694 714 601 613 694 b 374 668 443 694 405 683 b 292 597 341 650 314 627 l 289 597 l 289 750 l 539 750 l 539 865 l 289 865 l 289 987 l 83 987 l 83 865 l -23 865 l -23 750 l 83 750 l 83 0 l 289 0 l 289 402 b 296 448 289 418 291 436 b 400 523 311 487 345 523 b 507 373 477 523 507 462 l 507 0 l 714 0 "},"õ":{"x_min":44.921875,"x_max":740.453125,"ha":801,"o":"m 390 -15 b 740 345 567 -15 740 98 b 401 694 740 551 604 694 b 44 334 186 694 44 554 b 389 -15 44 115 194 -15 l 390 -15 m 393 136 b 258 338 306 136 258 223 b 394 543 258 440 296 543 b 526 340 488 543 526 440 b 394 136 526 218 476 136 l 393 136 m 298 775 b 330 837 300 816 311 837 b 382 815 348 837 357 829 b 476 786 411 801 438 786 b 588 963 548 786 592 837 l 492 963 b 457 902 488 915 479 902 b 400 929 441 902 421 916 b 311 956 372 943 345 956 b 200 775 242 956 196 891 l 298 775 "},"":{"x_min":43.5625,"x_max":721.390625,"ha":779,"o":"m 382 -15 b 721 338 601 -15 721 147 b 382 694 721 531 600 694 b 43 338 163 694 43 531 b 381 -15 43 145 163 -15 l 382 -15 m 382 138 b 240 338 294 138 240 215 b 382 540 240 463 294 540 b 524 338 470 540 524 463 b 383 138 524 215 470 138 l 382 138 "},"˙":{"x_min":69.421875,"x_max":258.609375,"ha":417,"o":"m 166 773 b 258 870 219 773 258 818 b 166 969 258 927 219 969 b 69 870 111 969 69 927 b 164 773 69 818 110 773 l 166 773 "},"ê":{"x_min":44.78125,"x_max":677.984375,"ha":733,"o":"m 671 272 b 677 355 673 287 677 319 b 381 694 677 523 596 694 b 44 331 150 694 44 504 b 400 -13 44 119 174 -13 b 641 29 490 -13 573 0 l 614 172 b 430 143 558 152 500 143 b 242 272 333 143 248 184 l 671 272 m 240 416 b 370 554 246 472 281 554 b 485 416 464 554 485 468 l 240 416 m 306 975 l 170 763 l 304 763 l 374 884 l 376 884 l 445 763 l 579 763 l 445 975 l 306 975 "},"„":{"x_min":19.8125,"x_max":575,"ha":638,"o":"m 145 -133 b 308 243 207 -27 266 106 l 115 230 b 19 -144 96 108 62 -26 l 145 -133 m 411 -133 b 575 243 472 -27 532 106 l 381 230 b 286 -144 362 108 327 -26 l 411 -133 "},"ч":{"x_min":74.859375,"x_max":677.828125,"ha":775,"o":"m 74 679 l 74 447 b 300 202 74 286 157 202 b 468 245 363 202 427 219 l 470 245 l 470 -9 l 677 -9 l 677 679 l 470 679 l 470 381 b 381 352 451 366 415 352 b 281 466 308 352 281 391 l 281 679 l 74 679 "},"δ":{"x_min":45.171875,"x_max":737.984375,"ha":800,"o":"m 682 933 b 439 1001 642 963 552 1001 b 169 818 264 1001 169 906 b 242 676 169 750 218 700 l 268 652 l 268 647 b 45 320 160 593 45 491 b 385 -15 45 118 194 -15 b 737 334 582 -15 737 120 b 573 641 737 458 675 558 l 461 731 b 384 815 409 773 384 794 b 458 851 384 836 407 851 b 629 801 529 851 604 819 l 682 933 m 442 495 b 531 316 499 447 531 381 b 399 136 531 208 473 136 b 257 325 318 136 257 220 b 380 548 257 434 313 506 l 442 495 "},"Â":{"x_min":23,"x_max":860,"ha":911,"o":"m 566 240 l 636 0 l 860 0 l 574 936 l 303 936 l 23 0 l 238 0 l 302 240 l 566 240 m 331 398 l 387 597 b 428 777 401 651 416 722 l 432 777 b 477 597 446 723 462 652 l 534 398 l 331 398 m 368 1156 l 232 986 l 376 986 l 444 1072 l 447 1072 l 515 986 l 661 986 l 523 1156 l 368 1156 "},"Į":{"x_min":44.921875,"x_max":337.5625,"ha":396,"o":"m 298 936 l 91 936 l 91 0 b 44 -158 77 -26 44 -93 b 198 -305 44 -256 103 -305 b 337 -261 242 -305 299 -291 l 308 -163 b 249 -173 295 -169 274 -173 b 175 -95 206 -173 175 -143 b 205 0 175 -61 191 -23 l 298 0 l 298 936 "},"ω":{"x_min":44.921875,"x_max":952.78125,"ha":1018,"o":"m 593 519 l 400 519 l 402 270 b 338 161 404 208 379 161 b 245 359 292 161 245 222 b 341 677 245 484 284 602 l 341 681 l 155 681 b 44 345 102 619 44 502 b 311 -15 44 104 175 -15 b 491 91 394 -15 455 30 l 496 91 b 675 -15 526 25 597 -15 b 952 362 827 -15 952 119 b 845 681 952 512 895 633 l 657 681 l 657 677 b 751 372 718 606 751 484 b 656 161 751 233 709 161 b 589 270 613 161 589 209 l 593 519 "},"Ţ":{"x_min":20.296875,"x_max":725.34375,"ha":761,"o":"m 268 0 l 474 0 l 474 758 l 725 758 l 725 936 l 20 936 l 20 758 l 268 758 l 268 0 m 262 -334 b 477 -163 380 -330 477 -279 b 424 -54 477 -113 451 -75 l 281 -77 b 321 -161 299 -98 321 -129 b 231 -245 321 -208 276 -236 l 262 -334 "},"₎":{"x_min":24.5,"x_max":221.859375,"ha":283,"o":"m 127 -276 b 221 54 168 -212 221 -102 b 127 386 221 213 168 325 l 24 386 b 104 55 63 313 104 198 b 24 -276 104 -88 63 -200 l 127 -276 "},"₄":{"x_min":27.21875,"x_max":504.96875,"ha":546,"o":"m 435 -204 l 435 -79 l 504 -79 l 504 23 l 435 23 l 435 341 l 253 341 l 27 8 l 27 -79 l 288 -79 l 288 -204 l 435 -204 m 288 23 l 172 23 l 170 25 l 242 136 b 291 229 258 162 273 194 l 294 229 b 288 125 292 194 288 161 l 288 23 "},"´":{"x_min":103,"x_max":410.609375,"ha":417,"o":"m 220 975 l 103 763 l 244 763 l 410 975 l 220 975 "},"Ĉ":{"x_min":47.640625,"x_max":774.46875,"ha":826,"o":"m 732 193 b 558 162 690 175 622 162 b 265 466 374 162 265 280 b 556 776 265 675 393 776 b 730 741 631 776 690 759 l 774 909 b 548 950 737 927 656 950 b 47 455 270 950 47 773 b 528 -13 47 188 210 -13 b 762 26 638 -13 725 8 l 732 193 m 411 1162 l 274 991 l 419 991 l 487 1077 l 490 1077 l 558 991 l 703 991 l 566 1162 l 411 1162 "},"":{"x_min":106.171875,"x_max":604.328125,"ha":779,"o":"m 582 212 b 458 193 551 201 510 193 b 298 348 372 193 298 243 b 457 504 298 444 362 504 b 570 483 504 504 544 495 l 598 619 b 476 641 566 630 518 640 l 476 737 l 359 737 l 359 636 b 106 340 198 605 106 483 b 359 56 106 181 208 79 l 359 -47 l 476 -47 l 476 54 b 604 80 526 55 577 69 l 582 212 "},"И":{"x_min":89.4375,"x_max":847.578125,"ha":958,"o":"m 89 936 l 89 0 l 324 0 l 511 337 b 667 670 565 436 625 559 l 672 670 b 657 276 659 548 657 420 l 657 0 l 847 0 l 847 936 l 635 936 l 437 568 b 273 234 383 468 322 344 l 269 234 b 280 658 275 359 280 508 l 280 936 l 89 936 "},"Љ":{"x_min":-5.4375,"x_max":1238.609375,"ha":1313,"o":"m 168 936 l 168 527 b 99 206 168 386 155 266 b -5 154 77 183 39 161 l 21 -15 b 202 30 92 -15 156 4 b 370 540 341 113 370 300 l 370 762 l 564 762 l 564 4 b 785 -9 611 -2 683 -9 b 1150 95 925 -9 1063 16 b 1238 309 1203 144 1238 218 b 879 609 1238 516 1065 609 b 770 602 842 609 800 606 l 770 936 l 168 936 m 770 448 b 843 454 793 451 816 454 b 1023 305 940 454 1023 411 b 841 148 1023 202 937 148 b 770 152 815 148 794 148 l 770 448 "},"р":{"x_min":77.578125,"x_max":767.671875,"ha":831,"o":"m 83 -275 l 289 -275 l 289 62 l 292 62 b 465 -15 322 18 385 -15 b 767 348 613 -15 767 101 b 491 694 767 565 637 694 b 269 584 394 694 318 655 l 266 584 l 257 679 l 77 679 b 83 451 80 615 83 540 l 83 -275 m 289 384 b 294 422 289 397 291 411 b 417 529 307 484 359 529 b 558 338 510 529 558 447 b 415 147 558 223 504 147 b 294 247 355 147 307 190 b 289 291 291 261 289 275 l 289 384 "},"Ω":{"x_min":43.5625,"x_max":967.75,"ha":1033,"o":"m 785 165 b 951 527 857 227 951 347 b 514 951 951 745 794 951 b 59 512 245 951 59 756 b 223 165 59 347 147 227 l 223 159 l 43 159 l 43 0 l 450 0 l 450 122 b 276 484 355 183 276 333 b 510 783 276 650 368 783 b 737 486 653 783 737 644 b 564 122 739 315 658 195 l 564 0 l 967 0 l 967 159 l 785 159 l 785 165 "},"":{"x_min":92.5625,"x_max":370.21875,"ha":436,"o":"m 370 -102 l 370 13 l 240 13 l 240 888 l 370 888 l 370 1005 l 92 1005 l 92 -102 l 370 -102 "},"т":{"x_min":17.6875,"x_max":611.140625,"ha":640,"o":"m 17 679 l 17 516 l 210 516 l 210 0 l 417 0 l 417 516 l 611 516 l 611 679 l 17 679 "},"П":{"x_min":91.1875,"x_max":831.640625,"ha":940,"o":"m 91 936 l 91 0 l 298 0 l 298 762 l 624 762 l 624 0 l 831 0 l 831 936 l 91 936 "},"Ö":{"x_min":47.640625,"x_max":929.640625,"ha":996,"o":"m 480 -15 b 929 477 748 -15 929 169 b 494 951 929 736 775 951 b 47 461 224 951 47 741 b 479 -15 47 194 208 -15 l 480 -15 m 488 152 b 266 466 349 152 266 290 b 490 783 266 641 347 783 b 710 470 632 783 710 638 b 490 152 710 287 630 152 l 488 152 m 348 990 b 438 1084 400 990 438 1033 b 348 1180 438 1140 398 1180 b 254 1084 295 1180 254 1138 b 347 990 254 1033 295 990 l 348 990 m 630 990 b 721 1084 683 990 721 1033 b 630 1180 721 1140 681 1180 b 537 1084 577 1180 537 1138 b 628 990 537 1033 575 990 l 630 990 "},"z":{"x_min":29.9375,"x_max":608.421875,"ha":651,"o":"m 29 0 l 608 0 l 608 168 l 288 168 l 288 170 b 397 294 326 208 360 251 l 597 551 l 597 679 l 53 679 l 53 511 l 345 511 l 345 508 b 239 388 307 468 277 433 l 29 122 l 29 0 "},"™":{"x_min":36.75,"x_max":869.75,"ha":903,"o":"m 36 936 l 36 843 l 141 843 l 141 556 l 254 556 l 254 843 l 360 843 l 360 936 l 36 936 m 869 556 l 849 936 l 687 936 l 660 843 b 632 720 650 804 642 766 l 631 720 b 609 843 622 783 616 813 l 585 936 l 411 936 l 387 556 l 494 556 l 502 722 b 504 870 503 766 504 819 l 511 870 b 534 723 519 820 529 761 l 568 563 l 676 563 l 714 722 b 745 870 724 765 735 819 l 752 870 b 754 722 754 812 752 765 l 760 556 l 869 556 "},"Θ":{"x_min":47.640625,"x_max":931,"ha":999,"o":"m 481 -15 b 931 477 748 -15 931 170 b 495 951 931 736 777 951 b 47 461 224 951 47 741 b 480 -15 47 194 208 -15 l 481 -15 m 488 152 b 265 466 349 152 265 288 b 490 783 265 641 347 783 b 713 470 634 783 713 640 b 490 152 713 287 631 152 l 488 152 m 345 562 l 345 391 l 631 391 l 631 562 l 345 562 "},"Ř":{"x_min":90.203125,"x_max":782.953125,"ha":824,"o":"m 90 0 l 295 0 l 295 368 l 356 368 b 508 218 442 366 482 336 b 570 0 533 102 557 27 l 782 0 b 709 265 765 36 738 158 b 586 438 686 351 650 412 l 586 443 b 748 672 665 472 748 554 b 663 868 748 758 718 823 b 366 943 597 922 502 943 b 90 922 254 943 156 934 l 90 0 m 295 777 b 389 784 310 781 339 784 b 542 655 484 784 542 740 b 377 520 542 573 480 520 l 295 520 l 295 777 m 475 987 l 611 1158 l 467 1158 l 399 1072 l 396 1072 l 328 1158 l 182 1158 l 320 987 l 475 987 "},"":{"x_min":28.578125,"x_max":458.6875,"ha":497,"o":"m 77 365 b 130 363 89 363 112 362 b 366 441 228 366 308 390 b 458 683 424 494 458 577 b 239 917 458 801 393 917 b 28 723 119 917 28 833 b 202 553 28 613 111 553 b 310 590 251 553 289 570 l 313 588 b 242 501 303 553 280 521 b 130 473 212 484 170 474 b 77 474 114 471 92 473 l 77 365 m 240 810 b 315 715 295 810 315 763 b 310 683 315 701 314 690 b 243 651 299 666 277 651 b 171 730 194 651 171 690 b 239 810 171 778 202 810 l 240 810 "},"Ň":{"x_min":90.390625,"x_max":849.625,"ha":958,"o":"m 280 0 l 280 281 b 271 691 280 434 278 566 l 276 691 b 435 361 320 581 381 462 l 631 0 l 849 0 l 849 936 l 659 936 l 659 663 b 675 272 659 522 663 395 l 672 272 b 523 593 630 377 577 494 l 332 936 l 90 936 l 90 0 l 280 0 m 552 983 l 689 1154 l 544 1154 l 476 1068 l 474 1068 l 406 1154 l 260 1154 l 397 983 l 552 983 "},"É":{"x_min":91.109375,"x_max":675.015625,"ha":742,"o":"m 635 568 l 298 568 l 298 762 l 655 762 l 655 936 l 91 936 l 91 0 l 675 0 l 675 173 l 298 173 l 298 395 l 635 395 l 635 568 m 393 1156 l 278 986 l 445 986 l 611 1156 l 393 1156 "},"и":{"x_min":81.671875,"x_max":730.921875,"ha":829,"o":"m 81 679 l 81 0 l 333 0 b 472 318 379 105 430 222 b 541 500 499 380 515 426 l 547 500 b 534 206 540 356 534 312 l 534 0 l 730 0 l 730 679 l 477 679 l 348 387 b 272 193 321 323 303 269 l 266 193 b 277 470 272 286 277 362 l 277 679 l 81 679 "},"":{"x_min":-95.28125,"x_max":502.25,"ha":418,"o":"m -5 779 b 81 870 44 779 81 819 b -4 962 81 923 44 962 b -95 870 -55 962 -95 923 b -6 779 -95 820 -57 779 l -5 779 m 413 779 b 502 870 464 779 502 819 b 415 962 502 923 465 962 b 325 870 363 962 325 923 b 412 779 325 820 362 779 l 413 779 m 167 986 l 89 775 l 213 775 l 343 986 l 167 986 "},"³":{"x_min":12.25,"x_max":441,"ha":482,"o":"m 62 1018 b 186 1052 89 1033 138 1052 b 258 1002 236 1052 258 1031 b 153 945 258 959 198 945 l 115 945 l 115 851 l 156 851 b 273 781 216 851 273 829 b 176 719 273 745 232 719 b 43 755 127 719 70 740 l 12 647 b 196 608 51 625 122 608 b 441 773 345 608 441 676 b 308 900 441 844 383 893 l 308 902 b 420 1026 374 923 420 966 b 224 1163 420 1102 355 1163 b 34 1119 145 1163 73 1143 l 62 1018 "},"":{"x_min":24.5,"x_max":221.859375,"ha":283,"o":"m 127 297 b 221 627 168 361 221 470 b 127 959 221 787 168 898 l 24 959 b 104 629 63 887 104 772 b 24 297 104 484 63 373 l 127 297 "},"[":{"x_min":92.5625,"x_max":370.21875,"ha":436,"o":"m 370 -155 l 370 -38 l 240 -38 l 240 836 l 370 836 l 370 952 l 92 952 l 92 -155 l 370 -155 "},"ζ":{"x_min":47.90625,"x_max":597.796875,"ha":613,"o":"m 491 -212 b 591 83 544 -145 591 -10 b 577 101 591 93 584 100 b 375 154 509 113 434 124 b 260 351 305 188 260 244 b 597 843 260 546 419 761 l 569 981 l 316 981 b 126 985 238 981 169 981 l 106 851 b 258 833 141 839 196 833 l 322 833 l 322 826 b 47 311 151 685 47 492 b 248 7 47 133 144 47 b 399 -32 301 -13 358 -25 b 363 -170 397 -66 378 -139 l 491 -212 "},"∏":{"x_min":13.609375,"x_max":886.078125,"ha":921,"o":"m 886 729 l 886 902 l 13 902 l 13 729 l 140 729 l 140 -125 l 332 -125 l 332 729 l 567 729 l 567 -125 l 759 -125 l 759 729 l 886 729 "},"Έ":{"x_min":1.359375,"x_max":822.109375,"ha":892,"o":"m 782 568 l 445 568 l 445 762 l 803 762 l 803 936 l 238 936 l 238 0 l 822 0 l 822 173 l 445 173 l 445 395 l 782 395 l 782 568 m 4 936 l 1 694 l 119 694 l 168 936 l 4 936 "},"Ρ":{"x_min":89.828125,"x_max":748.609375,"ha":807,"o":"m 89 0 l 295 0 l 295 336 b 366 331 314 332 338 331 b 664 429 488 331 593 362 b 748 651 720 481 748 558 b 650 867 748 743 710 821 b 370 943 589 918 498 943 b 89 924 243 943 153 935 l 89 0 m 295 775 b 379 782 310 779 338 782 b 543 644 484 782 543 731 b 364 493 543 550 475 493 b 295 499 333 493 313 494 l 295 775 "},"ğ":{"x_min":45.09375,"x_max":718.84375,"ha":813,"o":"m 713 476 b 718 679 713 577 716 634 l 539 679 l 532 597 l 529 597 b 347 694 495 654 438 694 b 45 336 182 694 45 555 b 326 5 45 141 162 5 b 506 93 403 5 467 37 l 509 93 l 509 50 b 336 -129 509 -76 434 -129 b 143 -77 257 -129 185 -102 l 102 -238 b 341 -290 162 -272 253 -290 b 611 -206 439 -290 539 -270 b 713 98 687 -138 713 -31 l 713 476 m 506 302 b 499 245 506 284 505 262 b 389 161 486 197 443 161 b 254 341 303 161 254 240 b 390 534 254 465 314 534 b 502 441 447 534 487 497 b 506 402 505 429 506 415 l 506 302 m 209 961 b 398 763 211 850 272 763 b 588 961 521 763 586 844 l 480 961 b 397 876 477 916 453 876 b 317 961 349 876 325 911 l 209 961 "},"ª":{"x_min":43.953125,"x_max":464.546875,"ha":525,"o":"m 464 369 b 457 477 460 395 457 436 l 457 626 b 257 820 457 729 406 820 b 76 776 175 820 112 797 l 103 686 b 230 722 135 706 180 722 b 314 669 303 722 314 681 l 314 659 b 43 498 150 659 43 605 b 189 362 43 422 99 362 b 325 415 248 361 293 383 l 328 415 l 337 369 l 464 369 m 318 529 b 312 498 318 520 317 509 b 244 456 302 475 272 456 b 184 511 210 456 184 479 b 318 577 184 559 245 579 l 318 529 "},"":{"x_min":31.3125,"x_max":613.859375,"ha":661,"o":"m 613 0 l 613 162 l 464 162 b 321 150 431 162 368 158 l 321 154 l 378 192 b 568 469 476 258 568 349 b 300 697 568 608 466 697 b 34 617 178 697 80 650 l 80 483 b 240 532 123 508 183 532 b 360 429 315 532 360 497 b 112 168 360 349 284 278 l 31 114 l 31 0 l 613 0 "},"ї":{"x_min":-53.078125,"x_max":424.671875,"ha":381,"o":"m 289 0 l 289 679 l 83 679 l 83 0 l 289 0 m 44 773 b 137 872 98 773 137 818 b 44 969 137 927 96 969 b -53 872 -9 969 -53 927 b 43 773 -53 818 -10 773 l 44 773 m 330 773 b 424 872 385 773 424 818 b 330 969 424 927 383 969 b 234 872 274 969 234 927 b 328 773 234 818 274 773 l 330 773 "},"ﬀ":{"x_min":19.0625,"x_max":903.78125,"ha":903,"o":"m 733 3 l 733 526 l 865 526 l 865 682 l 732 682 l 732 717 b 828 837 732 783 760 837 b 895 828 856 837 877 833 l 903 988 b 794 1002 875 995 839 1002 b 609 935 733 1002 662 984 b 526 708 551 879 526 790 l 526 682 l 313 682 l 313 703 b 393 825 313 772 332 825 b 446 815 412 825 430 821 l 475 969 b 386 986 454 977 420 986 b 183 911 292 986 227 957 b 107 692 127 854 107 773 l 107 682 l 19 682 l 19 526 l 107 526 l 107 3 l 314 3 l 314 526 l 526 526 l 526 3 l 733 3 "},"":{"x_min":42.1875,"x_max":720.03125,"ha":772,"o":"m 623 915 b 540 913 604 916 578 918 b 200 781 402 906 287 863 b 42 379 103 690 42 548 b 394 -15 42 163 157 -15 b 720 311 585 -15 720 131 b 446 605 720 498 594 605 b 258 534 364 605 302 579 l 254 534 b 543 750 277 638 359 736 b 623 752 575 752 600 754 l 623 915 m 390 140 b 247 322 296 140 251 226 b 257 376 247 347 250 363 b 378 455 276 420 322 455 b 510 300 466 455 510 383 b 392 140 510 208 464 140 l 390 140 "},"":{"x_min":65.640625,"x_max":344.671875,"ha":417,"o":"m 167 5 l 110 -123 b 218 -176 186 -131 218 -147 b 169 -209 218 -200 196 -209 b 92 -190 144 -209 113 -201 l 65 -276 b 182 -302 96 -294 140 -302 b 344 -175 260 -302 344 -270 b 245 -62 344 -109 297 -75 l 277 5 l 167 5 "},"T":{"x_min":20.421875,"x_max":725.46875,"ha":761,"o":"m 268 0 l 475 0 l 475 758 l 725 758 l 725 936 l 20 936 l 20 758 l 268 758 l 268 0 "},"š":{"x_min":44.71875,"x_max":546.953125,"ha":603,"o":"m 44 34 b 259 -13 95 6 172 -13 b 546 206 450 -13 546 79 b 367 415 545 305 493 370 b 259 493 285 443 259 461 b 338 547 259 526 288 547 b 482 509 394 547 453 525 l 518 654 b 331 694 477 675 409 694 b 61 470 167 694 61 598 b 251 268 59 391 112 315 b 348 190 327 243 348 225 b 259 134 348 155 322 134 b 81 184 198 134 119 161 l 44 34 m 368 763 l 504 975 l 368 975 l 300 854 l 297 854 l 228 975 l 93 975 l 228 763 l 368 763 "},"є":{"x_min":44.859375,"x_max":613.8125,"ha":656,"o":"m 612 658 b 438 694 575 677 504 694 b 44 333 220 694 44 566 b 413 -15 44 119 187 -15 b 613 23 500 -15 575 4 l 583 168 b 449 143 552 155 500 143 b 264 275 349 143 280 188 l 537 275 l 537 408 l 259 408 b 442 540 274 487 341 540 b 575 512 499 540 547 526 l 612 658 "},"Þ":{"x_min":89.828125,"x_max":747.25,"ha":806,"o":"m 89 0 l 294 0 l 294 182 b 387 176 313 180 344 176 b 747 495 583 176 747 265 b 658 698 747 577 714 650 b 406 774 597 751 515 774 b 294 768 349 774 319 771 l 294 936 l 89 936 l 89 0 m 294 605 b 383 612 310 609 340 612 b 543 479 484 612 543 565 b 379 340 543 398 491 340 b 294 348 345 340 314 342 l 294 605 "},"j":{"x_min":-53.078125,"x_max":322.578125,"ha":404,"o":"m -32 -298 b 223 -215 65 -298 161 -272 b 317 81 285 -156 317 -66 l 317 679 l 110 679 l 110 131 b 69 -88 110 -2 99 -56 b -53 -133 43 -116 0 -129 l -32 -298 m 212 762 b 322 868 280 762 322 809 b 213 973 321 927 280 973 b 103 868 147 973 103 927 b 210 762 103 809 145 762 l 212 762 "},"Σ":{"x_min":41.015625,"x_max":742,"ha":803,"o":"m 305 179 l 535 472 l 320 756 l 320 762 l 707 762 l 707 936 l 55 936 l 55 798 l 313 463 l 41 119 l 41 0 l 742 0 l 742 173 l 305 173 l 305 179 "},"1":{"x_min":115.6875,"x_max":521.3125,"ha":771,"o":"m 321 0 l 521 0 l 521 902 l 351 902 l 115 791 l 149 633 l 318 715 l 321 715 l 321 0 "},"ℓ":{"x_min":35.390625,"x_max":714.578125,"ha":771,"o":"m 345 679 b 411 850 345 808 375 850 b 465 752 443 850 465 817 b 345 490 465 670 421 575 l 345 679 m 620 267 b 453 158 583 218 526 158 b 345 285 389 158 345 199 l 345 303 b 619 754 525 460 619 590 b 405 989 619 897 536 989 b 149 650 257 989 149 885 l 149 343 b 35 260 112 315 72 286 l 88 149 b 153 192 110 164 132 177 b 155 183 155 190 155 188 b 402 -14 185 53 266 -14 b 714 174 519 -14 635 36 l 620 267 "},"ĉ":{"x_min":44.828125,"x_max":583.828125,"ha":626,"o":"m 557 173 b 439 151 526 159 488 151 b 257 341 338 151 257 216 b 435 530 255 451 326 530 b 551 509 489 530 526 520 l 583 666 b 425 693 540 683 480 693 b 44 333 178 693 44 530 b 397 -13 44 120 182 -13 b 582 18 476 -13 545 0 l 557 173 m 292 975 l 156 763 l 291 763 l 360 884 l 363 884 l 431 763 l 566 763 l 431 975 l 292 975 "},"ī":{"x_min":17.6875,"x_max":357.96875,"ha":381,"o":"m 289 0 l 289 679 l 83 679 l 83 0 l 289 0 m 17 925 l 17 808 l 357 808 l 357 925 l 17 925 "},"О":{"x_min":47.640625,"x_max":929.640625,"ha":996,"o":"m 480 -15 b 929 477 748 -15 929 169 b 494 951 929 736 775 951 b 47 461 224 951 47 741 b 479 -15 47 194 208 -15 l 480 -15 m 488 152 b 266 466 349 152 266 290 b 490 783 266 641 347 783 b 710 470 632 783 710 638 b 490 152 710 287 630 152 l 488 152 "},"ξ":{"x_min":46.203125,"x_max":634.203125,"ha":656,"o":"m 538 605 b 494 607 522 605 507 605 b 318 732 390 615 318 651 b 458 852 318 797 364 852 b 581 826 502 852 547 841 l 613 964 b 424 1001 567 986 510 1001 b 111 754 217 1001 111 883 b 253 557 111 666 160 593 l 253 548 b 46 277 133 515 46 411 b 438 -33 46 45 277 -8 b 405 -169 436 -66 420 -138 l 534 -211 b 634 83 586 -144 634 0 b 617 101 634 93 628 100 b 445 136 552 111 500 120 b 265 301 318 169 265 222 b 502 462 265 398 347 462 l 538 462 l 538 605 "},"Ď":{"x_min":90.0625,"x_max":901.28125,"ha":967,"o":"m 90 4 b 325 -9 140 -2 218 -9 b 750 111 505 -9 653 29 b 901 490 837 187 901 311 b 746 843 901 656 841 770 b 369 943 659 909 544 943 b 90 922 265 943 166 936 l 90 4 m 296 772 b 390 780 314 776 345 780 b 682 483 570 780 682 677 b 369 155 682 259 558 154 b 296 159 344 155 314 155 l 296 772 m 516 987 l 652 1158 l 507 1158 l 439 1072 l 437 1072 l 369 1158 l 223 1158 l 360 987 l 516 987 "},"&":{"x_min":41.796875,"x_max":914.265625,"ha":942,"o":"m 914 0 b 752 183 857 62 804 124 b 904 539 833 276 880 397 l 719 539 b 642 311 707 455 678 369 b 489 486 597 358 541 426 l 489 492 b 670 732 616 557 670 637 b 422 951 670 867 564 951 b 146 704 237 951 146 824 b 216 524 146 637 176 568 l 216 519 b 41 250 111 462 41 374 b 361 -14 41 118 139 -14 b 613 67 470 -14 553 19 b 673 0 635 42 654 21 l 914 0 m 390 137 b 236 285 294 137 236 204 b 309 414 236 346 271 386 b 516 185 384 328 459 242 b 391 137 489 158 444 137 l 390 137 m 414 819 b 495 726 469 819 495 771 b 394 589 495 672 461 636 b 331 724 352 635 331 676 b 413 819 331 774 360 819 l 414 819 "},"G":{"x_min":47.5,"x_max":856,"ha":947,"o":"m 856 536 l 514 536 l 514 370 l 655 370 l 655 173 b 555 161 639 166 601 161 b 265 468 385 161 265 273 b 570 770 265 670 397 770 b 782 730 670 770 732 754 l 826 901 b 571 945 781 922 689 945 b 47 456 270 945 48 768 b 176 115 47 319 93 197 b 549 -9 261 33 382 -9 b 856 43 670 -9 792 20 l 856 536 "},"ΰ":{"x_min":55.8125,"x_max":707.78125,"ha":775,"o":"m 464 679 b 504 406 479 640 504 525 b 383 155 504 270 472 155 b 279 291 326 155 279 201 l 279 547 b 257 679 279 623 273 661 l 55 679 b 72 452 69 633 72 554 l 72 277 b 366 -15 72 79 201 -15 b 707 419 626 -15 707 208 b 657 679 707 536 680 631 l 464 679 m 325 997 l 296 756 l 401 756 l 477 997 l 325 997 m 175 768 b 257 854 221 768 257 806 b 175 938 257 902 221 938 b 89 852 127 938 89 902 b 174 768 89 806 126 768 l 175 768 m 575 768 b 660 854 624 768 660 806 b 575 938 660 902 623 938 b 491 852 528 938 491 902 b 574 768 491 806 526 768 l 575 768 "},"`":{"x_min":5,"x_max":313,"ha":417,"o":"m 5 975 l 171 763 l 313 763 l 195 975 l 5 975 "},"ŏ":{"x_min":44.921875,"x_max":740.453125,"ha":801,"o":"m 390 -15 b 740 345 567 -15 740 98 b 401 694 740 551 604 694 b 44 334 186 694 44 554 b 389 -15 44 115 194 -15 l 390 -15 m 393 136 b 258 338 306 136 258 223 b 394 543 258 440 296 543 b 526 340 488 543 526 440 b 394 136 526 218 476 136 l 393 136 m 204 961 b 393 763 205 850 266 763 b 582 961 515 763 581 844 l 475 961 b 392 876 472 916 447 876 b 311 961 344 876 319 911 l 204 961 "},"ý":{"x_min":8,"x_max":708,"ha":726,"o":"m 8 679 l 253 56 b 261 22 259 40 261 30 b 250 -8 261 13 257 2 b 164 -93 231 -41 195 -76 b 74 -129 133 -111 100 -123 l 118 -306 b 318 -213 171 -301 247 -277 b 552 231 393 -145 457 -38 l 708 679 l 486 679 l 404 345 b 374 218 394 305 383 255 l 370 218 b 337 344 362 254 348 305 l 238 679 l 8 679 m 405 975 l 288 763 l 430 763 l 596 975 l 405 975 "},"":{"x_min":30,"x_max":332,"ha":375,"o":"m 193 454 l 30 190 l 172 190 l 332 454 l 172 719 l 30 719 l 193 454 "},"º":{"x_min":32.671875,"x_max":492.71875,"ha":536,"o":"m 264 820 b 32 587 127 820 32 727 b 259 362 32 450 133 362 b 492 595 379 362 492 437 b 265 820 492 725 404 820 l 264 820 m 261 718 b 345 593 317 718 345 651 b 262 465 345 518 315 465 b 178 588 209 465 178 522 b 259 718 178 645 200 718 l 261 718 "},"∞":{"x_min":36.75,"x_max":985.453125,"ha":1044,"o":"m 755 134 b 985 366 894 134 985 243 b 766 598 985 498 896 598 b 511 455 649 598 582 523 b 266 598 445 522 367 598 b 36 366 127 598 36 490 b 255 134 36 234 125 134 b 510 277 372 134 439 209 b 754 134 577 211 654 134 l 755 134 m 752 262 b 594 368 688 262 637 326 b 756 470 642 415 694 470 b 852 366 809 470 852 427 b 754 262 852 309 808 262 l 752 262 m 265 262 b 170 366 212 262 170 305 b 269 470 170 423 213 470 b 427 365 333 470 385 406 b 266 262 379 318 328 262 l 265 262 "},"":{"x_min":28.578125,"x_max":484.5625,"ha":525,"o":"m 255 -6 b 484 270 419 -6 484 126 b 255 548 484 425 412 548 b 28 270 98 548 28 422 b 254 -6 28 116 99 -6 l 255 -6 m 255 101 b 179 270 209 101 179 155 b 255 440 179 384 209 440 b 333 270 302 440 333 387 b 257 101 333 155 303 101 l 255 101 "},"ź":{"x_min":29.828125,"x_max":608.296875,"ha":651,"o":"m 29 0 l 608 0 l 608 168 l 288 168 l 288 170 b 397 294 326 208 360 251 l 597 551 l 597 679 l 52 679 l 52 511 l 345 511 l 345 508 b 239 388 307 468 277 433 l 29 122 l 29 0 m 353 975 l 236 763 l 378 763 l 544 975 l 353 975 "},"я":{"x_min":10.890625,"x_max":671.03125,"ha":768,"o":"m 671 675 b 416 690 611 681 519 690 b 171 648 325 690 231 679 b 58 484 106 618 58 569 b 230 316 58 377 155 326 l 230 312 b 145 262 194 305 167 286 b 53 76 103 218 74 129 b 10 0 40 47 27 20 l 231 0 b 257 55 242 22 249 36 b 329 206 276 108 294 172 b 424 255 349 234 381 255 l 466 255 l 466 0 l 671 0 l 671 675 m 466 386 b 398 383 449 384 431 383 b 272 472 337 383 272 412 b 396 559 272 533 329 559 b 466 554 428 559 449 556 l 466 386 "},"Ё":{"x_min":91.1875,"x_max":675.109375,"ha":742,"o":"m 635 568 l 298 568 l 298 762 l 656 762 l 656 936 l 91 936 l 91 0 l 675 0 l 675 173 l 298 173 l 298 395 l 635 395 l 635 568 m 230 990 b 319 1084 281 990 319 1033 b 230 1180 319 1140 280 1180 b 136 1084 176 1180 136 1138 b 228 990 136 1033 176 990 l 230 990 m 511 990 b 602 1084 564 990 602 1033 b 511 1180 602 1140 563 1180 b 419 1084 458 1180 419 1138 b 510 990 419 1033 457 990 l 511 990 "},"ń":{"x_min":77.578125,"x_max":714.578125,"ha":814,"o":"m 83 0 l 289 0 l 289 391 b 296 444 289 411 291 430 b 402 523 311 483 345 523 b 507 376 477 523 507 463 l 507 0 l 714 0 l 714 401 b 476 694 714 601 612 694 b 270 584 364 694 298 629 l 266 584 l 257 679 l 77 679 b 83 462 80 618 83 547 l 83 0 m 416 975 l 299 763 l 441 763 l 607 975 l 416 975 "},"Г":{"x_min":91.1875,"x_max":645.171875,"ha":679,"o":"m 91 936 l 91 0 l 298 0 l 298 762 l 645 762 l 645 936 l 91 936 "},"Ь":{"x_min":91.1875,"x_max":773.109375,"ha":838,"o":"m 91 934 l 91 2 b 315 -11 137 -4 212 -11 b 699 108 457 -11 611 16 b 773 312 744 155 773 222 b 408 616 773 520 605 616 b 296 608 370 616 325 612 l 296 934 l 91 934 m 296 448 b 375 454 321 451 345 454 b 555 302 475 454 555 409 b 372 147 555 197 473 147 b 296 152 343 147 319 148 l 296 448 "},"¤":{"x_min":24.171875,"x_max":730.90625,"ha":771,"o":"m 376 763 b 220 712 315 763 261 745 l 115 830 l 24 734 l 142 627 b 94 462 119 591 94 540 b 143 297 94 386 119 331 l 30 187 l 119 94 l 217 213 b 375 161 257 179 319 161 b 534 216 429 161 492 180 l 634 94 l 724 187 l 608 300 b 656 466 632 334 656 388 b 612 627 656 541 632 591 l 730 736 l 639 830 l 536 713 b 378 763 495 745 440 763 l 376 763 m 375 622 b 500 465 449 622 500 555 b 375 302 500 352 436 302 b 250 463 318 302 250 354 b 374 622 250 559 304 622 l 375 622 "},"Ĝ":{"x_min":47.5625,"x_max":856,"ha":947,"o":"m 856 536 l 514 536 l 514 370 l 655 370 l 655 173 b 555 161 639 166 601 161 b 265 468 385 161 265 273 b 570 770 265 670 397 770 b 782 730 670 770 732 754 l 826 901 b 571 945 781 922 689 945 b 47 456 270 945 48 768 b 176 115 47 319 93 197 b 549 -9 261 33 382 -9 b 856 43 670 -9 792 20 l 856 536 m 431 1162 l 295 991 l 439 991 l 507 1077 l 510 1077 l 578 991 l 724 991 l 586 1162 l 431 1162 "},"p":{"x_min":77.578125,"x_max":767.671875,"ha":831,"o":"m 83 -275 l 289 -275 l 289 62 l 292 62 b 465 -15 322 18 385 -15 b 767 348 613 -15 767 101 b 491 694 767 565 637 694 b 269 584 394 694 318 655 l 266 584 l 257 679 l 77 679 b 83 451 80 615 83 540 l 83 -275 m 289 384 b 294 422 289 397 291 411 b 417 529 307 484 359 529 b 558 338 510 529 558 447 b 415 147 558 223 504 147 b 294 247 355 147 307 190 b 289 291 291 261 289 275 l 289 384 "},"Ю":{"x_min":89.828125,"x_max":1208.671875,"ha":1279,"o":"m 89 936 l 89 0 l 296 0 l 296 393 l 401 393 b 794 -15 424 155 567 -15 b 1208 477 1039 -15 1208 169 b 808 951 1208 736 1067 951 b 406 570 593 951 443 795 l 296 570 l 296 936 l 89 936 m 801 151 b 604 466 676 151 604 290 b 803 784 604 641 675 784 b 999 470 931 784 999 638 b 803 151 999 288 929 151 l 801 151 "},"":{"x_min":27.21875,"x_max":504.96875,"ha":546,"o":"m 435 0 l 435 125 l 504 125 l 504 227 l 435 227 l 435 545 l 253 545 l 27 212 l 27 125 l 288 125 l 288 0 l 435 0 m 288 227 l 172 227 l 170 229 l 242 340 b 291 433 258 366 273 398 l 294 433 b 288 329 292 398 288 365 l 288 227 "},"ο":{"x_min":44.921875,"x_max":740.453125,"ha":801,"o":"m 390 -15 b 740 345 567 -15 740 98 b 401 694 740 551 604 694 b 44 334 186 694 44 554 b 389 -15 44 115 194 -15 l 390 -15 m 393 136 b 258 338 306 136 258 223 b 394 543 258 440 296 543 b 526 340 488 543 526 440 b 394 136 526 218 476 136 l 393 136 "},"S":{"x_min":54.171875,"x_max":683,"ha":750,"o":"m 54 44 b 314 -13 105 15 209 -13 b 683 276 565 -13 683 119 b 446 555 683 408 608 494 b 276 687 326 601 276 627 b 409 777 276 734 319 777 b 599 733 497 777 564 751 l 646 902 b 412 950 591 929 516 950 b 65 669 197 950 65 829 b 318 391 65 533 165 447 b 472 261 428 352 472 319 b 326 159 472 200 421 159 b 96 218 237 159 150 188 l 54 44 "},"/":{"x_min":22.25,"x_max":451,"ha":460,"o":"m 159 -55 l 451 951 l 313 951 l 22 -55 l 159 -55 "},"":{"x_min":-93.953125,"x_max":502.21875,"ha":418,"o":"m -4 779 b 82 870 46 779 82 819 b -2 962 82 923 46 962 b -93 870 -54 962 -93 923 b -5 779 -93 820 -55 779 l -4 779 m 413 779 b 502 870 464 779 502 819 b 415 962 502 923 465 962 b 325 870 363 962 325 923 b 412 779 325 820 362 779 l 413 779 m 66 986 l 195 775 l 321 775 l 243 986 l 66 986 "},"Ŧ":{"x_min":20.421875,"x_max":725.46875,"ha":761,"o":"m 725 758 l 725 936 l 20 936 l 20 758 l 268 758 l 268 527 l 110 527 l 110 402 l 268 402 l 268 0 l 475 0 l 475 402 l 631 402 l 631 527 l 475 527 l 475 758 l 725 758 "},"":{"x_min":79.984375,"x_max":669.34375,"ha":779,"o":"m 669 679 l 79 679 l 79 507 l 457 507 l 457 504 b 101 -147 382 315 218 28 l 300 -172 b 669 551 437 43 590 344 l 669 679 "},"ђ":{"x_min":2.71875,"x_max":748.609375,"ha":814,"o":"m 2 893 l 2 754 l 100 754 l 100 1 l 307 1 l 307 404 b 323 461 307 430 311 445 b 416 506 343 484 377 506 b 507 445 455 506 487 481 b 541 262 532 395 541 326 b 479 15 541 151 514 55 b 381 -37 446 -19 415 -30 l 419 -205 b 578 -145 464 -202 522 -181 b 748 279 688 -76 748 73 b 684 554 748 390 729 480 b 485 677 642 629 574 677 b 310 602 412 677 351 644 l 307 602 l 307 754 l 596 754 l 596 893 l 307 893 l 307 986 l 100 986 l 100 893 l 2 893 "},"y":{"x_min":8,"x_max":708,"ha":726,"o":"m 8 679 l 253 56 b 261 22 259 40 261 30 b 250 -8 261 13 257 2 b 164 -93 231 -41 195 -76 b 74 -129 133 -111 100 -123 l 118 -306 b 318 -213 171 -301 247 -277 b 552 231 393 -145 457 -38 l 708 679 l 486 679 l 404 345 b 374 218 394 305 383 255 l 370 218 b 337 344 362 254 348 305 l 238 679 l 8 679 "},"Π":{"x_min":91.1875,"x_max":816.671875,"ha":926,"o":"m 816 936 l 91 936 l 91 0 l 298 0 l 298 758 l 609 758 l 609 0 l 816 0 l 816 936 "},"":{"x_min":41.90625,"x_max":437.984375,"ha":490,"o":"m 281 -275 l 281 -191 b 437 -34 382 -173 437 -109 b 292 122 437 43 397 88 b 188 186 207 148 188 161 b 255 226 188 205 202 226 b 384 195 319 226 364 205 l 412 301 b 284 329 384 313 335 327 l 284 398 l 195 398 l 195 323 b 47 169 100 305 47 245 b 205 16 47 84 108 48 b 295 -45 276 -6 295 -19 b 218 -90 295 -75 269 -90 b 69 -51 160 -90 109 -73 l 41 -161 b 192 -198 75 -179 133 -195 l 192 -275 l 281 -275 "},"–":{"x_min":40.828125,"x_max":639.71875,"ha":694,"o":"m 40 418 l 40 287 l 639 287 l 639 418 l 40 418 "},"ë":{"x_min":44.640625,"x_max":676.984375,"ha":733,"o":"m 670 272 b 676 355 672 287 676 319 b 380 694 676 523 595 694 b 44 331 150 694 44 504 b 399 -13 44 119 173 -13 b 640 29 489 -13 572 0 l 613 172 b 429 143 557 152 500 143 b 242 272 333 143 248 184 l 670 272 m 240 416 b 369 554 246 472 281 554 b 485 416 463 554 485 468 l 240 416 m 240 773 b 333 872 293 773 333 818 b 240 969 333 927 292 969 b 142 872 186 969 142 927 b 239 773 142 818 184 773 l 240 773 m 526 773 b 619 872 580 773 619 818 b 526 969 619 927 579 969 b 429 872 470 969 429 927 b 523 773 429 818 470 773 l 526 773 "},"б":{"x_min":50.015625,"x_max":740.109375,"ha":801,"o":"m 669 1000 b 470 970 621 987 533 977 b 192 845 349 956 258 916 b 50 431 94 751 50 608 b 398 -16 50 173 165 -16 b 740 340 595 -16 740 120 b 444 679 740 544 624 679 b 225 551 346 679 266 625 l 218 551 b 290 719 224 604 251 676 b 500 808 335 772 403 798 b 657 833 549 812 618 822 l 669 1000 m 527 333 b 395 134 527 237 492 134 b 260 343 297 134 260 254 b 296 477 260 401 273 443 b 393 533 316 509 349 533 b 527 334 495 533 527 425 l 527 333 "},"ƒ":{"x_min":37,"x_max":692,"ha":771,"o":"m 155 425 l 263 425 l 241 230 b 131 31 221 72 197 33 b 67 44 107 33 86 36 l 37 -102 b 161 -126 58 -113 105 -125 b 430 176 354 -126 410 6 l 461 425 l 617 425 l 617 570 l 478 570 l 486 631 b 595 758 494 708 527 758 b 659 745 621 758 643 752 l 692 895 b 579 918 668 908 625 918 b 285 616 345 918 296 709 l 279 570 l 155 570 l 155 425 "},"⁽":{"x_min":55.8125,"x_max":253.171875,"ha":283,"o":"m 149 1205 b 55 873 110 1145 55 1033 b 149 543 55 715 108 604 l 253 543 b 172 873 213 618 172 726 b 253 1205 172 1018 215 1134 l 149 1205 "},"у":{"x_min":8,"x_max":708,"ha":726,"o":"m 8 679 l 253 56 b 261 22 259 40 261 30 b 250 -8 261 13 257 2 b 164 -93 231 -41 195 -76 b 74 -129 133 -111 100 -123 l 118 -306 b 318 -213 171 -301 247 -277 b 552 231 393 -145 457 -38 l 708 679 l 486 679 l 404 345 b 374 218 394 305 383 255 l 370 218 b 337 344 362 254 348 305 l 238 679 l 8 679 "},"J":{"x_min":-1.359375,"x_max":476.390625,"ha":571,"o":"m 269 345 b 127 161 269 201 215 161 b 21 177 87 161 50 168 l -1 6 b 151 -15 39 -6 102 -15 b 476 344 351 -15 476 77 l 476 936 l 269 936 l 269 345 "},"ŷ":{"x_min":8,"x_max":708,"ha":726,"o":"m 8 679 l 253 56 b 261 22 259 40 261 30 b 250 -8 261 13 257 2 b 164 -93 231 -41 195 -76 b 74 -129 133 -111 100 -123 l 118 -306 b 318 -213 171 -301 247 -277 b 552 231 393 -145 457 -38 l 708 679 l 486 679 l 404 345 b 374 218 394 305 383 255 l 370 218 b 337 344 362 254 348 305 l 238 679 l 8 679 m 296 975 l 160 763 l 295 763 l 364 884 l 367 884 l 435 763 l 570 763 l 435 975 l 296 975 "},"ŕ":{"x_min":77.59375,"x_max":491.375,"ha":528,"o":"m 83 0 l 289 0 l 289 343 b 294 390 289 361 291 376 b 435 497 307 456 359 497 b 491 491 458 497 475 494 l 491 690 b 447 694 476 693 466 694 b 268 552 382 694 302 652 l 262 552 l 254 679 l 77 679 b 83 455 81 620 83 555 l 83 0 m 288 975 l 171 763 l 313 763 l 479 975 l 288 975 "},"ώ":{"x_min":45.421875,"x_max":953.28125,"ha":1018,"o":"m 490 972 l 427 761 l 562 761 l 672 972 l 490 972 m 593 519 l 400 519 l 403 270 b 339 161 404 208 380 161 b 245 359 293 161 245 222 b 342 677 245 484 284 602 l 342 681 l 155 681 b 45 345 102 619 45 502 b 312 -15 45 104 176 -15 b 491 91 395 -15 456 30 l 497 91 b 675 -15 527 25 598 -15 b 953 362 828 -15 953 119 b 845 681 953 512 896 633 l 657 681 l 657 677 b 751 372 719 606 751 484 b 656 161 751 233 709 161 b 589 270 614 161 589 209 l 593 519 "},"˘":{"x_min":14.96875,"x_max":393.359375,"ha":417,"o":"m 14 961 b 204 763 16 850 77 763 b 393 961 326 763 392 844 l 285 961 b 202 876 283 916 258 876 b 122 961 155 876 130 911 l 14 961 "},"D":{"x_min":89.828125,"x_max":901.0625,"ha":967,"o":"m 89 4 b 325 -9 140 -2 217 -9 b 749 111 504 -9 653 29 b 901 490 837 187 901 311 b 745 843 901 656 841 770 b 368 943 658 909 544 943 b 89 922 265 943 166 936 l 89 4 m 296 772 b 390 780 314 776 345 780 b 681 483 570 780 681 677 b 368 155 681 259 558 154 b 296 159 344 155 314 155 l 296 772 "},"":{"x_min":12.25,"x_max":441,"ha":482,"o":"m 62 772 b 186 806 89 787 138 806 b 258 756 236 806 258 786 b 153 700 258 713 198 700 l 115 700 l 115 605 l 156 605 b 273 536 216 605 273 583 b 176 473 273 500 232 473 b 43 509 127 473 70 494 l 12 401 b 196 362 51 379 122 362 b 441 527 345 362 441 430 b 308 654 441 598 383 647 l 308 656 b 420 780 374 677 420 720 b 224 918 420 856 355 918 b 34 873 145 918 73 897 l 62 772 "},"":{"x_min":18.703125,"x_max":716.953125,"ha":814,"o":"m 314 0 l 314 523 l 510 523 l 510 131 b 469 -88 510 -2 499 -56 b 346 -133 443 -116 399 -129 l 365 -298 b 623 -215 465 -298 561 -272 b 716 81 685 -156 716 -66 l 716 679 l 312 679 l 312 702 b 459 834 312 777 350 834 b 610 800 525 834 578 818 l 650 959 b 454 1001 609 984 525 1001 b 107 708 248 1001 107 895 l 107 679 l 18 679 l 18 523 l 107 523 l 107 0 l 314 0 "},"ł":{"x_min":2.71875,"x_max":394.71875,"ha":399,"o":"m 298 0 l 298 476 l 394 554 l 394 705 l 298 627 l 298 987 l 91 987 l 91 470 l 2 398 l 2 247 l 91 319 l 91 0 l 298 0 "},"ĺ":{"x_min":81.671875,"x_max":413.78125,"ha":382,"o":"m 83 0 l 289 0 l 289 987 l 83 987 l 83 0 m 196 1198 l 81 1027 l 247 1027 l 413 1198 l 196 1198 "},"ц":{"x_min":81.671875,"x_max":775.828125,"ha":818,"o":"m 81 679 l 81 0 l 604 0 l 611 -219 l 767 -219 l 775 145 l 702 148 l 702 679 l 495 679 l 495 161 l 288 161 l 288 679 l 81 679 "},"Л":{"x_min":-5.4375,"x_max":786.71875,"ha":896,"o":"m 168 936 l 168 526 b 99 205 168 384 155 263 b -5 155 76 180 39 161 l 20 -15 b 202 30 93 -15 156 4 b 371 540 341 113 371 300 l 371 762 l 579 762 l 579 0 l 786 0 l 786 936 l 168 936 "},"$":{"x_min":74.984375,"x_max":682.046875,"ha":771,"o":"m 439 -120 l 439 22 b 682 277 597 50 682 154 b 454 538 682 404 618 480 b 291 656 339 581 291 612 b 408 736 291 695 319 736 b 604 687 506 736 570 704 l 645 844 b 446 890 599 866 537 887 l 446 1012 l 313 1012 l 313 880 b 83 633 167 852 83 756 b 328 379 83 498 182 429 b 473 258 428 344 473 311 b 341 172 473 204 419 172 b 115 233 253 172 173 201 l 74 70 b 306 12 126 41 215 15 l 306 -120 l 439 -120 "},"w":{"x_min":15,"x_max":1020,"ha":1054,"o":"m 15 679 l 209 0 l 404 0 l 471 238 b 513 450 487 301 501 365 l 516 450 b 559 237 529 365 542 304 l 622 0 l 815 0 l 1020 679 l 817 679 l 761 409 b 721 177 744 331 731 254 l 719 177 b 670 408 706 255 689 330 l 603 679 l 439 679 l 369 398 b 321 177 354 331 333 254 l 317 177 b 280 400 306 255 292 330 l 226 679 l 15 679 "},"о":{"x_min":44.921875,"x_max":740.453125,"ha":801,"o":"m 390 -15 b 740 345 567 -15 740 98 b 401 694 740 551 604 694 b 44 334 186 694 44 554 b 389 -15 44 115 194 -15 l 390 -15 m 393 136 b 258 338 306 136 258 223 b 394 543 258 440 296 543 b 526 340 488 543 526 440 b 394 136 526 218 476 136 l 393 136 "},"Д":{"x_min":17.953125,"x_max":908.125,"ha":956,"o":"m 218 936 l 218 686 b 182 375 218 572 207 469 b 95 166 162 301 132 231 l 17 161 l 26 -236 l 184 -236 l 194 0 l 732 0 l 743 -236 l 898 -236 l 908 161 l 818 166 l 818 936 l 218 936 m 409 763 l 611 763 l 611 170 l 306 170 b 369 330 329 216 352 273 b 409 640 396 425 409 530 l 409 763 "},"Ç":{"x_min":47.640625,"x_max":773.125,"ha":829,"o":"m 732 191 b 558 161 690 173 622 161 b 265 466 374 161 265 279 b 558 776 265 675 393 776 b 730 741 631 776 690 759 l 773 909 b 548 950 737 927 656 950 b 47 454 270 950 47 773 b 439 -8 47 211 181 26 l 386 -123 b 494 -175 462 -131 494 -147 b 445 -209 494 -200 472 -209 b 368 -190 420 -209 389 -201 l 341 -276 b 458 -302 372 -294 416 -302 b 620 -175 536 -302 620 -270 b 521 -61 620 -109 573 -73 l 547 -13 b 762 25 649 -12 726 8 l 732 191 "},"Ŝ":{"x_min":54.125,"x_max":683,"ha":750,"o":"m 54 44 b 314 -13 105 15 209 -13 b 683 276 565 -13 683 119 b 446 555 683 408 608 494 b 275 687 326 601 275 627 b 409 777 275 734 319 777 b 599 733 497 777 564 751 l 646 902 b 412 950 591 929 516 950 b 65 669 197 950 65 829 b 318 391 65 533 165 447 b 472 261 428 352 472 319 b 326 159 472 200 421 159 b 96 218 237 159 150 188 l 54 44 m 292 1158 l 156 987 l 300 987 l 368 1073 l 371 1073 l 439 987 l 584 987 l 447 1158 l 292 1158 "},"C":{"x_min":47.640625,"x_max":774.46875,"ha":826,"o":"m 732 193 b 558 162 690 175 622 162 b 265 466 374 162 265 280 b 556 776 265 675 393 776 b 730 741 631 776 690 759 l 774 909 b 548 950 737 927 656 950 b 47 455 270 950 47 773 b 528 -13 47 188 210 -13 b 762 26 638 -13 725 8 l 732 193 "},"":{"x_min":29.9375,"x_max":464.140625,"ha":504,"o":"m 400 545 b 347 545 389 547 367 547 b 123 466 249 543 179 516 b 29 231 63 411 29 327 b 255 -6 29 111 98 -6 b 464 191 363 -6 464 68 b 292 365 464 300 393 365 b 176 327 246 365 204 348 l 175 327 b 349 437 194 390 250 431 b 401 436 367 438 387 437 l 400 545 m 253 101 b 170 193 198 101 170 148 b 174 220 170 205 171 213 b 243 268 185 245 210 268 b 319 183 298 268 319 227 b 254 101 319 137 292 101 l 253 101 "},"Ĵ":{"x_min":-1.359375,"x_max":586.640625,"ha":571,"o":"m 269 345 b 127 161 269 201 215 161 b 21 177 87 161 50 168 l -1 6 b 151 -15 39 -6 102 -15 b 476 344 351 -15 476 77 l 476 936 l 269 936 l 269 345 m 294 1156 l 157 986 l 302 986 l 370 1072 l 372 1072 l 441 986 l 586 986 l 449 1156 l 294 1156 "},"":{"x_min":94.96875,"x_max":653.015625,"ha":779,"o":"m 94 -147 b 281 -175 133 -161 206 -175 b 653 122 522 -175 653 -44 b 589 287 653 191 629 245 b 304 376 525 350 421 375 l 329 508 l 616 508 l 639 679 l 195 679 l 122 231 b 412 180 297 236 374 218 b 440 108 431 161 440 136 b 262 -18 440 26 359 -18 b 118 0 206 -18 148 -9 l 94 -147 "},"È":{"x_min":91.03125,"x_max":674.953125,"ha":742,"o":"m 635 568 l 297 568 l 297 762 l 655 762 l 655 936 l 91 936 l 91 0 l 674 0 l 674 173 l 297 173 l 297 395 l 635 395 l 635 568 m 150 1158 l 316 988 l 483 988 l 368 1158 l 150 1158 "},"ﬁ":{"x_min":18.703125,"x_max":716.953125,"ha":817,"o":"m 314 0 l 314 523 l 510 523 l 510 0 l 716 0 l 716 679 l 312 679 l 312 702 b 459 834 312 777 350 834 b 610 800 525 834 578 818 l 650 959 b 454 1001 609 984 525 1001 b 107 708 248 1001 107 895 l 107 679 l 18 679 l 18 523 l 107 523 l 107 0 l 314 0 "},"X":{"x_min":22,"x_max":813,"ha":851,"o":"m 813 0 l 540 479 l 799 936 l 562 936 l 484 765 b 422 609 461 711 444 669 l 419 609 b 350 765 397 662 377 708 l 269 936 l 31 936 l 287 473 l 22 0 l 258 0 l 333 169 b 405 337 363 234 386 283 l 408 337 b 490 169 434 283 456 234 l 573 0 l 813 0 "},"ô":{"x_min":45.203125,"x_max":740.796875,"ha":801,"o":"m 390 -15 b 740 345 567 -15 740 98 b 401 694 740 551 604 694 b 45 334 186 694 45 554 b 389 -15 45 115 194 -15 l 390 -15 m 393 136 b 258 338 306 136 258 223 b 395 543 258 440 297 543 b 527 340 488 543 527 440 b 395 136 527 218 476 136 l 393 136 m 325 975 l 189 763 l 324 763 l 393 884 l 396 884 l 464 763 l 599 763 l 464 975 l 325 975 "},"":{"x_min":68.0625,"x_max":989.53125,"ha":1069,"o":"m 601 476 b 485 331 590 395 537 331 b 419 416 442 331 419 363 b 579 613 419 523 490 613 b 622 608 596 613 611 611 l 601 476 m 718 113 b 519 70 664 86 589 70 b 172 434 317 70 172 201 b 563 866 172 701 353 866 b 888 545 774 866 888 727 b 756 311 888 386 815 308 b 721 431 718 312 709 351 l 762 690 b 601 723 729 708 661 723 b 281 401 405 723 281 570 b 434 218 281 286 347 218 b 611 326 507 218 567 255 l 613 326 b 730 218 620 252 666 218 b 989 550 877 218 989 347 b 577 951 989 783 818 951 b 68 422 270 951 68 705 b 492 -15 68 150 266 -15 b 741 34 589 -15 660 -2 l 718 113 "},"Ė":{"x_min":91.1875,"x_max":675.109375,"ha":742,"o":"m 635 568 l 298 568 l 298 762 l 656 762 l 656 936 l 91 936 l 91 0 l 675 0 l 675 173 l 298 173 l 298 395 l 635 395 l 635 568 m 367 990 b 458 1084 419 990 458 1034 b 367 1180 458 1138 419 1180 b 272 1084 314 1180 272 1138 b 366 990 272 1034 313 990 l 367 990 "},"г":{"x_min":81.671875,"x_max":545.8125,"ha":578,"o":"m 81 679 l 81 0 l 288 0 l 288 515 l 545 515 l 545 679 l 81 679 "},"":{"x_min":14.96875,"x_max":641.078125,"ha":703,"o":"m 605 902 l 118 902 l 61 429 b 179 437 96 434 130 437 b 428 287 356 437 428 380 b 251 150 428 191 337 150 b 53 194 171 150 91 175 l 14 36 b 261 -15 63 9 153 -15 b 641 301 499 -15 641 133 b 533 527 641 406 600 481 b 300 593 472 573 385 593 b 243 590 279 593 262 591 l 262 729 l 605 729 l 605 902 "},"Ŀ":{"x_min":91.1875,"x_max":662.859375,"ha":710,"o":"m 91 0 l 662 0 l 662 177 l 298 177 l 298 936 l 91 936 l 91 0 m 524 430 b 615 525 575 430 615 475 b 524 620 615 579 575 620 b 428 525 470 620 428 579 b 522 430 428 475 469 430 l 524 430 "},"х":{"x_min":4,"x_max":701,"ha":721,"o":"m 9 679 l 229 347 l 4 0 l 231 0 l 293 122 b 344 226 310 155 328 188 l 348 226 b 400 122 363 190 381 155 l 466 0 l 701 0 l 479 355 l 698 679 l 473 679 l 415 569 b 363 463 397 534 381 501 l 360 463 b 306 565 342 497 325 530 l 240 679 l 9 679 "},"ŋ":{"x_min":77.578125,"x_max":714.578125,"ha":814,"o":"m 83 0 l 289 0 l 289 391 b 296 444 289 411 291 430 b 402 523 311 483 345 523 b 507 376 477 523 507 463 l 507 48 b 392 -106 507 -48 472 -91 l 432 -270 b 714 81 589 -252 714 -163 l 714 401 b 476 694 714 601 612 694 b 270 584 364 694 298 629 l 266 584 l 257 679 l 77 679 b 83 462 80 618 83 547 l 83 0 "},"Ч":{"x_min":81.671875,"x_max":784,"ha":892,"o":"m 81 936 l 81 622 b 367 331 81 422 201 331 b 573 379 443 331 506 347 l 577 379 l 577 -12 l 784 -12 l 784 936 l 577 936 l 577 536 b 442 500 537 515 490 500 b 288 659 345 500 288 551 l 288 936 l 81 936 "},"":{"x_min":31.96875,"x_max":590.015625,"ha":647,"o":"m 31 -147 b 218 -175 70 -161 143 -175 b 590 122 459 -175 590 -44 b 526 287 590 191 566 245 b 241 376 462 350 358 375 l 266 508 l 553 508 l 576 679 l 132 679 l 59 231 b 349 180 234 236 311 218 b 377 108 368 161 377 136 b 199 -18 377 26 296 -18 b 55 0 143 -18 85 -9 l 31 -147 "},"":{"x_min":29.9375,"x_max":204.171875,"ha":239,"o":"m 117 -211 b 204 -122 168 -211 204 -173 b 117 -33 204 -69 168 -33 b 29 -122 65 -33 29 -69 b 115 -211 29 -173 65 -211 l 117 -211 "},"":{"x_min":-10.421875,"x_max":206,"ha":239,"o":"m 90 530 b 206 786 137 608 176 693 l 54 779 b -10 522 41 693 19 608 l 90 530 "},"ü":{"x_min":80.3125,"x_max":715.953125,"ha":810,"o":"m 710 679 l 503 679 l 503 275 b 495 229 503 256 500 241 b 392 155 483 195 449 155 b 287 313 318 155 287 215 l 287 679 l 80 679 l 80 280 b 314 -15 80 70 178 -15 b 522 95 434 -15 496 54 l 526 95 l 536 0 l 715 0 b 710 218 713 56 710 129 l 710 679 m 259 773 b 352 872 313 773 352 818 b 259 969 352 927 311 969 b 161 872 205 969 161 927 b 258 773 161 818 204 773 l 259 773 m 545 773 b 639 872 600 773 639 818 b 545 969 639 927 598 969 b 449 872 490 969 449 927 b 543 773 449 818 490 773 l 545 773 "},"ь":{"x_min":81.671875,"x_max":711.859375,"ha":769,"o":"m 81 679 l 81 4 b 303 -8 151 -4 227 -8 b 620 66 404 -8 536 6 b 711 250 675 105 711 163 b 393 486 711 430 548 486 b 288 477 356 486 317 481 l 288 679 l 81 679 m 287 337 b 353 343 306 340 326 343 b 506 240 417 343 506 323 b 356 134 506 158 424 134 b 287 138 325 134 304 136 l 287 337 "},"":{"x_min":24.5,"x_max":255.890625,"ha":286,"o":"m 24 306 l 24 208 l 255 208 l 255 306 l 24 306 "},"":{"x_min":29.9375,"x_max":464.140625,"ha":504,"o":"m 400 915 b 347 915 389 916 367 916 b 123 836 249 912 179 886 b 29 601 63 780 29 697 b 255 362 29 480 98 362 b 464 561 363 362 464 437 b 292 734 464 669 393 734 b 176 697 246 734 204 718 l 175 697 b 349 806 194 759 250 801 b 401 805 367 808 387 806 l 400 915 m 253 470 b 170 562 198 470 170 518 b 174 590 170 575 171 583 b 243 637 185 615 210 637 b 319 552 298 637 319 597 b 254 470 319 506 292 470 l 253 470 "},"Ÿ":{"x_min":12.25,"x_max":811.21875,"ha":838,"o":"m 509 0 l 509 390 l 811 936 l 578 936 l 485 711 b 416 531 458 644 436 590 l 413 531 b 343 711 392 593 371 643 l 250 936 l 12 936 l 302 383 l 302 0 l 509 0 m 283 987 b 372 1081 334 987 372 1030 b 283 1177 372 1137 333 1177 b 189 1081 230 1177 189 1136 b 281 987 189 1030 230 987 l 283 987 m 564 987 b 656 1081 617 987 656 1030 b 564 1177 656 1137 616 1177 b 472 1081 511 1177 472 1136 b 563 987 472 1030 510 987 l 564 987 "},"€":{"x_min":6.8125,"x_max":715.953125,"ha":771,"o":"m 683 191 b 528 155 654 176 590 155 b 352 226 460 155 396 176 b 307 323 332 250 317 281 l 649 323 l 649 422 l 288 422 b 288 444 288 429 288 436 b 289 487 288 459 288 473 l 649 487 l 649 586 l 310 586 b 353 676 319 622 334 654 b 521 751 396 727 455 751 b 672 718 581 751 637 733 l 710 876 b 506 918 661 898 589 918 b 191 775 378 918 269 865 b 98 586 148 725 115 661 l 6 586 l 6 487 l 83 487 b 81 445 83 473 81 459 b 81 422 81 437 81 429 l 8 422 l 8 323 l 95 323 b 171 143 108 250 134 190 b 503 -15 247 40 370 -15 b 715 37 590 -15 669 11 l 683 191 "},"в":{"x_min":81.671875,"x_max":707.78125,"ha":767,"o":"m 81 2 b 314 -9 123 -2 221 -9 b 707 200 450 -9 707 6 b 543 365 707 293 642 348 l 543 369 b 679 515 609 381 679 427 b 349 688 679 675 462 688 b 81 670 246 688 132 679 l 81 2 m 285 554 b 355 558 308 555 328 558 b 475 487 438 558 475 531 b 338 413 475 436 421 413 l 285 413 l 285 554 m 284 291 l 343 291 b 495 205 441 291 495 265 b 353 118 495 138 424 118 b 284 120 322 118 306 118 l 284 291 "},"Η":{"x_min":91.1875,"x_max":846.609375,"ha":957,"o":"m 91 936 l 91 0 l 298 0 l 298 390 l 639 390 l 639 0 l 846 0 l 846 936 l 639 936 l 639 575 l 298 575 l 298 936 l 91 936 "},"С":{"x_min":47.640625,"x_max":774.46875,"ha":826,"o":"m 732 193 b 558 162 690 175 622 162 b 265 466 374 162 265 280 b 556 776 265 675 393 776 b 730 741 631 776 690 759 l 774 909 b 548 950 737 927 656 950 b 47 455 270 950 47 773 b 528 -13 47 188 210 -13 b 762 26 638 -13 725 8 l 732 193 "},"ß":{"x_min":83.03125,"x_max":769.03125,"ha":833,"o":"m 289 0 l 289 616 b 420 840 289 784 344 840 b 526 729 485 840 526 791 b 517 679 526 709 522 694 b 406 506 445 640 406 576 b 511 309 406 416 466 356 b 560 213 544 273 560 248 b 469 143 560 173 528 143 b 375 162 434 143 400 150 l 349 6 b 495 -15 387 -8 445 -15 b 769 223 669 -15 769 81 b 662 441 769 329 707 391 b 615 533 630 476 615 501 b 694 630 615 568 639 604 b 725 744 713 656 725 702 b 432 1001 725 901 597 1001 b 187 913 328 1001 246 970 b 83 598 121 851 83 756 l 83 0 l 289 0 "},"њ":{"x_min":81.671875,"x_max":1099.78125,"ha":1167,"o":"m 81 679 l 81 0 l 288 0 l 288 294 l 477 294 l 477 4 b 702 -7 547 -3 630 -7 b 1016 68 800 -7 932 4 b 1099 239 1064 105 1099 158 b 789 480 1099 414 941 480 b 684 472 754 480 713 476 l 684 679 l 477 679 l 477 450 l 288 450 l 288 679 l 81 679 m 683 333 b 752 339 703 336 725 339 b 894 236 819 339 894 318 b 751 135 894 158 816 135 b 683 139 720 135 700 136 l 683 333 "},"":{"x_min":-125,"x_max":489,"ha":417,"o":"m -125 1161 l 42 987 l 190 987 l 80 1161 l -125 1161 m 173 1161 l 339 987 l 489 987 l 377 1161 l 173 1161 "},"Ű":{"x_min":90.09375,"x_max":838.703125,"ha":947,"o":"m 90 936 l 90 413 b 456 -15 90 116 224 -15 b 838 411 695 -15 838 122 l 838 936 l 631 936 l 631 398 b 463 154 631 231 571 154 b 296 398 358 154 296 236 l 296 936 l 90 936 m 351 1158 l 262 997 l 405 997 l 543 1158 l 351 1158 m 599 1158 l 510 997 l 652 997 l 791 1158 l 599 1158 "},"c":{"x_min":44.921875,"x_max":583.921875,"ha":626,"o":"m 558 173 b 439 151 526 159 488 151 b 257 341 338 151 257 216 b 435 530 255 451 326 530 b 551 509 490 530 526 520 l 583 666 b 426 693 540 683 480 693 b 44 333 178 693 44 530 b 397 -13 44 120 182 -13 b 582 18 476 -13 545 0 l 558 173 "},"¶":{"x_min":43.5,"x_max":639.71875,"ha":753,"o":"m 411 -65 l 411 811 l 509 811 l 509 -65 l 639 -65 l 639 926 b 445 941 597 936 526 941 b 43 626 117 941 40 773 b 272 366 46 448 193 366 l 280 366 l 280 -65 l 411 -65 "},"Ή":{"x_min":0,"x_max":993.609375,"ha":1107,"o":"m 236 936 l 236 0 l 443 0 l 443 390 l 786 390 l 786 0 l 993 0 l 993 936 l 786 936 l 786 575 l 443 575 l 443 936 l 236 936 m 2 936 l 0 694 l 118 694 l 168 936 l 2 936 "},"γ":{"x_min":-16.328125,"x_max":675.109375,"ha":715,"o":"m 435 -275 b 431 -6 434 -181 432 -65 b 439 26 431 4 431 13 b 675 626 578 230 675 454 b 672 679 675 643 675 665 l 476 679 b 477 618 476 665 477 650 b 377 215 477 475 423 318 l 371 215 b 212 679 337 404 261 602 l -16 679 b 212 112 57 555 167 338 b 235 -275 239 -18 238 -143 l 435 -275 "},"­":{"x_min":40.828125,"x_max":397.4375,"ha":447,"o":"m 40 434 l 40 294 l 397 294 l 397 434 l 40 434 "},":":{"x_min":69.421875,"x_max":311.6875,"ha":361,"o":"m 190 433 b 311 559 264 433 311 487 b 190 687 310 636 262 687 b 69 559 119 687 69 634 b 189 433 69 487 118 433 l 190 433 m 190 -15 b 311 111 264 -15 311 38 b 190 238 310 187 262 238 b 69 111 119 238 69 186 b 189 -15 69 38 118 -15 l 190 -15 "},"":{"x_min":24.5,"x_max":221.859375,"ha":283,"o":"m 127 -72 b 221 258 168 -8 221 101 b 127 590 221 418 168 529 l 24 590 b 104 259 63 518 104 402 b 24 -72 104 115 63 4 l 127 -72 "},"":{"x_min":10,"x_max":538.0625,"ha":417,"o":"m 98 1158 l 10 997 l 152 997 l 290 1158 l 98 1158 m 346 1158 l 257 997 l 399 997 l 538 1158 l 346 1158 "},"ś":{"x_min":44.875,"x_max":546.953125,"ha":603,"o":"m 44 34 b 259 -13 95 6 172 -13 b 546 206 450 -13 546 79 b 367 415 545 305 493 370 b 259 493 285 443 259 461 b 338 547 259 526 288 547 b 483 509 394 547 453 525 l 518 654 b 332 694 477 675 409 694 b 61 470 167 694 61 598 b 251 268 59 391 112 315 b 348 190 327 243 348 225 b 259 134 348 155 322 134 b 81 184 198 134 119 161 l 44 34 m 332 975 l 215 763 l 356 763 l 522 975 l 332 975 "}," ":{"x_min":0,"x_max":0,"ha":281},"У":{"x_min":4,"x_max":807,"ha":817,"o":"m 4 937 l 312 287 b 315 243 319 272 322 259 b 191 156 297 201 255 156 b 122 163 160 156 140 159 l 108 -5 b 209 -20 134 -15 163 -20 b 453 102 318 -20 393 26 b 635 475 522 188 578 330 l 807 937 l 589 937 l 489 604 b 439 420 466 523 451 461 l 435 420 b 370 600 415 477 395 534 l 236 937 l 4 937 "},"¾":{"x_min":37.1875,"x_max":1096.140625,"ha":1154,"o":"m 87 772 b 211 807 114 788 163 807 b 283 757 261 807 283 786 b 178 700 283 714 223 700 l 140 700 l 140 606 l 181 606 b 298 536 241 606 298 584 b 201 474 298 500 257 474 b 68 510 152 474 95 493 l 37 402 b 220 363 76 379 147 363 b 465 528 370 363 465 431 b 333 654 465 599 408 647 l 333 657 b 445 781 399 678 445 721 b 249 918 445 857 380 918 b 58 874 170 918 98 897 l 87 772 m 392 -14 l 893 918 l 780 918 l 280 -14 l 392 -14 m 1024 0 l 1024 125 l 1096 125 l 1096 228 l 1024 228 l 1024 547 l 842 547 l 610 213 l 610 125 l 877 125 l 877 0 l 1024 0 m 877 228 l 757 228 l 754 229 l 830 343 b 879 434 847 370 862 400 l 882 434 b 877 331 881 400 877 367 l 877 228 "},"Ί":{"x_min":1.359375,"x_max":445.078125,"ha":546,"o":"m 238 936 l 238 0 l 445 0 l 445 936 l 238 936 m 4 936 l 1 694 l 119 694 l 168 936 l 4 936 "},"ŉ":{"x_min":10.890625,"x_max":714.578125,"ha":814,"o":"m 83 0 l 289 0 l 289 391 b 296 444 289 411 291 430 b 402 523 311 483 345 523 b 507 376 477 523 507 463 l 507 0 l 714 0 l 714 401 b 476 694 714 601 612 694 b 270 584 364 694 298 629 l 266 584 l 257 679 l 77 679 b 83 462 80 618 83 547 l 83 0 m 103 727 b 201 911 129 750 201 813 b 157 1016 201 963 176 1002 l 25 981 b 53 905 40 963 53 934 b 10 784 53 861 35 822 l 103 727 "},"⁶":{"x_min":29.9375,"x_max":464.140625,"ha":504,"o":"m 400 1161 b 347 1161 389 1162 367 1162 b 123 1081 249 1158 179 1131 b 29 847 63 1026 29 943 b 255 608 29 726 98 608 b 464 806 363 608 464 683 b 292 980 464 915 393 980 b 176 943 246 980 204 963 l 175 943 b 349 1052 194 1005 250 1047 b 401 1051 367 1054 387 1052 l 400 1161 m 253 716 b 170 808 198 716 170 763 b 174 836 170 820 171 829 b 243 883 185 861 210 883 b 319 798 298 883 319 843 b 254 716 319 752 292 716 l 253 716 "},"":{"x_min":57.171875,"x_max":714.578125,"ha":779,"o":"m 641 855 b 57 344 272 851 57 637 b 389 -15 57 130 182 -15 b 714 297 564 -15 714 115 b 450 566 714 468 597 566 b 284 501 372 566 314 533 l 281 501 b 653 705 307 600 413 697 l 641 855 m 392 140 b 261 306 308 140 261 208 b 283 379 261 334 266 361 b 389 429 306 406 341 429 b 509 286 460 429 509 370 b 393 140 509 187 449 140 l 392 140 "},"":{"x_min":34.03125,"x_max":730.921875,"ha":779,"o":"m 473 0 l 473 145 l 680 145 l 680 244 l 473 244 l 473 316 l 680 316 l 680 415 l 522 415 l 730 747 l 522 747 l 442 575 b 383 434 420 523 402 480 l 382 434 b 325 573 364 481 348 519 l 247 747 l 34 747 l 234 415 l 74 415 l 74 316 l 279 316 l 279 244 l 74 244 l 74 145 l 279 145 l 279 0 l 473 0 "},"Ģ":{"x_min":47.5,"x_max":856,"ha":947,"o":"m 856 536 l 514 536 l 514 370 l 655 370 l 655 173 b 555 161 639 166 601 161 b 265 468 385 161 265 273 b 570 770 265 670 397 770 b 782 730 670 770 732 754 l 826 901 b 571 945 781 922 689 945 b 47 456 270 945 48 768 b 176 115 47 319 93 197 b 549 -9 261 33 382 -9 b 856 43 670 -9 792 20 l 856 536 m 393 -334 b 608 -163 511 -330 608 -279 b 555 -54 608 -113 582 -75 l 412 -77 b 451 -161 429 -98 451 -129 b 361 -245 451 -208 406 -236 l 393 -334 "},"m":{"x_min":77.578125,"x_max":1090.25,"ha":1194,"o":"m 83 0 l 284 0 l 284 394 b 292 448 284 412 285 431 b 389 523 304 481 336 523 b 485 380 455 523 485 465 l 485 0 l 687 0 l 687 397 b 694 450 687 413 690 434 b 790 523 709 490 741 523 b 888 368 857 523 888 466 l 888 0 l 1090 0 l 1090 400 b 865 694 1090 602 993 694 b 739 661 816 694 775 681 b 651 577 706 641 677 613 l 649 577 b 466 694 620 648 553 694 b 265 586 353 694 294 630 l 261 586 l 253 679 l 77 679 b 83 462 80 618 83 547 l 83 0 "},"Е":{"x_min":91.1875,"x_max":675.109375,"ha":742,"o":"m 635 568 l 298 568 l 298 762 l 656 762 l 656 936 l 91 936 l 91 0 l 675 0 l 675 173 l 298 173 l 298 395 l 635 395 l 635 568 "},"ž":{"x_min":29.921875,"x_max":608.0625,"ha":651,"o":"m 29 0 l 608 0 l 608 168 l 288 168 l 288 170 b 397 294 326 208 360 251 l 597 551 l 597 679 l 53 679 l 53 511 l 345 511 l 345 508 b 239 388 307 468 277 433 l 29 122 l 29 0 m 397 763 l 533 975 l 397 975 l 329 854 l 326 854 l 257 975 l 122 975 l 257 763 l 397 763 "},"⁵":{"x_min":29.9375,"x_max":432.828125,"ha":483,"o":"m 406 1155 l 91 1155 l 55 865 b 132 871 76 868 104 871 b 285 791 246 871 285 840 b 182 719 285 739 227 719 b 54 747 132 719 78 734 l 29 639 b 190 608 62 623 129 608 b 432 798 341 608 432 691 b 367 932 432 859 405 905 b 215 971 326 961 268 971 b 178 969 202 971 187 971 l 187 1037 l 406 1037 l 406 1155 "},"á":{"x_min":38.953125,"x_max":647.375,"ha":733,"o":"m 636 401 b 345 694 636 561 567 694 b 86 633 224 694 132 659 l 124 498 b 308 548 168 525 240 548 b 429 461 410 548 429 497 l 429 452 b 38 193 194 452 38 369 b 254 -15 38 84 119 -15 b 444 68 332 -15 401 13 l 448 68 l 460 0 l 647 0 b 636 163 639 37 636 100 l 636 401 m 436 247 b 432 211 436 234 435 222 b 324 133 418 168 375 133 b 243 213 278 133 243 159 b 436 320 243 294 327 320 l 436 247 m 383 975 l 266 763 l 407 763 l 573 975 l 383 975 "},"×":{"x_min":54,"x_max":756,"ha":828,"o":"m 54 638 l 315 365 l 54 93 l 143 0 l 405 272 l 666 0 l 756 93 l 494 365 l 756 638 l 667 730 l 405 456 l 142 730 l 54 638 "},"п":{"x_min":81.671875,"x_max":699.609375,"ha":800,"o":"m 81 679 l 81 0 l 288 0 l 288 516 l 492 516 l 492 0 l 699 0 l 699 679 l 81 679 "},"K":{"x_min":89.828125,"x_max":839.8125,"ha":853,"o":"m 89 0 l 295 0 l 295 305 l 372 404 l 598 0 l 839 0 l 521 537 l 824 936 l 568 936 l 362 625 b 298 522 340 591 318 558 l 295 522 l 295 936 l 89 936 l 89 0 "},"7":{"x_min":67.015625,"x_max":691.765625,"ha":771,"o":"m 67 902 l 67 729 l 472 729 l 472 726 l 107 0 l 326 0 l 691 770 l 691 902 l 67 902 "},"¨":{"x_min":-35.390625,"x_max":442.359375,"ha":417,"o":"m 62 773 b 155 872 115 773 155 818 b 62 969 155 927 114 969 b -35 872 8 969 -35 927 b 61 773 -35 818 6 773 l 62 773 m 348 773 b 442 872 402 773 442 818 b 348 969 442 927 401 969 b 251 872 292 969 251 927 b 345 773 251 818 292 773 l 348 773 "},"Y":{"x_min":12.25,"x_max":811.21875,"ha":838,"o":"m 509 0 l 509 390 l 811 936 l 578 936 l 485 711 b 416 531 458 644 436 590 l 413 531 b 343 711 392 593 371 643 l 250 936 l 12 936 l 302 383 l 302 0 l 509 0 "},"E":{"x_min":91.1875,"x_max":675.109375,"ha":742,"o":"m 635 568 l 298 568 l 298 762 l 656 762 l 656 936 l 91 936 l 91 0 l 675 0 l 675 173 l 298 173 l 298 395 l 635 395 l 635 568 "},"Ô":{"x_min":47.640625,"x_max":929.640625,"ha":996,"o":"m 480 -15 b 929 477 748 -15 929 169 b 494 951 929 736 775 951 b 47 461 224 951 47 741 b 479 -15 47 194 208 -15 l 480 -15 m 488 152 b 266 466 349 152 266 290 b 490 783 266 641 347 783 b 710 470 632 783 710 638 b 490 152 710 287 630 152 l 488 152 m 411 1158 l 274 987 l 419 987 l 487 1073 l 490 1073 l 558 987 l 703 987 l 566 1158 l 411 1158 "},"":{"x_min":-10.421875,"x_max":206,"ha":239,"o":"m 90 -288 b 206 -33 137 -211 176 -126 l 54 -40 b -10 -297 41 -126 19 -211 l 90 -288 "},"Є":{"x_min":48.421875,"x_max":772.53125,"ha":826,"o":"m 772 902 b 539 951 734 923 655 951 b 48 465 210 951 48 715 b 528 -15 48 170 228 -15 b 764 30 636 -15 723 9 l 733 190 b 560 158 686 170 616 158 b 273 390 394 158 286 252 l 688 390 l 688 555 l 271 555 b 549 780 292 680 384 780 b 730 743 624 780 689 762 l 772 902 "},"Ï":{"x_min":-39.46875,"x_max":427.390625,"ha":396,"o":"m 91 936 l 91 0 l 298 0 l 298 936 l 91 936 m 54 990 b 144 1084 106 990 144 1033 b 54 1180 144 1140 104 1180 b -39 1084 1 1180 -39 1138 b 53 990 -39 1033 1 990 l 54 990 m 336 990 b 427 1084 389 990 427 1033 b 336 1180 427 1140 387 1180 b 243 1084 283 1180 243 1138 b 334 990 243 1033 281 990 l 336 990 "},"ġ":{"x_min":45.09375,"x_max":718.84375,"ha":813,"o":"m 713 476 b 718 679 713 577 716 634 l 539 679 l 532 597 l 529 597 b 347 694 495 654 438 694 b 45 336 182 694 45 555 b 326 5 45 141 162 5 b 506 93 403 5 467 37 l 509 93 l 509 50 b 336 -129 509 -76 434 -129 b 143 -77 257 -129 185 -102 l 102 -238 b 341 -290 162 -272 253 -290 b 611 -206 439 -290 539 -270 b 713 98 687 -138 713 -31 l 713 476 m 506 302 b 499 245 506 284 505 262 b 389 161 486 197 443 161 b 254 341 303 161 254 240 b 390 534 254 465 314 534 b 502 441 447 534 487 497 b 506 402 505 429 506 415 l 506 302 m 396 775 b 488 872 449 775 488 819 b 396 970 488 929 449 970 b 299 872 341 970 299 929 b 394 775 299 819 340 775 l 396 775 "},"έ":{"x_min":44.46875,"x_max":607.96875,"ha":650,"o":"m 333 972 l 270 761 l 405 761 l 515 972 l 333 972 m 190 356 b 44 194 111 340 44 279 b 345 -15 44 38 200 -15 b 607 45 429 -15 535 1 l 579 181 b 399 140 534 159 460 140 b 267 218 331 140 267 163 b 436 286 267 270 341 284 l 501 286 l 501 423 l 436 423 b 284 483 339 425 284 441 b 396 547 284 520 324 547 b 553 509 456 547 516 529 l 588 643 b 365 694 531 676 462 694 b 75 504 166 694 75 598 b 190 363 75 437 117 387 l 190 356 "},"":{"x_min":24.5,"x_max":255.890625,"ha":286,"o":"m 24 922 l 24 823 l 255 823 l 255 922 l 24 922 "},"":{"x_min":58.53125,"x_max":349.8125,"ha":417,"o":"m 111 1 b 58 -156 93 -23 58 -91 b 210 -304 58 -255 117 -304 b 349 -261 255 -304 313 -290 l 321 -162 b 259 -173 307 -166 285 -173 b 187 -100 215 -173 187 -141 b 221 1 187 -61 209 -22 l 111 1 "},"":{"x_min":47.640625,"x_max":347.078125,"ha":436,"o":"m 191 -109 b 347 451 264 0 345 181 b 191 1012 347 722 264 905 l 47 1012 b 185 452 123 883 185 698 b 47 -109 185 206 123 19 l 191 -109 "},"ϋ":{"x_min":56.28125,"x_max":708.25,"ha":775,"o":"m 231 759 b 321 855 283 759 321 802 b 231 951 321 911 282 951 b 136 855 177 951 136 911 b 230 759 136 802 176 759 l 231 759 m 510 759 b 602 855 563 759 602 802 b 510 951 602 911 563 951 b 416 855 456 951 416 911 b 509 759 416 802 455 759 l 510 759 m 464 679 b 505 406 479 640 505 525 b 384 155 505 270 472 155 b 279 291 327 155 279 201 l 279 547 b 257 679 279 623 274 661 l 56 679 b 72 452 69 633 72 554 l 72 277 b 366 -15 72 79 201 -15 b 708 419 626 -15 708 208 b 657 679 708 536 681 631 l 464 679 "},"й":{"x_min":81.671875,"x_max":730.921875,"ha":829,"o":"m 81 679 l 81 0 l 333 0 b 472 318 379 105 430 222 b 541 500 499 380 515 426 l 547 500 b 534 206 540 356 534 312 l 534 0 l 730 0 l 730 679 l 477 679 l 348 387 b 272 193 321 323 303 269 l 266 193 b 277 470 272 286 277 362 l 277 679 l 81 679 m 212 959 b 402 763 217 840 277 763 b 602 959 519 763 594 830 l 472 959 b 405 861 468 900 446 861 b 343 959 367 861 344 898 l 212 959 "},"b":{"x_min":77.578125,"x_max":767.6875,"ha":831,"o":"m 83 202 b 77 0 83 126 80 44 l 253 0 l 261 94 l 264 94 b 464 -15 310 13 386 -15 b 767 351 616 -15 767 106 b 494 694 769 559 653 694 b 292 598 401 694 332 656 l 289 598 l 289 987 l 83 987 l 83 202 m 289 388 b 294 427 289 402 291 415 b 415 531 307 488 359 531 b 558 343 511 531 558 448 b 415 151 558 220 503 151 b 294 251 355 151 307 195 b 289 288 291 262 289 275 l 289 388 "},"ύ":{"x_min":55.8125,"x_max":707.78125,"ha":775,"o":"m 362 973 l 299 762 l 436 762 l 548 973 l 362 973 m 464 679 b 504 406 479 640 504 525 b 383 155 504 270 472 155 b 279 291 326 155 279 201 l 279 547 b 257 679 279 623 273 661 l 55 679 b 72 452 69 633 72 554 l 72 277 b 366 -15 72 79 201 -15 b 707 419 626 -15 707 208 b 657 679 707 536 680 631 l 464 679 "},"ﬂ":{"x_min":19.0625,"x_max":717.3125,"ha":817,"o":"m 314 0 l 314 523 l 434 523 l 434 679 l 313 679 l 313 705 b 431 844 313 783 348 844 b 510 830 469 844 495 838 l 510 0 l 717 0 l 717 944 b 461 1001 650 980 560 1001 b 208 925 355 1001 273 977 b 107 708 144 872 107 786 l 107 679 l 19 679 l 19 523 l 107 523 l 107 0 l 314 0 "},"":{"x_min":21.78125,"x_max":714.578125,"ha":758,"o":"m 609 0 l 609 215 l 714 215 l 714 373 l 609 373 l 609 902 l 355 902 l 21 352 l 21 215 l 413 215 l 413 0 l 609 0 m 213 373 l 215 376 l 332 573 b 415 741 362 630 386 683 l 419 741 b 413 573 416 683 413 627 l 413 373 l 213 373 "},"":{"x_min":80.3125,"x_max":326.671875,"ha":417,"o":"m 111 -334 b 326 -163 230 -330 326 -279 b 273 -54 326 -113 300 -74 l 130 -77 b 170 -160 148 -98 170 -129 b 80 -245 170 -208 125 -235 l 111 -334 "},"ф":{"x_min":44.921875,"x_max":935.078125,"ha":1000,"o":"m 393 979 l 394 690 b 44 334 206 670 44 556 b 396 -12 44 118 209 1 l 393 -275 l 588 -275 l 585 -12 b 935 336 769 1 935 116 b 585 690 935 554 774 670 l 588 979 l 393 979 m 396 125 b 249 340 296 148 249 230 b 396 554 249 444 295 529 l 396 125 m 583 554 b 730 340 684 529 730 445 b 583 125 730 231 683 150 l 583 554 "},"Ŋ":{"x_min":90.09375,"x_max":849.59375,"ha":958,"o":"m 280 0 l 280 281 b 271 691 280 434 277 566 l 276 691 b 435 361 320 581 381 462 l 645 -20 b 494 -138 633 -81 584 -116 l 539 -300 b 849 66 724 -277 849 -172 l 849 936 l 659 936 l 659 663 b 675 272 659 522 663 395 l 672 272 b 522 593 630 377 577 494 l 332 936 l 90 936 l 90 0 l 280 0 "},"Ũ":{"x_min":89.828125,"x_max":838.453125,"ha":947,"o":"m 89 936 l 89 413 b 455 -15 89 116 224 -15 b 838 411 695 -15 838 122 l 838 936 l 631 936 l 631 398 b 462 154 631 231 571 154 b 296 398 357 154 296 236 l 296 936 l 89 936 m 368 993 b 401 1052 371 1033 383 1052 b 460 1027 420 1052 435 1041 b 548 1001 484 1013 511 1001 b 654 1175 619 1001 657 1050 l 562 1175 b 525 1115 556 1127 548 1115 b 465 1141 507 1115 488 1127 b 378 1169 441 1156 415 1169 b 273 993 313 1169 270 1109 l 368 993 "},"Щ":{"x_min":91.1875,"x_max":1244.0625,"ha":1297,"o":"m 91 936 l 91 0 l 1067 0 l 1078 -236 l 1234 -236 l 1244 161 l 1152 166 l 1152 936 l 950 936 l 950 173 l 722 173 l 722 936 l 519 936 l 519 173 l 294 173 l 294 936 l 91 936 "},"L":{"x_min":91.1875,"x_max":662.859375,"ha":710,"o":"m 91 0 l 662 0 l 662 177 l 298 177 l 298 936 l 91 936 l 91 0 "},"":{"x_min":49,"x_max":711.859375,"ha":779,"o":"m 553 456 b 679 638 623 491 679 550 b 387 856 679 750 582 856 b 78 615 200 856 78 756 b 201 440 78 536 126 477 l 201 434 b 49 226 110 393 49 320 b 372 -15 49 84 178 -15 b 711 247 570 -15 711 90 b 553 450 711 350 637 415 l 553 456 m 387 726 b 492 622 443 726 492 690 b 405 509 492 568 453 526 b 280 627 328 531 280 576 b 386 726 280 683 321 726 l 387 726 m 378 126 b 255 244 304 126 255 177 b 357 372 255 302 294 351 b 498 233 441 350 498 300 b 379 126 498 170 447 126 l 378 126 "},";":{"x_min":32.625,"x_max":327.984375,"ha":385,"o":"m 168 -154 b 311 227 223 -44 277 101 l 103 220 b 32 -166 93 101 63 -43 l 168 -154 m 200 395 b 327 530 277 395 327 452 b 200 665 327 609 276 665 b 72 530 123 665 72 608 b 198 395 72 452 123 395 l 200 395 "},"ď":{"x_min":44.90625,"x_max":966.390625,"ha":842,"o":"m 521 987 l 521 616 l 518 616 b 343 694 488 663 426 694 b 44 332 183 694 43 561 b 329 -16 44 121 171 -16 b 537 97 415 -16 496 22 l 541 97 l 549 -1 l 733 -1 b 728 201 730 44 728 125 l 728 987 l 521 987 m 521 300 b 517 252 521 283 519 266 b 396 151 504 193 455 151 b 254 337 310 151 254 223 b 397 530 254 444 302 530 b 518 427 461 530 506 484 b 521 388 521 415 521 401 l 521 300 m 871 688 b 966 898 892 707 966 775 b 922 1003 966 943 945 986 l 793 980 b 820 885 808 955 820 921 b 782 744 820 832 803 778 l 871 688 "},"":{"x_min":-124.21875,"x_max":534.5625,"ha":417,"o":"m -35 990 b 50 1079 13 990 50 1030 b -34 1169 50 1130 13 1169 b -124 1079 -84 1169 -124 1130 b -37 990 -124 1031 -86 990 l -35 990 m 447 990 b 534 1079 496 990 534 1029 b 448 1169 534 1130 497 1169 b 360 1079 398 1169 360 1130 b 446 990 360 1031 398 990 l 447 990 m 154 1162 l 50 988 l 199 988 l 357 1162 l 154 1162 "},"Ο":{"x_min":47.640625,"x_max":929.640625,"ha":996,"o":"m 480 -15 b 929 477 748 -15 929 169 b 494 951 929 736 775 951 b 47 461 224 951 47 741 b 479 -15 47 194 208 -15 l 480 -15 m 488 152 b 266 466 349 152 266 290 b 490 783 266 641 347 783 b 710 470 632 783 710 638 b 490 152 710 287 630 152 l 488 152 "},"Ĭ":{"x_min":2.71875,"x_max":385.1875,"ha":396,"o":"m 91 936 l 91 0 l 298 0 l 298 936 l 91 936 m 2 1165 b 193 990 5 1063 59 990 b 385 1165 323 990 382 1063 l 279 1165 b 193 1101 272 1131 250 1101 b 112 1165 136 1101 117 1134 l 2 1165 "},"":{"x_min":-10,"x_max":419,"ha":417,"o":"m 126 1156 l -10 986 l 134 986 l 202 1072 l 205 1072 l 273 986 l 419 986 l 281 1156 l 126 1156 "},"ŧ":{"x_min":23.140625,"x_max":462.78125,"ha":510,"o":"m 462 523 l 462 679 l 314 679 l 314 863 l 111 806 l 111 679 l 23 679 l 23 523 l 111 523 l 111 426 l 27 426 l 27 315 l 111 315 l 111 245 b 168 44 111 150 130 84 b 325 -13 202 9 258 -13 b 458 4 382 -13 432 -5 l 457 163 b 396 158 438 159 424 158 b 314 262 340 158 314 188 l 314 315 l 427 315 l 427 426 l 314 426 l 314 523 l 462 523 "},"À":{"x_min":23,"x_max":860,"ha":911,"o":"m 566 240 l 636 0 l 860 0 l 574 936 l 303 936 l 23 0 l 238 0 l 302 240 l 566 240 m 331 398 l 387 597 b 428 777 401 651 416 722 l 432 777 b 477 597 446 723 462 652 l 534 398 l 331 398 m 206 1158 l 372 988 l 538 988 l 424 1158 l 206 1158 "},"Ϊ":{"x_min":-38.109375,"x_max":424.671875,"ha":396,"o":"m 55 991 b 145 1086 107 991 145 1034 b 55 1180 145 1140 107 1180 b -38 1086 2 1180 -38 1140 b 54 991 -38 1034 2 991 l 55 991 m 333 991 b 424 1086 386 991 424 1034 b 333 1180 424 1140 386 1180 b 242 1086 280 1180 242 1140 b 332 991 242 1034 279 991 l 333 991 m 91 936 l 91 0 l 298 0 l 298 936 l 91 936 "},"½":{"x_min":32.671875,"x_max":1079.359375,"ha":1154,"o":"m 322 369 l 322 911 l 183 911 l 32 844 l 53 730 l 161 779 l 163 779 l 163 369 l 322 369 m 317 -15 l 818 918 l 705 918 l 204 -15 l 317 -15 m 660 0 l 1079 0 l 1079 120 l 880 120 l 880 123 l 913 151 b 1069 380 994 218 1069 281 b 862 548 1069 475 997 548 b 664 488 779 548 709 522 l 705 383 b 822 422 735 404 777 422 b 902 355 873 422 902 394 b 744 155 902 295 846 248 l 660 79 l 660 0 "},"":{"x_min":40.828125,"x_max":1320.28125,"ha":1389,"o":"m 40 522 l 40 391 l 1320 391 l 1320 522 l 40 522 "},"'":{"x_min":49,"x_max":231.390625,"ha":285,"o":"m 49 961 l 78 584 l 201 584 l 231 961 l 49 961 "},"ĳ":{"x_min":77.578125,"x_max":695.53125,"ha":785,"o":"m 289 0 l 289 679 l 83 679 l 83 0 l 289 0 m 186 762 b 296 868 254 762 296 809 b 187 973 295 927 254 973 b 77 868 121 973 77 927 b 185 762 77 809 119 762 l 186 762 m 340 -298 b 596 -215 438 -298 534 -272 b 690 81 658 -156 690 -66 l 690 679 l 483 679 l 483 131 b 442 -88 483 -2 472 -56 b 319 -133 416 -116 372 -129 l 340 -298 m 585 762 b 695 868 653 762 695 809 b 586 973 694 927 653 973 b 476 868 519 973 476 927 b 583 762 476 809 518 762 l 585 762 "},"Р":{"x_min":89.828125,"x_max":748.609375,"ha":807,"o":"m 89 0 l 295 0 l 295 336 b 366 331 314 332 338 331 b 664 429 488 331 593 362 b 748 651 720 481 748 558 b 650 867 748 743 710 821 b 370 943 589 918 498 943 b 89 924 243 943 153 935 l 89 0 m 295 775 b 379 782 310 779 338 782 b 543 644 484 782 543 731 b 364 493 543 550 475 493 b 295 499 333 493 313 494 l 295 775 "},"˛":{"x_min":58.53125,"x_max":349.8125,"ha":417,"o":"m 111 1 b 58 -156 93 -23 58 -91 b 210 -304 58 -255 117 -304 b 349 -261 255 -304 313 -290 l 321 -162 b 259 -173 307 -166 285 -173 b 187 -100 215 -173 187 -141 b 221 1 187 -61 209 -22 l 111 1 "},"":{"x_min":29.9375,"x_max":432.828125,"ha":483,"o":"m 406 909 l 91 909 l 55 619 b 132 625 76 622 104 625 b 285 545 246 625 285 594 b 182 473 285 493 227 473 b 54 501 132 473 78 488 l 29 393 b 190 362 62 377 129 362 b 432 552 341 362 432 445 b 367 686 432 613 405 659 b 215 725 326 715 268 725 b 178 723 202 725 187 725 l 187 791 l 406 791 l 406 909 "},"⁷":{"x_min":31.03125,"x_max":432.5625,"ha":463,"o":"m 31 1155 l 31 1037 l 280 1037 l 280 1036 l 54 615 l 207 615 l 432 1066 l 432 1155 l 31 1155 "},"Ć":{"x_min":47.640625,"x_max":774.46875,"ha":826,"o":"m 732 193 b 558 162 690 175 622 162 b 265 466 374 162 265 280 b 556 776 265 675 393 776 b 730 741 631 776 690 759 l 774 909 b 548 950 737 927 656 950 b 47 455 270 950 47 773 b 528 -13 47 188 210 -13 b 762 26 638 -13 725 8 l 732 193 m 514 1158 l 400 987 l 566 987 l 732 1158 l 514 1158 "},"Т":{"x_min":20.421875,"x_max":725.46875,"ha":761,"o":"m 268 0 l 475 0 l 475 758 l 725 758 l 725 936 l 20 936 l 20 758 l 268 758 l 268 0 "},"£":{"x_min":69.03125,"x_max":689.703125,"ha":771,"o":"m 689 -1 l 689 170 l 326 170 l 326 173 b 392 272 358 202 380 237 b 405 370 402 304 405 337 l 574 370 l 574 515 l 386 515 b 373 618 379 549 373 581 b 500 748 373 686 403 748 b 616 723 550 748 588 738 l 648 883 b 489 916 618 900 563 916 b 182 627 305 916 182 801 b 192 515 182 588 186 549 l 84 515 l 84 370 l 217 370 b 221 315 221 352 221 334 b 69 111 221 220 142 141 l 69 -1 l 689 -1 "},"":{"x_min":41.90625,"x_max":437.984375,"ha":490,"o":"m 281 -70 l 281 12 b 437 169 382 30 437 94 b 292 326 437 247 397 293 b 188 390 207 352 188 365 b 255 430 188 409 202 430 b 384 400 319 430 364 409 l 412 505 b 284 533 384 518 335 531 l 284 602 l 195 602 l 195 527 b 47 373 100 509 47 450 b 205 220 47 288 108 252 b 295 158 276 197 295 184 b 218 113 295 129 269 113 b 69 152 160 113 109 130 l 41 43 b 192 5 75 25 133 8 l 192 -70 l 281 -70 "},"ů":{"x_min":80.3125,"x_max":715.953125,"ha":810,"o":"m 710 679 l 503 679 l 503 275 b 495 229 503 256 500 241 b 392 155 483 195 449 155 b 287 313 318 155 287 215 l 287 679 l 80 679 l 80 280 b 314 -15 80 70 178 -15 b 522 95 434 -15 496 54 l 526 95 l 536 0 l 715 0 b 710 218 713 56 710 129 l 710 679 m 398 1022 b 240 883 296 1022 240 961 b 398 748 240 806 300 748 b 552 884 492 748 552 806 b 400 1022 552 962 498 1022 l 398 1022 m 397 952 b 460 884 438 952 460 919 b 397 818 460 848 436 818 b 336 883 359 818 336 851 b 396 952 336 919 356 952 l 397 952 "},"Ō":{"x_min":47.640625,"x_max":929.640625,"ha":996,"o":"m 480 -15 b 929 477 748 -15 929 169 b 494 951 929 736 775 951 b 47 461 224 951 47 741 b 479 -15 47 194 208 -15 l 480 -15 m 488 152 b 266 466 349 152 266 290 b 490 783 266 641 347 783 b 710 470 632 783 710 638 b 490 152 710 287 630 152 l 488 152 m 313 1134 l 313 1022 l 665 1022 l 665 1134 l 313 1134 "},"а":{"x_min":38.953125,"x_max":647.375,"ha":733,"o":"m 636 401 b 345 694 636 561 567 694 b 86 633 224 694 132 659 l 124 498 b 308 548 168 525 240 548 b 429 461 410 548 429 497 l 429 452 b 38 193 194 452 38 369 b 254 -15 38 84 119 -15 b 444 68 332 -15 401 13 l 448 68 l 460 0 l 647 0 b 636 163 639 37 636 100 l 636 401 m 436 247 b 432 211 436 234 435 222 b 324 133 418 168 375 133 b 243 213 278 133 243 159 b 436 320 243 294 327 320 l 436 247 "},"Ğ":{"x_min":47.5,"x_max":856,"ha":947,"o":"m 856 536 l 514 536 l 514 370 l 655 370 l 655 173 b 555 161 639 166 601 161 b 265 468 385 161 265 273 b 570 770 265 670 397 770 b 782 730 670 770 732 754 l 826 901 b 571 945 781 922 689 945 b 47 456 270 945 48 768 b 176 115 47 319 93 197 b 549 -9 261 33 382 -9 b 856 43 670 -9 792 20 l 856 536 m 322 1168 b 513 993 325 1066 379 993 b 704 1168 643 993 702 1066 l 598 1168 b 513 1104 591 1134 570 1104 b 432 1168 455 1104 436 1137 l 322 1168 "},"ә":{"x_min":39.4375,"x_max":672.359375,"ha":733,"o":"m 103 505 b 291 537 167 527 224 537 b 475 406 397 537 468 495 l 47 406 b 39 325 43 391 39 359 b 338 -13 39 156 121 -13 b 672 348 567 -13 672 176 b 319 694 672 559 543 694 b 76 645 231 694 146 676 l 103 505 m 476 262 b 351 126 470 208 439 126 b 231 262 255 126 231 212 l 476 262 "},"v":{"x_min":12,"x_max":709,"ha":736,"o":"m 12 679 l 254 0 l 461 0 l 709 679 l 491 679 l 405 363 b 368 198 390 305 379 254 l 364 198 b 326 363 353 252 342 306 l 236 679 l 12 679 "},"Ї":{"x_min":-39.46875,"x_max":427.390625,"ha":396,"o":"m 91 936 l 91 0 l 298 0 l 298 936 l 91 936 m 54 990 b 144 1084 106 990 144 1033 b 54 1180 144 1140 104 1180 b -39 1084 1 1180 -39 1138 b 53 990 -39 1033 1 990 l 54 990 m 336 990 b 427 1084 389 990 427 1033 b 336 1180 427 1140 387 1180 b 243 1084 283 1180 243 1138 b 334 990 243 1033 281 990 l 336 990 "},"û":{"x_min":80.0625,"x_max":716.390625,"ha":810,"o":"m 710 679 l 503 679 l 503 275 b 495 229 503 256 501 241 b 392 155 483 195 449 155 b 287 313 318 155 287 215 l 287 679 l 80 679 l 80 280 b 314 -15 80 70 178 -15 b 522 95 434 -15 497 54 l 527 95 l 536 0 l 716 0 b 710 218 713 56 710 129 l 710 679 m 329 975 l 193 763 l 328 763 l 397 884 l 400 884 l 468 763 l 603 763 l 468 975 l 329 975 "},"":{"x_min":29.9375,"x_max":432.828125,"ha":483,"o":"m 406 540 l 91 540 l 55 250 b 132 256 76 253 104 256 b 285 176 246 256 285 225 b 182 104 285 124 227 104 b 54 132 132 104 78 119 l 29 24 b 190 -6 62 8 129 -6 b 432 183 341 -6 432 76 b 367 317 432 244 405 290 b 215 356 326 346 268 356 b 178 354 202 356 187 356 l 187 422 l 406 422 l 406 540 "},"Ź":{"x_min":33.046875,"x_max":744.90625,"ha":801,"o":"m 33 0 l 744 0 l 744 175 l 310 175 l 310 180 l 738 813 l 738 936 l 72 936 l 72 761 l 469 761 l 469 756 l 33 113 l 33 0 m 405 1156 l 291 986 l 457 986 l 623 1156 l 405 1156 "},"ˉ":{"x_min":35.390625,"x_max":375.671875,"ha":417,"o":"m 35 925 l 35 808 l 375 808 l 375 925 l 35 925 "},"Ĺ":{"x_min":91,"x_max":662.671875,"ha":710,"o":"m 91 0 l 662 0 l 662 177 l 297 177 l 297 936 l 91 936 l 91 0 m 224 1156 l 110 986 l 276 986 l 442 1156 l 224 1156 "},"Č":{"x_min":47.640625,"x_max":774.46875,"ha":826,"o":"m 732 193 b 558 162 690 175 622 162 b 265 466 374 162 265 280 b 556 776 265 675 393 776 b 730 741 631 776 690 759 l 774 909 b 548 950 737 927 656 950 b 47 455 270 950 47 773 b 528 -13 47 188 210 -13 b 762 26 638 -13 725 8 l 732 193 m 570 987 l 706 1158 l 562 1158 l 494 1072 l 491 1072 l 423 1158 l 277 1158 l 415 987 l 570 987 "},"x":{"x_min":4,"x_max":701,"ha":721,"o":"m 9 679 l 229 347 l 4 0 l 231 0 l 293 122 b 344 226 310 155 328 188 l 348 226 b 400 122 363 190 381 155 l 466 0 l 701 0 l 479 355 l 698 679 l 473 679 l 415 569 b 363 463 397 534 381 501 l 360 463 b 306 565 342 497 325 530 l 240 679 l 9 679 "},"":{"x_min":80.390625,"x_max":701.0625,"ha":779,"o":"m 701 0 l 701 165 l 336 165 l 336 168 b 409 298 367 191 404 234 b 409 319 409 305 409 312 l 585 319 l 585 434 l 389 434 b 383 494 385 452 383 473 b 510 627 383 572 424 627 b 626 602 555 627 598 618 l 658 755 b 499 790 627 773 566 790 b 192 500 302 790 192 659 b 198 434 192 477 194 455 l 96 434 l 96 319 l 221 319 b 224 280 223 306 224 294 b 80 112 224 204 163 144 l 80 0 l 701 0 "},"è":{"x_min":44.78125,"x_max":677.984375,"ha":733,"o":"m 671 272 b 677 355 673 287 677 319 b 380 694 677 523 596 694 b 44 331 150 694 44 504 b 400 -13 44 119 174 -13 b 641 29 489 -13 573 0 l 613 172 b 430 143 558 152 500 143 b 242 272 333 143 248 184 l 671 272 m 240 416 b 370 554 246 472 281 554 b 485 416 464 554 485 468 l 240 416 m 163 975 l 329 763 l 470 763 l 353 975 l 163 975 "},"Ń":{"x_min":90.09375,"x_max":849.59375,"ha":958,"o":"m 280 0 l 280 281 b 271 691 280 434 277 566 l 276 691 b 435 361 320 581 381 462 l 631 0 l 849 0 l 849 936 l 659 936 l 659 663 b 675 272 659 522 663 395 l 672 272 b 522 593 630 377 577 494 l 332 936 l 90 936 l 90 0 l 280 0 m 479 1156 l 365 986 l 531 986 l 697 1156 l 479 1156 "},"":{"x_min":55.8125,"x_max":253.171875,"ha":283,"o":"m 149 590 b 55 258 110 530 55 418 b 149 -72 55 100 108 -11 l 253 -72 b 172 258 213 2 172 111 b 253 590 172 402 215 519 l 149 590 "},"μ":{"x_min":83.109375,"x_max":767.734375,"ha":813,"o":"m 532 92 b 681 -15 552 23 604 -15 b 756 -3 714 -15 740 -11 l 767 142 b 711 220 729 144 711 162 l 711 678 l 505 678 l 505 274 b 498 228 505 258 503 241 b 390 153 484 194 443 153 b 289 299 322 153 289 208 l 289 678 l 83 678 l 83 -29 b 102 -275 83 -129 88 -241 l 284 -275 b 269 -28 273 -222 269 -101 l 269 30 b 363 -9 292 3 328 -9 b 528 92 449 -9 506 44 l 532 92 "},".":{"x_min":68.0625,"x_max":311.6875,"ha":361,"o":"m 189 -15 b 311 112 262 -15 311 38 b 190 241 310 190 261 241 b 68 112 118 241 68 188 b 187 -15 68 38 118 -15 l 189 -15 "},"‘":{"x_min":37.4375,"x_max":326,"ha":361,"o":"m 230 586 b 326 961 249 708 285 843 l 200 950 b 37 573 138 844 79 709 l 230 586 "},"π":{"x_min":4.078125,"x_max":793.53125,"ha":833,"o":"m 774 519 l 793 679 l 240 679 b 4 631 110 679 34 661 l 25 509 b 144 519 59 518 106 519 b 72 0 145 375 112 136 l 269 0 b 344 519 313 105 341 362 l 488 519 l 488 197 b 511 0 488 111 495 25 l 710 0 b 694 212 700 43 694 119 l 694 519 l 774 519 "},"9":{"x_min":40.671875,"x_max":708.96875,"ha":771,"o":"m 120 -12 b 214 -12 144 -14 180 -15 b 555 113 353 -7 470 34 b 708 529 650 204 708 340 b 374 917 708 740 601 917 b 40 592 179 917 40 769 b 315 311 40 416 165 311 b 495 376 397 311 454 334 l 498 374 b 386 208 483 306 444 247 b 210 152 338 174 274 155 b 120 152 169 149 148 148 l 120 -12 m 368 763 b 498 573 462 763 499 669 b 488 519 498 547 495 533 b 371 461 468 487 429 461 b 246 605 288 461 246 527 b 367 763 246 699 297 763 l 368 763 "},"":{"x_min":29.9375,"x_max":204.171875,"ha":239,"o":"m 117 362 b 204 451 168 362 204 400 b 117 540 204 504 168 540 b 29 451 65 540 29 504 b 115 362 29 400 65 362 l 117 362 "},"l":{"x_min":83.03125,"x_max":289.921875,"ha":382,"o":"m 83 0 l 289 0 l 289 987 l 83 987 l 83 0 "},"":{"x_min":35,"x_max":601,"ha":646,"o":"m 337 719 l 192 719 l 35 454 l 192 190 l 337 190 l 173 454 l 337 719 m 601 719 l 456 719 l 298 454 l 456 190 l 601 190 l 437 454 l 601 719 "},"Ъ":{"x_min":16.328125,"x_max":913.3125,"ha":981,"o":"m 16 934 l 16 762 l 249 762 l 249 2 b 472 -11 295 -4 371 -11 b 839 108 613 -11 751 16 b 913 311 884 155 913 222 b 564 616 913 513 744 616 b 454 609 524 616 480 612 l 454 934 l 16 934 m 454 448 b 529 454 475 451 503 454 b 695 304 616 454 695 408 b 529 147 695 202 623 147 b 454 152 496 147 473 148 l 454 448 "},"Ś":{"x_min":54.171875,"x_max":683,"ha":750,"o":"m 54 44 b 314 -13 105 15 209 -13 b 683 276 565 -13 683 119 b 446 555 683 408 608 494 b 276 687 326 601 276 627 b 409 777 276 734 319 777 b 599 733 497 777 564 751 l 646 902 b 412 950 591 929 516 950 b 65 669 197 950 65 829 b 318 391 65 533 165 447 b 472 261 428 352 472 319 b 326 159 472 200 421 159 b 96 218 237 159 150 188 l 54 44 m 398 1158 l 284 987 l 450 987 l 616 1158 l 398 1158 "},"Ü":{"x_min":89.828125,"x_max":838.453125,"ha":947,"o":"m 89 936 l 89 413 b 455 -15 89 116 224 -15 b 838 411 695 -15 838 122 l 838 936 l 631 936 l 631 398 b 462 154 631 231 571 154 b 296 398 357 154 296 236 l 296 936 l 89 936 m 332 990 b 421 1084 383 990 421 1033 b 332 1180 421 1140 382 1180 b 238 1084 279 1180 238 1138 b 330 990 238 1033 279 990 l 332 990 m 613 990 b 705 1084 666 990 705 1033 b 613 1180 705 1140 665 1180 b 521 1084 560 1180 521 1138 b 612 990 521 1033 559 990 l 613 990 "},"à":{"x_min":38.953125,"x_max":647.96875,"ha":733,"o":"m 637 401 b 345 694 637 561 567 694 b 86 633 224 694 132 659 l 124 498 b 308 548 168 525 240 548 b 430 461 411 548 430 497 l 430 452 b 38 193 194 452 38 369 b 254 -15 38 84 119 -15 b 445 68 333 -15 401 13 l 449 68 l 461 0 l 647 0 b 637 163 639 37 637 100 l 637 401 m 436 247 b 432 211 436 234 435 222 b 325 133 419 168 375 133 b 243 213 278 133 243 159 b 436 320 243 294 327 320 l 436 247 m 135 975 l 301 763 l 443 763 l 326 975 l 135 975 "},"η":{"x_min":61.25,"x_max":728.203125,"ha":814,"o":"m 266 584 b 243 679 265 620 255 655 l 61 679 b 83 462 78 626 83 548 l 83 0 l 289 0 l 289 391 b 296 444 289 411 291 430 b 402 523 311 483 345 523 b 507 376 477 523 507 463 l 507 -34 b 532 -275 507 -126 513 -241 l 728 -275 b 714 -36 714 -222 714 -116 l 714 401 b 476 694 714 601 612 694 b 270 584 364 694 298 629 l 266 584 "},"ó":{"x_min":44.921875,"x_max":740.453125,"ha":801,"o":"m 390 -15 b 740 345 567 -15 740 98 b 401 694 740 551 604 694 b 44 334 186 694 44 554 b 389 -15 44 115 194 -15 l 390 -15 m 393 136 b 258 338 306 136 258 223 b 394 543 258 440 296 543 b 526 340 488 543 526 440 b 394 136 526 218 476 136 l 393 136 m 419 975 l 302 763 l 443 763 l 609 975 l 419 975 "},"":{"x_min":9.53125,"x_max":634.28125,"ha":692,"o":"m 9 47 b 272 -15 61 15 157 -15 b 634 259 496 -15 634 101 b 442 480 634 379 548 461 l 442 483 b 604 693 551 520 604 597 b 311 918 604 816 499 918 b 38 850 196 918 91 884 l 80 697 b 264 751 115 719 191 751 b 394 656 352 751 394 711 b 238 552 394 580 307 552 l 157 552 l 157 401 l 242 401 b 419 270 332 401 419 361 b 257 151 419 204 364 151 b 51 206 172 151 88 186 l 9 47 "},"₀":{"x_min":28.578125,"x_max":484.5625,"ha":525,"o":"m 255 -211 b 484 66 419 -211 484 -77 b 255 344 484 220 412 344 b 28 66 98 344 28 218 b 254 -211 28 -87 99 -211 l 255 -211 m 255 -102 b 179 66 209 -102 179 -48 b 255 236 179 180 209 236 b 333 66 302 236 333 183 b 257 -102 333 -48 303 -102 l 255 -102 "},"¦":{"x_min":119.78125,"x_max":264.0625,"ha":393,"o":"m 119 241 l 119 -244 l 264 -244 l 264 241 l 119 241 m 119 936 l 119 450 l 264 450 l 264 936 l 119 936 "},"":{"x_min":59.953125,"x_max":709.03125,"ha":779,"o":"m 313 336 l 334 493 l 458 493 l 438 336 l 313 336 m 262 -11 l 292 208 l 416 208 l 385 -11 l 507 -11 l 537 208 l 670 208 l 670 336 l 559 336 l 579 493 l 709 493 l 709 620 l 600 620 l 630 833 l 509 833 l 479 620 l 353 620 l 383 833 l 262 833 l 232 620 l 99 620 l 99 493 l 213 493 l 191 336 l 59 336 l 59 208 l 171 208 l 140 -11 l 262 -11 "},"Ő":{"x_min":47.640625,"x_max":929.640625,"ha":996,"o":"m 480 -15 b 929 477 748 -15 929 169 b 494 951 929 736 775 951 b 47 461 224 951 47 741 b 479 -15 47 194 208 -15 l 480 -15 m 488 152 b 266 466 349 152 266 290 b 490 783 266 641 347 783 b 710 470 632 783 710 638 b 490 152 710 287 630 152 l 488 152 m 383 1159 l 295 998 l 438 998 l 575 1159 l 383 1159 m 631 1159 l 543 998 l 684 998 l 823 1159 l 631 1159 "},"":{"x_min":24.5,"x_max":255.890625,"ha":286,"o":"m 24 102 l 24 4 l 255 4 l 255 102 l 24 102 "},"Ž":{"x_min":33.015625,"x_max":744.984375,"ha":801,"o":"m 33 0 l 744 0 l 744 175 l 310 175 l 310 180 l 738 813 l 738 936 l 72 936 l 72 761 l 470 761 l 470 756 l 33 113 l 33 0 m 479 986 l 615 1156 l 471 1156 l 403 1070 l 400 1070 l 332 1156 l 186 1156 l 324 986 l 479 986 "},"е":{"x_min":44.640625,"x_max":677.984375,"ha":733,"o":"m 671 272 b 677 355 673 287 677 319 b 380 694 677 523 596 694 b 44 331 150 694 44 504 b 400 -13 44 119 174 -13 b 641 29 489 -13 573 0 l 613 172 b 430 143 558 152 500 143 b 242 272 333 143 248 184 l 671 272 m 240 416 b 370 554 246 472 281 554 b 485 416 464 554 485 468 l 240 416 "},"Î":{"x_min":-19.0625,"x_max":409.6875,"ha":396,"o":"m 91 936 l 91 0 l 298 0 l 298 936 l 91 936 m 117 1156 l -19 986 l 125 986 l 193 1072 l 196 1072 l 264 986 l 409 986 l 272 1156 l 117 1156 "},"e":{"x_min":44.640625,"x_max":677.984375,"ha":733,"o":"m 671 272 b 677 355 673 287 677 319 b 380 694 677 523 596 694 b 44 331 150 694 44 504 b 400 -13 44 119 174 -13 b 641 29 489 -13 573 0 l 613 172 b 430 143 558 152 500 143 b 242 272 333 143 248 184 l 671 272 m 240 416 b 370 554 246 472 281 554 b 485 416 464 554 485 468 l 240 416 "},"ό":{"x_min":44.921875,"x_max":740.453125,"ha":801,"o":"m 385 972 l 322 761 l 457 761 l 567 972 l 385 972 m 390 -15 b 740 345 567 -15 740 98 b 401 694 740 551 604 694 b 44 334 186 694 44 554 b 389 -15 44 115 194 -15 l 390 -15 m 393 136 b 258 338 306 136 258 223 b 394 543 258 440 296 543 b 526 340 488 543 526 440 b 394 136 526 218 476 136 l 393 136 "},"":{"x_min":12.25,"x_max":441,"ha":482,"o":"m 62 402 b 186 437 89 418 138 437 b 258 387 236 437 258 416 b 153 330 258 344 198 330 l 115 330 l 115 236 l 156 236 b 273 166 216 236 273 213 b 176 104 273 130 232 104 b 43 140 127 104 70 125 l 12 31 b 196 -6 51 9 122 -6 b 441 158 345 -6 441 61 b 308 284 441 229 383 277 l 308 287 b 420 411 374 308 420 351 b 224 548 420 487 355 548 b 34 504 145 548 73 527 l 62 402 "},"":{"x_min":22.984375,"x_max":612.34375,"ha":661,"o":"m 612 679 l 22 679 l 22 507 l 400 507 l 400 504 b 44 -147 325 315 161 28 l 243 -172 b 612 551 380 43 533 344 l 612 679 "},"Ĕ":{"x_min":91.1875,"x_max":675.109375,"ha":742,"o":"m 635 568 l 298 568 l 298 762 l 656 762 l 656 936 l 91 936 l 91 0 l 675 0 l 675 173 l 298 173 l 298 395 l 635 395 l 635 568 m 185 1162 b 375 987 187 1061 242 987 b 567 1162 506 987 564 1061 l 461 1162 b 375 1098 454 1129 432 1098 b 295 1162 318 1098 299 1131 l 185 1162 "},"ļ":{"x_min":47.625,"x_max":293.984375,"ha":382,"o":"m 83 0 l 289 0 l 289 987 l 83 987 l 83 0 m 78 -336 b 293 -163 197 -331 293 -279 b 240 -54 293 -115 268 -75 l 97 -77 b 137 -161 115 -98 137 -129 b 47 -245 137 -208 92 -237 l 78 -336 "},"":{"x_min":41.90625,"x_max":437.984375,"ha":490,"o":"m 281 298 l 281 381 b 437 538 382 400 437 463 b 292 695 437 616 397 662 b 188 759 207 722 188 734 b 255 800 188 779 202 800 b 384 769 319 800 364 779 l 412 875 b 284 902 384 887 335 901 l 284 972 l 195 972 l 195 897 b 47 743 100 879 47 819 b 205 590 47 658 108 622 b 295 527 276 566 295 554 b 218 483 295 498 269 483 b 69 522 160 483 109 500 l 41 412 b 192 375 75 394 133 377 l 192 298 l 281 298 "},"Ѓ":{"x_min":91.078125,"x_max":645.0625,"ha":679,"o":"m 91 936 l 91 0 l 297 0 l 297 762 l 645 762 l 645 936 l 91 936 m 372 1156 l 258 986 l 424 986 l 590 1156 l 372 1156 "},"ò":{"x_min":45.203125,"x_max":740.734375,"ha":801,"o":"m 390 -15 b 740 345 567 -15 740 98 b 401 694 740 551 604 694 b 45 334 186 694 45 554 b 389 -15 45 115 194 -15 l 390 -15 m 393 136 b 258 338 306 136 258 223 b 395 543 258 440 297 543 b 527 340 488 543 527 440 b 395 136 527 218 476 136 l 393 136 m 182 975 l 348 763 l 490 763 l 373 975 l 182 975 "},"ﬄ":{"x_min":19.0625,"x_max":1140.609375,"ha":1249,"o":"m 510 966 b 406 986 488 975 446 986 b 190 909 319 986 243 959 b 107 690 136 858 107 780 l 107 680 l 19 680 l 19 525 l 107 525 l 107 1 l 314 1 l 314 525 l 530 525 l 530 1 l 737 1 l 737 525 l 857 525 l 857 680 l 736 680 l 736 706 b 854 845 736 784 771 845 b 933 831 892 845 918 840 l 933 1 l 1140 1 l 1140 945 b 884 1002 1073 981 984 1002 b 631 926 778 1002 696 979 b 530 709 567 873 530 787 l 530 680 l 313 680 l 313 700 b 343 798 313 738 319 776 b 405 823 356 813 377 823 b 466 812 428 823 449 819 l 510 966 "},"^":{"x_min":59,"x_max":755,"ha":828,"o":"m 755 245 l 470 902 l 343 902 l 59 245 l 204 245 l 403 740 l 407 740 l 606 245 l 755 245 "},"":{"x_min":80.3125,"x_max":651.96875,"ha":779,"o":"m 80 -143 b 283 -175 118 -159 193 -175 b 651 98 476 -175 651 -72 b 457 297 651 213 563 280 l 457 300 b 620 490 548 322 620 398 b 347 694 620 616 507 694 b 91 625 249 694 148 665 l 126 486 b 298 531 167 506 235 531 b 413 452 371 531 413 504 b 231 354 413 391 332 361 l 193 351 l 194 204 b 268 206 215 205 242 206 b 438 102 372 206 438 166 b 261 -13 438 26 364 -13 b 102 9 197 -13 138 -4 l 80 -143 "},"∙":{"x_min":55.8125,"x_max":299.4375,"ha":361,"o":"m 176 231 b 299 359 250 231 299 286 b 178 488 298 436 249 488 b 55 359 106 488 55 436 b 175 231 55 286 106 231 l 176 231 "},"к":{"x_min":83.03125,"x_max":724.109375,"ha":736,"o":"m 83 679 l 83 0 l 289 0 l 289 269 l 310 269 b 447 150 377 269 419 227 b 507 0 473 77 490 29 l 724 0 b 643 200 691 63 666 144 b 476 386 605 298 555 372 l 721 679 l 480 679 l 311 408 l 289 408 l 289 679 l 83 679 "},"":{"x_min":81.671875,"x_max":381.109375,"ha":436,"o":"m 236 1012 b 81 450 164 904 83 720 b 236 -109 81 181 164 -1 l 381 -109 b 243 450 304 20 243 205 b 381 1012 243 698 304 884 l 236 1012 "},"ū":{"x_min":80.3125,"x_max":715.953125,"ha":810,"o":"m 710 679 l 503 679 l 503 275 b 495 229 503 256 500 241 b 392 155 483 195 449 155 b 287 313 318 155 287 215 l 287 679 l 80 679 l 80 280 b 314 -15 80 70 178 -15 b 522 95 434 -15 496 54 l 526 95 l 536 0 l 715 0 b 710 218 713 56 710 129 l 710 679 m 228 925 l 228 808 l 568 808 l 568 925 l 228 925 "},"ˆ":{"x_min":0,"x_max":410,"ha":417,"o":"m 136 975 l 0 763 l 134 763 l 204 884 l 207 884 l 275 763 l 410 763 l 275 975 l 136 975 "},"Ẅ":{"x_min":20.421875,"x_max":1190.96875,"ha":1233,"o":"m 465 0 l 552 401 b 605 691 574 497 589 586 l 608 691 b 651 402 619 584 634 497 l 729 0 l 954 0 l 1190 936 l 980 936 l 905 554 b 852 227 886 441 865 331 l 849 227 b 800 541 835 331 820 431 l 726 936 l 506 936 l 428 554 b 368 222 405 437 383 325 l 366 222 b 311 551 351 318 332 438 l 242 936 l 20 936 l 238 0 l 465 0 m 476 990 b 566 1084 528 990 566 1033 b 476 1180 566 1140 526 1180 b 382 1084 423 1180 382 1138 b 475 990 382 1033 423 990 l 476 990 m 758 990 b 849 1084 811 990 849 1033 b 758 1180 849 1140 809 1180 b 665 1084 705 1180 665 1138 b 756 990 665 1033 703 990 l 758 990 "},"č":{"x_min":44.8125,"x_max":583.8125,"ha":626,"o":"m 557 173 b 439 151 526 159 488 151 b 257 341 338 151 257 216 b 435 530 255 451 326 530 b 551 509 489 530 526 520 l 583 666 b 425 693 540 683 480 693 b 44 333 178 693 44 530 b 397 -13 44 120 182 -13 b 582 18 476 -13 545 0 l 557 173 m 436 763 l 572 975 l 436 975 l 368 854 l 366 854 l 296 975 l 161 975 l 296 763 l 436 763 "},"’":{"x_min":35,"x_max":323.5625,"ha":361,"o":"m 130 948 b 35 573 111 826 75 693 l 160 586 b 323 961 222 690 281 826 l 130 948 "},"Ν":{"x_min":90.09375,"x_max":849.59375,"ha":958,"o":"m 280 0 l 280 281 b 271 691 280 434 277 566 l 276 691 b 435 361 320 581 381 462 l 631 0 l 849 0 l 849 936 l 659 936 l 659 663 b 675 272 659 522 663 395 l 672 272 b 522 593 630 377 577 494 l 332 936 l 90 936 l 90 0 l 280 0 "},"-":{"x_min":40.828125,"x_max":397.4375,"ha":447,"o":"m 40 434 l 40 294 l 397 294 l 397 434 l 40 434 "},"Q":{"x_min":47.640625,"x_max":933.71875,"ha":996,"o":"m 933 2 b 713 55 861 16 782 34 l 713 61 b 929 479 833 116 929 266 b 496 951 929 734 775 951 b 47 459 221 951 47 741 b 449 -15 47 154 240 -1 b 511 -29 469 -16 491 -20 b 875 -161 635 -81 744 -122 l 933 2 m 488 152 b 266 466 349 152 266 287 b 490 783 266 643 348 783 b 710 470 631 783 710 641 b 490 152 710 287 630 152 l 488 152 "},"ј":{"x_min":-53.078125,"x_max":322.578125,"ha":404,"o":"m -32 -298 b 223 -215 65 -298 161 -272 b 317 81 285 -156 317 -66 l 317 679 l 110 679 l 110 131 b 69 -88 110 -2 99 -56 b -53 -133 43 -116 0 -129 l -32 -298 m 212 762 b 322 868 280 762 322 809 b 213 973 321 927 280 973 b 103 868 147 973 103 927 b 210 762 103 809 145 762 l 212 762 "},"ě":{"x_min":44.796875,"x_max":677.984375,"ha":733,"o":"m 671 272 b 677 355 673 287 677 319 b 381 694 677 523 596 694 b 44 331 150 694 44 504 b 400 -13 44 119 174 -13 b 641 29 490 -13 573 0 l 614 172 b 430 143 558 152 500 143 b 242 272 333 143 248 184 l 671 272 m 240 416 b 370 554 246 472 281 554 b 485 416 464 554 485 468 l 240 416 m 434 763 l 570 975 l 434 975 l 366 854 l 363 854 l 293 975 l 159 975 l 293 763 l 434 763 "},"œ":{"x_min":44.9375,"x_max":1142,"ha":1206,"o":"m 1136 276 b 1142 356 1137 290 1142 325 b 852 694 1142 522 1063 694 b 620 573 758 694 673 652 l 617 573 b 383 694 573 654 480 694 b 44 338 186 694 44 551 b 370 -15 44 116 190 -15 b 619 105 469 -15 563 22 l 623 105 b 868 -15 683 16 771 -15 b 1110 36 932 -15 1037 -5 l 1082 177 b 897 141 1027 156 975 141 b 715 276 800 141 721 193 l 1136 276 m 394 543 b 524 341 484 543 524 447 b 392 136 524 218 476 136 b 258 340 306 136 258 225 b 393 543 258 434 289 543 l 394 543 m 713 419 b 834 552 714 472 750 552 b 950 419 935 552 950 466 l 713 419 "},"":{"x_min":54.125,"x_max":683,"ha":750,"o":"m 54 44 b 303 -13 114 11 224 -13 b 307 -13 305 -13 307 -13 l 258 -113 b 364 -163 333 -119 364 -137 b 317 -200 364 -190 341 -200 b 241 -177 293 -200 265 -191 l 214 -255 b 325 -283 240 -272 280 -283 b 490 -159 409 -283 490 -250 b 392 -59 490 -105 443 -66 l 422 -4 b 683 276 600 29 683 144 b 446 555 683 408 608 494 b 276 687 326 601 276 627 b 409 777 276 734 319 777 b 600 733 498 777 564 751 l 646 902 b 412 950 591 929 517 950 b 65 669 197 950 65 829 b 318 391 65 533 165 447 b 472 261 428 352 472 319 b 326 159 472 200 421 159 b 96 218 238 159 150 188 l 54 44 "},"":{"x_min":31.3125,"x_max":458.6875,"ha":501,"o":"m 247 548 b 49 394 136 548 49 487 b 130 276 49 345 78 301 l 130 273 b 31 143 72 248 31 208 b 239 -6 31 77 88 -6 b 458 159 377 -6 458 63 b 356 290 458 231 404 272 l 356 293 b 436 408 406 315 436 358 b 249 548 436 476 378 548 l 247 548 m 245 93 b 174 158 202 93 174 125 b 235 229 174 193 196 215 b 313 152 273 219 313 197 b 246 93 313 116 284 93 l 245 93 m 243 451 b 304 391 284 451 304 423 b 254 330 304 362 281 338 b 182 397 210 344 182 366 b 242 451 182 427 204 451 l 243 451 "},"#":{"x_min":49.953125,"x_max":699.03125,"ha":764,"o":"m 303 376 l 324 533 l 448 533 l 428 376 l 303 376 m 248 0 l 282 248 l 406 248 l 371 0 l 493 0 l 527 248 l 660 248 l 660 376 l 549 376 l 569 533 l 699 533 l 699 661 l 590 661 l 624 902 l 503 902 l 469 661 l 343 661 l 377 902 l 258 902 l 222 661 l 89 661 l 89 533 l 203 533 l 181 376 l 49 376 l 49 248 l 161 248 l 126 0 l 248 0 "},"Џ":{"x_min":91.1875,"x_max":827.5625,"ha":936,"o":"m 91 936 l 91 0 l 363 0 l 374 -255 l 544 -255 l 555 0 l 827 0 l 827 936 l 620 936 l 620 173 l 298 173 l 298 936 l 91 936 "},"":{"x_min":-19,"x_max":313,"ha":417,"o":"m -19 1158 l 147 988 l 313 988 l 198 1158 l -19 1158 "},"Å":{"x_min":23.171875,"x_max":860.25,"ha":911,"o":"m 566 240 l 637 0 l 860 0 l 574 936 l 303 936 l 23 0 l 238 0 l 302 240 l 566 240 m 332 398 l 387 597 b 428 777 401 651 416 722 l 432 777 b 477 597 446 723 462 652 l 534 398 l 332 398 m 442 1245 b 285 1108 341 1245 285 1183 b 442 975 285 1034 344 975 b 597 1109 539 975 597 1034 b 443 1245 597 1184 545 1245 l 442 1245 m 441 1175 b 500 1109 479 1175 500 1143 b 441 1045 500 1073 479 1045 b 381 1108 402 1045 381 1076 b 439 1175 381 1143 401 1175 l 441 1175 "},"ș":{"x_min":44.890625,"x_max":546.953125,"ha":603,"o":"m 44 34 b 259 -13 95 6 172 -13 b 546 206 450 -13 546 79 b 367 415 545 305 493 370 b 259 493 285 443 259 461 b 338 547 259 526 288 547 b 483 509 394 547 453 525 l 518 654 b 332 694 477 675 409 694 b 61 470 167 694 61 598 b 251 268 59 391 112 315 b 348 190 327 243 348 225 b 259 134 348 155 322 134 b 81 184 198 134 119 161 l 44 34 m 198 -336 b 413 -163 317 -331 413 -279 b 360 -54 413 -115 387 -75 l 217 -77 b 257 -161 235 -98 257 -129 b 167 -245 257 -208 212 -237 l 198 -336 "},"₈":{"x_min":31.3125,"x_max":458.6875,"ha":501,"o":"m 247 344 b 49 190 136 344 49 283 b 130 72 49 141 78 97 l 130 69 b 31 -61 72 44 31 4 b 239 -211 31 -126 88 -211 b 458 -44 377 -211 458 -140 b 356 86 458 27 404 68 l 356 88 b 436 204 406 111 436 154 b 249 344 436 272 378 344 l 247 344 m 245 -111 b 174 -45 202 -111 174 -79 b 235 25 174 -11 196 11 b 313 -51 273 15 313 -6 b 246 -111 313 -87 284 -111 l 245 -111 m 243 247 b 304 187 284 247 304 219 b 254 126 304 158 281 134 b 182 193 210 140 182 162 b 242 247 182 223 204 247 l 243 247 "},"¸":{"x_min":62.234375,"x_max":337.171875,"ha":417,"o":"m 164 5 l 105 -113 b 211 -163 180 -119 211 -137 b 164 -200 211 -190 187 -200 b 89 -177 142 -200 112 -191 l 62 -255 b 171 -283 89 -272 127 -283 b 337 -162 258 -283 337 -252 b 239 -61 337 -105 289 -68 l 275 5 l 164 5 "},"=":{"x_min":54.4375,"x_max":756.78125,"ha":828,"o":"m 756 451 l 756 580 l 54 580 l 54 451 l 756 451 m 756 163 l 756 293 l 54 293 l 54 163 l 756 163 "},"ρ":{"x_min":77.578125,"x_max":759.5,"ha":821,"o":"m 287 51 b 450 -15 318 11 377 -15 b 759 343 601 -15 759 104 b 430 694 759 552 628 694 b 204 613 338 694 266 666 b 77 273 140 558 77 470 l 77 -34 b 93 -275 77 -131 83 -240 l 294 -275 b 284 -36 284 -222 284 -116 l 284 51 l 287 51 m 284 322 b 419 520 284 451 343 520 b 549 338 500 520 549 445 b 409 147 549 229 499 147 b 288 230 349 147 302 190 b 284 272 285 244 284 256 l 284 322 "},"Ћ":{"x_min":20.421875,"x_max":910.578125,"ha":1014,"o":"m 20 936 l 20 762 l 257 762 l 257 0 l 464 0 l 464 416 b 585 458 495 441 539 458 b 671 423 623 458 651 445 b 703 306 695 397 703 356 l 703 0 l 910 0 l 910 334 b 842 556 910 429 888 505 b 662 629 801 602 741 629 b 468 573 589 629 514 602 l 464 573 l 464 762 l 770 762 l 770 936 l 20 936 "},"ú":{"x_min":80.3125,"x_max":715.953125,"ha":810,"o":"m 710 679 l 503 679 l 503 275 b 495 229 503 256 500 241 b 392 155 483 195 449 155 b 287 313 318 155 287 215 l 287 679 l 80 679 l 80 280 b 314 -15 80 70 178 -15 b 522 95 434 -15 496 54 l 526 95 l 536 0 l 715 0 b 710 218 713 56 710 129 l 710 679 m 430 975 l 313 763 l 454 763 l 620 975 l 430 975 "},"˚":{"x_min":115.6875,"x_max":427.390625,"ha":556,"o":"m 273 1022 b 115 883 171 1022 115 961 b 273 748 115 806 175 748 b 427 884 367 748 427 806 b 274 1022 427 962 372 1022 l 273 1022 m 272 952 b 334 884 313 952 334 919 b 272 818 334 848 311 818 b 210 883 234 818 210 851 b 270 952 210 919 231 952 l 272 952 "},"д":{"x_min":13.3125,"x_max":775.53125,"ha":819,"o":"m 171 679 l 171 512 b 141 290 171 437 160 361 b 75 148 126 240 103 191 l 13 143 l 18 -219 l 175 -219 l 183 0 l 604 0 l 610 -219 l 767 -219 l 775 145 l 702 148 l 702 679 l 171 679 m 350 525 l 500 525 l 500 152 l 280 152 b 326 269 299 188 316 229 b 350 445 341 327 350 388 l 350 525 "},"¯":{"x_min":35.390625,"x_max":375.671875,"ha":417,"o":"m 35 925 l 35 808 l 375 808 l 375 925 l 35 925 "},"":{"x_min":80.3125,"x_max":326.671875,"ha":417,"o":"m 111 -335 b 326 -163 230 -331 326 -279 b 273 -54 326 -115 300 -74 l 130 -77 b 170 -160 148 -98 170 -129 b 80 -245 170 -208 125 -237 l 111 -335 "},"u":{"x_min":80.3125,"x_max":715.953125,"ha":810,"o":"m 710 679 l 503 679 l 503 275 b 495 229 503 256 500 241 b 392 155 483 195 449 155 b 287 313 318 155 287 215 l 287 679 l 80 679 l 80 280 b 314 -15 80 70 178 -15 b 522 95 434 -15 496 54 l 526 95 l 536 0 l 715 0 b 710 218 713 56 710 129 l 710 679 "},"З":{"x_min":39.46875,"x_max":691.453125,"ha":756,"o":"m 104 726 b 306 780 156 752 235 780 b 445 677 394 780 445 740 b 280 559 445 602 374 559 l 194 559 l 194 404 l 281 404 b 473 280 367 404 473 383 b 304 156 473 202 409 156 b 83 213 219 156 123 191 l 39 50 b 314 -15 115 5 219 -15 b 691 266 485 -15 691 56 b 477 487 691 391 592 472 l 477 490 b 661 711 583 516 661 594 b 343 951 661 848 543 951 b 57 876 215 951 119 915 l 104 726 "},"Α":{"x_min":23,"x_max":860,"ha":911,"o":"m 566 240 l 636 0 l 860 0 l 574 936 l 303 936 l 23 0 l 238 0 l 302 240 l 566 240 m 331 398 l 387 597 b 428 777 401 651 416 722 l 432 777 b 477 597 446 723 462 652 l 534 398 l 331 398 "},"":{"x_min":31,"x_max":593,"ha":646,"o":"m 192 454 l 31 190 l 173 190 l 331 454 l 172 719 l 31 719 l 192 454 m 454 454 l 292 190 l 433 190 l 593 454 l 433 719 l 292 719 l 454 454 "},"":{"x_min":45,"x_max":711,"ha":771,"o":"m 253 333 b 241 452 243 373 241 412 b 378 758 241 648 294 758 b 468 701 422 758 452 736 l 253 333 m 505 575 b 514 452 512 530 514 493 b 377 144 514 247 461 144 b 287 200 336 144 309 162 l 505 575 m 706 888 l 626 946 l 569 854 b 381 918 521 895 459 918 b 45 450 152 918 45 716 b 119 129 45 326 69 210 l 51 28 l 130 -31 l 183 53 b 377 -14 234 10 298 -14 b 711 455 600 -14 711 176 b 634 779 711 577 689 694 l 706 888 "},"é":{"x_min":44.640625,"x_max":677.984375,"ha":733,"o":"m 671 272 b 677 355 673 287 677 319 b 380 694 677 523 596 694 b 44 331 150 694 44 504 b 400 -13 44 119 174 -13 b 641 29 489 -13 573 0 l 613 172 b 430 143 558 152 500 143 b 242 272 333 143 248 184 l 671 272 m 240 416 b 370 554 246 472 281 554 b 485 416 464 554 485 468 l 240 416 m 409 975 l 292 763 l 434 763 l 600 975 l 409 975 "},"Ş":{"x_min":54.125,"x_max":683,"ha":750,"o":"m 54 44 b 303 -13 114 11 224 -13 b 307 -13 305 -13 307 -13 l 258 -113 b 364 -163 333 -119 364 -137 b 317 -200 364 -190 341 -200 b 241 -177 293 -200 265 -191 l 214 -255 b 325 -283 240 -272 280 -283 b 490 -159 409 -283 490 -250 b 392 -59 490 -105 443 -66 l 422 -4 b 683 276 600 29 683 144 b 446 555 683 408 608 494 b 276 687 326 601 276 627 b 409 777 276 734 319 777 b 600 733 498 777 564 751 l 646 902 b 412 950 591 929 517 950 b 65 669 197 950 65 829 b 318 391 65 533 165 447 b 472 261 428 352 472 319 b 326 159 472 200 421 159 b 96 218 238 159 150 188 l 54 44 "},"B":{"x_min":89.828125,"x_max":770.390625,"ha":839,"o":"m 89 4 b 314 -9 136 -2 212 -9 b 675 75 496 -9 608 20 b 770 273 732 120 770 187 b 588 504 770 394 692 476 l 588 506 b 737 705 690 547 737 623 b 628 890 737 791 692 855 b 357 943 562 930 484 943 b 89 922 253 943 144 933 l 89 4 m 295 781 b 383 788 311 786 337 788 b 530 680 477 788 530 751 b 363 565 530 611 473 565 l 295 565 l 295 781 m 295 413 l 366 413 b 552 281 469 413 552 376 b 375 145 552 183 469 145 b 295 150 340 145 315 145 l 295 413 "},"…":{"x_min":104.8125,"x_max":1257.671875,"ha":1389,"o":"m 225 -15 b 348 112 299 -15 348 38 b 227 241 347 190 298 241 b 104 112 155 241 104 188 b 224 -15 104 38 155 -15 l 225 -15 m 680 -15 b 803 112 754 -15 803 38 b 681 241 801 190 752 241 b 559 112 609 241 559 188 b 679 -15 559 38 609 -15 l 680 -15 m 1135 -15 b 1257 112 1208 -15 1257 38 b 1136 241 1256 190 1207 241 b 1014 112 1064 241 1014 188 b 1133 -15 1014 38 1064 -15 l 1135 -15 "},"H":{"x_min":91.1875,"x_max":846.609375,"ha":957,"o":"m 91 936 l 91 0 l 298 0 l 298 390 l 639 390 l 639 0 l 846 0 l 846 936 l 639 936 l 639 575 l 298 575 l 298 936 l 91 936 "},"î":{"x_min":-17.6875,"x_max":392,"ha":381,"o":"m 289 0 l 289 679 l 83 679 l 83 0 l 289 0 m 118 975 l -17 763 l 117 763 l 186 884 l 189 884 l 257 763 l 392 763 l 257 975 l 118 975 "},"ν":{"x_min":-1.359375,"x_max":668.3125,"ha":708,"o":"m -1 679 l 230 0 l 430 0 b 668 626 553 208 668 433 b 664 679 668 645 666 662 l 469 679 b 470 625 470 659 470 644 b 357 195 470 480 411 312 l 352 195 b 310 363 337 252 326 306 l 221 679 l -1 679 "},"Ό":{"x_min":0,"x_max":1030.359375,"ha":1100,"o":"m 581 -15 b 1030 477 849 -15 1030 169 b 594 951 1030 736 876 951 b 148 461 325 951 148 741 b 579 -15 148 194 308 -15 l 581 -15 m 589 152 b 367 466 450 152 367 290 b 590 783 367 641 447 783 b 811 470 733 783 811 638 b 590 152 811 287 730 152 l 589 152 m 2 936 l 0 694 l 118 694 l 168 936 l 2 936 "},"":{"x_min":3,"x_max":407.25,"ha":417,"o":"m 3 1173 b 200 1002 13 1056 81 1002 b 407 1173 321 1002 399 1055 l 267 1173 b 204 1088 262 1119 245 1088 b 143 1173 160 1088 145 1119 l 3 1173 "},"−":{"x_min":54.4375,"x_max":756.78125,"ha":828,"o":"m 54 436 l 54 306 l 756 306 l 756 436 l 54 436 "},"ā":{"x_min":38.953125,"x_max":647.375,"ha":733,"o":"m 636 401 b 345 694 636 561 567 694 b 86 633 224 694 132 659 l 124 498 b 308 548 168 525 240 548 b 429 461 410 548 429 497 l 429 452 b 38 193 194 452 38 369 b 254 -15 38 84 119 -15 b 444 68 332 -15 401 13 l 448 68 l 460 0 l 647 0 b 636 163 639 37 636 100 l 636 401 m 436 247 b 432 211 436 234 435 222 b 324 133 418 168 375 133 b 243 213 278 133 243 159 b 436 320 243 294 327 320 l 436 247 m 190 925 l 190 808 l 530 808 l 530 925 l 190 925 "},"ĵ":{"x_min":-53.078125,"x_max":402.890625,"ha":404,"o":"m -32 -298 b 223 -215 65 -298 161 -272 b 317 81 285 -156 317 -66 l 317 679 l 110 679 l 110 131 b 69 -88 110 -2 99 -56 b -53 -133 43 -116 0 -129 l -32 -298 m 137 972 l 4 761 l 133 761 l 201 880 l 204 880 l 272 761 l 402 761 l 268 972 l 137 972 "},"Ĩ":{"x_min":3.953125,"x_max":385.328125,"ha":396,"o":"m 91 936 l 91 0 l 298 0 l 298 936 l 91 936 m 99 993 b 132 1052 102 1033 114 1052 b 190 1027 151 1052 166 1041 b 279 1001 215 1013 242 1001 b 385 1175 349 1001 387 1050 l 292 1175 b 255 1115 287 1127 279 1115 b 196 1141 238 1115 219 1127 b 108 1169 171 1156 145 1169 b 4 993 43 1169 1 1109 l 99 993 "},"*":{"x_min":41.046875,"x_max":578.953125,"ha":631,"o":"m 388 951 l 309 739 l 306 739 l 231 951 l 110 880 l 253 705 l 253 703 l 41 747 l 41 607 l 254 645 l 256 643 l 110 469 l 227 397 l 305 611 l 307 613 l 386 397 l 506 469 l 359 640 l 359 644 l 578 607 l 578 747 l 361 703 l 361 705 l 506 881 l 388 951 "},"ă":{"x_min":38.953125,"x_max":647.375,"ha":733,"o":"m 636 401 b 345 694 636 561 567 694 b 86 633 224 694 132 659 l 124 498 b 308 548 168 525 240 548 b 429 461 410 548 429 497 l 429 452 b 38 193 194 452 38 369 b 254 -15 38 84 119 -15 b 444 68 332 -15 401 13 l 448 68 l 460 0 l 647 0 b 636 163 639 37 636 100 l 636 401 m 436 247 b 432 211 436 234 435 222 b 324 133 418 168 375 133 b 243 213 278 133 243 159 b 436 320 243 294 327 320 l 436 247 m 169 961 b 358 763 170 850 232 763 b 548 961 481 763 546 844 l 440 961 b 357 876 437 916 413 876 b 277 961 309 876 285 911 l 169 961 "},"Χ":{"x_min":22,"x_max":813,"ha":851,"o":"m 813 0 l 540 479 l 799 936 l 562 936 l 484 765 b 422 609 461 711 444 669 l 419 609 b 350 765 397 662 377 708 l 269 936 l 31 936 l 287 473 l 22 0 l 258 0 l 333 169 b 405 337 365 234 386 283 l 408 337 b 490 169 434 283 456 234 l 573 0 l 813 0 "},"†":{"x_min":46.28125,"x_max":665.578125,"ha":728,"o":"m 261 936 l 280 656 l 46 673 l 46 509 l 280 526 l 261 -69 l 450 -69 l 431 526 l 665 509 l 665 673 l 431 656 l 450 936 l 261 936 "},"°":{"x_min":36.75,"x_max":450.53125,"ha":494,"o":"m 243 951 b 36 744 127 951 35 859 b 242 543 36 633 122 543 b 450 748 353 543 450 629 b 245 951 450 856 367 951 l 243 951 m 243 854 b 341 747 307 854 341 801 b 243 640 341 686 300 640 b 145 745 187 640 145 686 b 242 854 145 802 183 854 l 243 854 "},"Ξ":{"x_min":57.171875,"x_max":730.921875,"ha":797,"o":"m 76 936 l 76 763 l 711 763 l 711 936 l 76 936 m 118 565 l 118 394 l 668 394 l 668 565 l 118 565 m 57 173 l 57 0 l 730 0 l 730 173 l 57 173 "},"Ķ":{"x_min":90.6875,"x_max":840.65625,"ha":853,"o":"m 90 0 l 296 0 l 296 305 l 373 404 l 599 0 l 840 0 l 522 537 l 825 936 l 569 936 l 362 625 b 298 522 341 591 319 558 l 296 522 l 296 936 l 90 936 l 90 0 m 328 -333 b 543 -162 447 -329 543 -277 b 490 -52 543 -112 518 -73 l 347 -76 b 387 -159 365 -97 387 -127 b 297 -244 387 -206 342 -234 l 328 -333 "},"ŵ":{"x_min":15,"x_max":1020,"ha":1054,"o":"m 15 679 l 209 0 l 404 0 l 471 238 b 513 450 487 301 501 365 l 516 450 b 559 237 529 365 542 304 l 622 0 l 815 0 l 1020 679 l 817 679 l 761 409 b 721 177 744 331 731 254 l 719 177 b 670 408 706 255 689 330 l 603 679 l 439 679 l 369 398 b 321 177 354 331 333 254 l 317 177 b 280 400 306 255 292 330 l 226 679 l 15 679 m 449 975 l 313 763 l 448 763 l 517 884 l 520 884 l 588 763 l 723 763 l 588 975 l 449 975 "},"΄":{"x_min":114,"x_max":359,"ha":421,"o":"m 176 975 l 114 763 l 248 763 l 359 975 l 176 975 "},"ǽ":{"x_min":39.046875,"x_max":1052.9375,"ha":1115,"o":"m 1047 281 b 1052 358 1048 298 1052 330 b 773 694 1052 520 971 694 b 546 584 675 694 597 654 l 542 584 b 322 694 502 654 430 694 b 86 630 223 694 135 658 l 127 497 b 304 548 168 522 236 548 b 432 466 411 548 432 486 l 432 447 b 39 197 197 448 39 363 b 269 -15 39 81 123 -15 b 517 105 385 -15 465 33 l 521 105 b 776 -15 567 27 666 -15 b 1021 36 859 -15 948 -2 l 993 176 b 806 140 941 155 889 140 b 626 281 701 140 629 194 l 1047 281 m 438 245 b 432 204 438 230 437 215 b 326 131 416 165 379 131 b 242 212 280 131 242 159 b 438 318 242 290 326 319 l 438 245 m 625 425 b 749 555 626 473 661 555 b 862 425 844 555 863 468 l 625 425 m 565 975 l 447 763 l 589 763 l 755 975 l 565 975 "},"Β":{"x_min":89.828125,"x_max":770.390625,"ha":839,"o":"m 89 4 b 314 -9 136 -2 212 -9 b 675 75 496 -9 608 20 b 770 273 732 120 770 187 b 588 504 770 394 692 476 l 588 506 b 737 705 690 547 737 623 b 628 890 737 791 692 855 b 357 943 562 930 484 943 b 89 922 253 943 144 933 l 89 4 m 295 781 b 383 788 311 786 337 788 b 530 680 477 788 530 751 b 363 565 530 611 473 565 l 295 565 l 295 781 m 295 413 l 366 413 b 552 281 469 413 552 376 b 375 145 552 183 469 145 b 295 150 340 145 315 145 l 295 413 "},"Ļ":{"x_min":91.109375,"x_max":662.765625,"ha":710,"o":"m 91 0 l 662 0 l 662 177 l 298 177 l 298 936 l 91 936 l 91 0 m 259 -334 b 474 -163 378 -330 474 -279 b 421 -54 474 -113 449 -75 l 278 -77 b 318 -161 296 -98 318 -129 b 228 -245 318 -208 273 -236 l 259 -334 "},"Õ":{"x_min":47.640625,"x_max":929.640625,"ha":996,"o":"m 480 -15 b 929 477 748 -15 929 169 b 494 951 929 736 775 951 b 47 461 224 951 47 741 b 479 -15 47 194 208 -15 l 480 -15 m 488 152 b 266 466 349 152 266 290 b 490 783 266 641 347 783 b 710 470 632 783 710 638 b 490 152 710 287 630 152 l 488 152 m 393 993 b 426 1052 396 1033 408 1052 b 484 1027 445 1052 460 1041 b 573 1001 509 1013 536 1001 b 679 1175 643 1001 681 1050 l 586 1175 b 549 1115 581 1127 573 1115 b 490 1141 532 1115 513 1127 b 402 1169 465 1156 439 1169 b 298 993 337 1169 295 1109 l 393 993 "},"№":{"x_min":88.3125,"x_max":1283.375,"ha":1346,"o":"m 1047 883 b 805 634 904 883 805 787 b 1043 393 805 481 907 393 b 1283 643 1173 393 1283 468 b 1049 883 1283 783 1193 883 l 1047 883 m 1045 779 b 1124 638 1099 779 1124 708 b 1045 497 1124 556 1098 497 b 966 636 998 497 966 556 b 1043 779 966 698 989 779 l 1045 779 m 1246 234 l 1246 338 l 845 338 l 845 234 l 1246 234 m 266 0 l 266 258 b 258 656 266 412 262 543 l 261 656 b 379 345 299 555 338 440 l 532 0 l 740 0 l 740 904 l 561 904 l 561 652 b 576 266 561 509 567 381 l 575 266 b 458 569 540 363 498 476 l 312 904 l 88 904 l 88 0 l 266 0 "},"χ":{"x_min":0,"x_max":685,"ha":700,"o":"m 6 677 l 235 215 l 0 -268 l 175 -315 l 273 -90 b 325 38 298 -34 311 6 l 332 38 l 488 -315 l 685 -269 l 453 216 l 683 677 l 486 677 l 409 490 b 363 370 390 444 377 406 l 358 370 l 228 677 l 6 677 "},"":{"x_min":-10.421875,"x_max":206,"ha":239,"o":"m 90 -84 b 206 170 137 -6 176 77 l 54 163 b -10 -93 41 77 19 -6 l 90 -84 "},"ί":{"x_min":83.015625,"x_max":362.046875,"ha":389,"o":"m 176 973 l 114 762 l 251 762 l 362 973 l 176 973 m 289 679 l 83 679 l 83 191 b 254 -15 83 30 146 -15 b 341 -1 285 -15 323 -9 l 351 145 b 289 212 308 143 289 161 l 289 679 "},"Ζ":{"x_min":32.671875,"x_max":744.53125,"ha":801,"o":"m 32 0 l 744 0 l 744 175 l 310 175 l 310 180 l 737 813 l 737 936 l 72 936 l 72 761 l 469 761 l 469 756 l 32 113 l 32 0 "},"Ľ":{"x_min":91.1875,"x_max":662.859375,"ha":710,"o":"m 91 0 l 662 0 l 662 177 l 298 177 l 298 935 l 91 935 l 91 0 m 401 673 b 616 844 519 677 616 729 b 563 954 616 894 590 933 l 420 930 b 460 847 438 909 460 879 b 370 762 460 799 415 772 l 401 673 "},"ť":{"x_min":23.140625,"x_max":592.078125,"ha":515,"o":"m 111 806 l 111 679 l 23 679 l 23 523 l 111 523 l 111 245 b 168 44 111 150 130 84 b 325 -13 202 9 258 -13 b 458 4 382 -13 431 -5 l 455 163 b 394 158 436 159 424 158 b 314 277 333 158 314 195 l 314 523 l 462 523 l 462 679 l 314 679 l 314 863 l 111 806 m 446 745 b 592 919 500 759 592 815 b 548 1015 592 959 570 998 l 416 993 b 441 918 430 973 441 945 b 396 822 441 879 421 840 l 446 745 "},"5":{"x_min":57.171875,"x_max":683.28125,"ha":771,"o":"m 647 902 l 160 902 l 103 429 b 221 437 138 434 172 437 b 470 287 398 437 470 380 b 294 150 470 191 379 150 b 95 194 213 150 133 175 l 57 36 b 303 -15 106 9 196 -15 b 683 301 541 -15 683 133 b 575 527 683 406 642 481 b 343 593 514 573 427 593 b 285 590 321 593 304 591 l 304 729 l 647 729 l 647 902 "},"o":{"x_min":44.921875,"x_max":740.453125,"ha":801,"o":"m 390 -15 b 740 345 567 -15 740 98 b 401 694 740 551 604 694 b 44 334 186 694 44 554 b 389 -15 44 115 194 -15 l 390 -15 m 393 136 b 258 338 306 136 258 223 b 394 543 258 440 296 543 b 526 340 488 543 526 440 b 394 136 526 218 476 136 l 393 136 "},"Ѕ":{"x_min":54.171875,"x_max":683,"ha":750,"o":"m 54 44 b 314 -13 105 15 209 -13 b 683 276 565 -13 683 119 b 446 555 683 408 608 494 b 276 687 326 601 276 627 b 409 777 276 734 319 777 b 599 733 497 777 564 751 l 646 902 b 412 950 591 929 516 950 b 65 669 197 950 65 829 b 318 391 65 533 165 447 b 472 261 428 352 472 319 b 326 159 472 200 421 159 b 96 218 237 159 150 188 l 54 44 "},"d":{"x_min":44.90625,"x_max":733.640625,"ha":828,"o":"m 521 986 l 521 616 l 518 616 b 343 693 488 662 426 693 b 44 331 183 693 43 559 b 329 -16 44 120 171 -16 b 537 97 415 -16 496 22 l 541 97 l 549 -1 l 733 -1 b 728 201 730 44 728 125 l 728 986 l 521 986 m 521 300 b 517 252 521 283 519 266 b 396 151 504 193 455 151 b 254 337 310 151 254 223 b 397 530 254 444 302 530 b 518 427 461 530 506 484 b 521 388 521 415 521 401 l 521 300 "},",":{"x_min":0.671875,"x_max":311,"ha":361,"o":"m 139 -154 b 311 241 204 -45 266 100 l 100 227 b 0 -166 80 101 44 -43 l 139 -154 "},"":{"x_min":31.03125,"x_max":432.5625,"ha":463,"o":"m 31 909 l 31 791 l 280 791 l 280 790 l 54 369 l 207 369 l 432 820 l 432 909 l 31 909 "},"\"":{"x_min":49,"x_max":492.71875,"ha":551,"o":"m 49 961 l 78 584 l 201 584 l 231 961 l 49 961 m 310 961 l 340 584 l 462 584 l 492 961 l 310 961 "},"ľ":{"x_min":83.03125,"x_max":524.03125,"ha":396,"o":"m 83 0 l 289 0 l 289 987 l 83 987 l 83 0 m 436 689 b 524 891 458 712 524 775 b 480 1003 524 943 502 986 l 351 980 b 378 884 366 955 378 921 b 340 744 378 832 360 783 l 436 689 "},"":{"x_min":49,"x_max":394.71875,"ha":458,"o":"m 311 -211 l 311 -134 b 394 -115 343 -131 372 -126 l 377 -12 b 298 -26 356 -20 329 -26 b 194 76 243 -26 194 5 b 296 177 194 138 232 177 b 367 163 326 177 349 172 l 389 269 b 311 284 363 279 334 284 l 311 356 l 221 356 l 221 280 b 49 69 106 258 49 168 b 95 -66 49 16 65 -31 b 221 -131 125 -100 167 -123 l 221 -211 l 311 -211 "},"ė":{"x_min":44.640625,"x_max":677.984375,"ha":733,"o":"m 671 272 b 677 355 673 287 677 319 b 380 694 677 523 596 694 b 44 331 150 694 44 504 b 400 -13 44 119 174 -13 b 641 29 489 -13 573 0 l 613 172 b 430 143 558 152 500 143 b 242 272 333 143 248 184 l 671 272 m 240 416 b 370 554 246 472 281 554 b 485 416 464 554 485 468 l 240 416 m 368 773 b 461 870 421 773 461 818 b 368 969 461 927 421 969 b 271 870 314 969 271 927 b 367 773 271 818 312 773 l 368 773 "},"Í":{"x_min":91,"x_max":424.46875,"ha":396,"o":"m 91 936 l 91 0 l 297 0 l 297 936 l 91 936 m 206 1156 l 92 986 l 258 986 l 424 1156 l 206 1156 "},"":{"x_min":34.03125,"x_max":443.71875,"ha":572,"o":"m 443 0 l 443 679 l 277 679 l 34 570 l 68 413 l 240 494 l 243 494 l 243 0 l 443 0 "},"":{"x_min":5.4375,"x_max":632.921875,"ha":685,"o":"m 632 0 l 632 173 l 298 173 l 298 176 l 379 245 b 615 634 509 362 615 483 b 304 918 615 798 506 918 b 16 825 186 918 81 876 l 74 675 b 264 748 121 709 187 748 b 408 616 366 748 408 690 b 118 231 406 511 313 409 l 5 127 l 5 0 l 632 0 "},"⁾":{"x_min":24.5,"x_max":221.859375,"ha":283,"o":"m 127 543 b 221 873 168 606 221 716 b 127 1205 221 1033 168 1144 l 24 1205 b 104 875 63 1133 104 1018 b 24 543 104 730 63 619 l 127 543 "},"Ú":{"x_min":89.828125,"x_max":838.453125,"ha":947,"o":"m 89 936 l 89 413 b 455 -15 89 116 224 -15 b 838 411 695 -15 838 122 l 838 936 l 631 936 l 631 398 b 462 154 631 231 571 154 b 296 398 357 154 296 236 l 296 936 l 89 936 m 473 1156 l 359 986 l 525 986 l 691 1156 l 473 1156 "},"":{"x_min":49,"x_max":394.71875,"ha":458,"o":"m 311 362 l 311 438 b 394 458 343 441 372 447 l 377 561 b 298 547 356 552 329 547 b 194 650 243 547 194 579 b 296 751 194 712 232 751 b 367 737 326 751 349 745 l 389 843 b 311 858 363 852 334 858 l 311 930 l 221 930 l 221 854 b 49 643 106 831 49 741 b 95 506 49 590 65 541 b 221 441 125 473 167 450 l 221 362 l 311 362 "},"Ŷ":{"x_min":12.25,"x_max":811.21875,"ha":838,"o":"m 509 0 l 509 390 l 811 936 l 578 936 l 485 711 b 416 531 458 644 436 590 l 413 531 b 343 711 392 593 371 643 l 250 936 l 12 936 l 302 383 l 302 0 l 509 0 m 333 1156 l 197 986 l 341 986 l 409 1072 l 412 1072 l 480 986 l 626 986 l 488 1156 l 333 1156 "},"":{"x_min":39.46875,"x_max":724.109375,"ha":779,"o":"m 724 43 l 724 197 l 617 197 l 617 681 l 364 681 l 39 179 l 39 43 l 426 43 l 426 -173 l 617 -173 l 617 43 l 724 43 m 426 197 l 230 197 l 227 202 l 340 372 b 424 531 370 420 400 480 l 430 531 b 426 376 426 481 426 427 l 426 197 "},"Ý":{"x_min":12.09375,"x_max":811.0625,"ha":838,"o":"m 508 0 l 508 390 l 811 936 l 578 936 l 485 711 b 416 531 458 644 436 590 l 413 531 b 342 711 391 593 371 643 l 250 936 l 12 936 l 302 383 l 302 0 l 508 0 m 435 1154 l 321 983 l 487 983 l 653 1154 l 435 1154 "},"ŝ":{"x_min":44.71875,"x_max":546.953125,"ha":603,"o":"m 44 34 b 259 -13 95 6 172 -13 b 546 206 450 -13 546 79 b 367 415 545 305 493 370 b 259 493 285 443 259 461 b 338 547 259 526 288 547 b 482 509 394 547 453 525 l 518 654 b 331 694 477 675 409 694 b 61 470 167 694 61 598 b 251 268 59 391 112 315 b 348 190 327 243 348 225 b 259 134 348 155 322 134 b 81 184 198 134 119 161 l 44 34 m 231 975 l 95 763 l 229 763 l 299 884 l 301 884 l 370 763 l 504 763 l 370 975 l 231 975 "},"₁":{"x_min":29.9375,"x_max":319.859375,"ha":417,"o":"m 319 -204 l 319 337 l 181 337 l 29 270 l 50 156 l 159 205 l 160 205 l 160 -204 l 319 -204 "},"ą":{"x_min":38.953125,"x_max":700,"ha":733,"o":"m 637 401 b 345 694 637 561 567 694 b 86 633 224 694 132 659 l 124 498 b 309 548 168 525 240 548 b 430 461 411 548 430 497 l 430 452 b 38 193 194 452 38 369 b 254 -15 38 84 119 -15 b 445 68 333 -15 401 13 l 449 68 l 461 1 b 416 -162 448 -29 416 -91 b 557 -304 416 -255 475 -304 b 700 -256 604 -304 655 -291 l 671 -156 b 611 -170 653 -165 634 -170 b 546 -98 573 -170 546 -145 b 574 0 546 -63 561 -25 l 648 0 b 637 165 640 37 637 98 l 637 401 m 437 247 b 433 211 437 234 435 222 b 325 133 419 168 375 133 b 243 213 278 133 243 159 b 437 320 243 294 328 320 l 437 247 "},"":{"x_min":61.25,"x_max":304.890625,"ha":372,"o":"m 289 0 l 259 626 l 104 626 l 74 0 l 289 0 m 183 950 b 61 823 111 950 61 897 b 183 697 61 750 110 697 b 304 823 257 697 303 750 b 185 950 304 897 255 950 l 183 950 "},"ã":{"x_min":38.953125,"x_max":647.375,"ha":733,"o":"m 636 401 b 345 694 636 561 567 694 b 86 633 224 694 132 659 l 124 498 b 308 548 168 525 240 548 b 429 461 410 548 429 497 l 429 452 b 38 193 194 452 38 369 b 254 -15 38 84 119 -15 b 444 68 332 -15 401 13 l 448 68 l 460 0 l 647 0 b 636 163 639 37 636 100 l 636 401 m 436 247 b 432 211 436 234 435 222 b 324 133 418 168 375 133 b 243 213 278 133 243 159 b 436 320 243 294 327 320 l 436 247 m 251 775 b 283 837 254 816 264 837 b 335 815 301 837 311 829 b 429 786 364 801 391 786 b 541 963 501 786 545 837 l 445 963 b 410 902 441 915 432 902 b 353 929 394 902 375 916 b 264 956 326 943 298 956 b 153 775 195 956 149 891 l 251 775 "},"æ":{"x_min":39.046875,"x_max":1052.9375,"ha":1115,"o":"m 1047 281 b 1052 358 1048 298 1052 330 b 773 694 1052 520 971 694 b 545 584 675 694 597 654 l 541 584 b 322 694 502 654 430 694 b 86 630 222 694 135 658 l 127 497 b 304 548 168 522 236 548 b 432 466 411 548 432 486 l 432 447 b 39 197 197 448 39 363 b 269 -15 39 81 123 -15 b 517 105 385 -15 465 33 l 521 105 b 776 -15 567 27 665 -15 b 1021 36 859 -15 948 -2 l 993 176 b 806 140 941 155 889 140 b 626 281 701 140 629 194 l 1047 281 m 438 245 b 432 204 438 230 436 215 b 326 131 416 165 379 131 b 242 212 280 131 242 159 b 438 318 242 290 326 319 l 438 245 m 625 425 b 749 555 626 473 661 555 b 862 425 844 555 863 468 l 625 425 "},"ĩ":{"x_min":-7.0625,"x_max":381.375,"ha":381,"o":"m 289 0 l 289 679 l 83 679 l 83 0 l 289 0 m 91 775 b 123 837 93 816 104 837 b 175 815 141 837 151 829 b 269 786 204 801 231 786 b 381 963 341 786 385 837 l 285 963 b 250 902 281 915 272 902 b 193 929 234 902 215 916 b 104 956 166 943 138 956 b -6 775 35 956 -10 891 l 91 775 "},"":{"x_min":44.921875,"x_max":710.5,"ha":771,"o":"m 377 -15 b 710 455 600 -15 710 177 b 381 918 710 702 616 918 b 44 450 152 918 44 712 b 375 -15 46 194 147 -15 l 377 -15 m 378 144 b 251 452 299 144 250 244 b 378 758 251 656 300 758 b 503 452 461 758 503 652 b 379 144 503 247 460 144 l 378 144 "},"~":{"x_min":58.515625,"x_max":753.25,"ha":828,"o":"m 187 268 b 251 380 193 356 217 380 b 381 323 284 380 321 358 b 571 256 454 280 506 256 b 752 518 675 256 760 320 l 623 518 b 568 405 620 434 600 405 b 438 459 534 405 498 426 b 247 526 360 504 314 526 b 58 268 137 526 57 452 l 187 268 "},"ŀ":{"x_min":83.03125,"x_max":514.5,"ha":492,"o":"m 83 0 l 289 0 l 289 987 l 83 987 l 83 0 m 430 458 b 514 552 477 458 514 501 b 430 647 514 606 477 647 b 340 552 379 647 340 606 b 428 458 340 501 378 458 l 430 458 "},"":{"x_min":40.828125,"x_max":397.4375,"ha":447,"o":"m 40 538 l 40 398 l 397 398 l 397 538 l 40 538 "},"":{"x_min":43.5625,"x_max":711.859375,"ha":771,"o":"m 383 918 b 73 663 208 918 73 816 b 201 465 73 584 115 511 l 201 462 b 43 236 104 419 43 344 b 371 -15 43 113 147 -15 b 711 259 577 -15 711 95 b 548 483 711 375 635 450 l 548 487 b 677 686 637 531 677 608 b 385 918 677 795 592 918 l 383 918 m 378 130 b 254 256 302 130 253 191 b 362 391 254 322 294 372 b 500 243 442 369 500 322 b 379 130 500 179 451 130 l 378 130 m 377 775 b 483 662 451 775 483 719 b 393 548 483 606 441 562 b 269 670 322 570 269 609 b 375 775 269 726 304 775 l 377 775 "},"Ċ":{"x_min":47.640625,"x_max":774.46875,"ha":826,"o":"m 732 193 b 558 162 690 175 622 162 b 265 466 374 162 265 280 b 556 776 265 675 393 776 b 730 741 631 776 690 759 l 774 909 b 548 950 737 927 656 950 b 47 455 270 950 47 773 b 528 -13 47 188 210 -13 b 762 26 638 -13 725 8 l 732 193 m 491 988 b 582 1083 543 988 582 1033 b 491 1179 582 1137 543 1179 b 396 1083 438 1179 396 1137 b 490 988 396 1033 436 988 l 491 988 "},"¡":{"x_min":61.25,"x_max":304.890625,"ha":372,"o":"m 289 -265 l 259 361 l 104 361 l 74 -265 l 289 -265 m 183 684 b 61 558 111 684 61 631 b 183 431 61 484 110 431 b 304 558 257 431 303 484 b 185 684 304 631 255 684 l 183 684 "},"ẅ":{"x_min":14.96875,"x_max":1019.46875,"ha":1054,"o":"m 14 679 l 209 0 l 404 0 l 470 238 b 513 450 487 301 500 365 l 515 450 b 559 237 529 365 541 304 l 622 0 l 815 0 l 1019 679 l 816 679 l 760 409 b 721 177 744 331 730 254 l 718 177 b 669 408 706 255 688 330 l 602 679 l 439 679 l 368 398 b 321 177 353 331 333 254 l 317 177 b 280 400 306 255 292 330 l 225 679 l 14 679 m 375 773 b 468 872 428 773 468 818 b 375 969 468 927 427 969 b 277 872 321 969 277 927 b 374 773 277 818 319 773 l 375 773 m 661 773 b 755 872 715 773 755 818 b 661 969 755 927 714 969 b 564 872 605 969 564 927 b 658 773 564 818 605 773 l 661 773 "},"К":{"x_min":91.1875,"x_max":818.03125,"ha":840,"o":"m 91 936 l 91 0 l 295 0 l 295 391 l 334 391 b 519 205 446 391 488 311 b 590 0 541 136 559 63 l 813 0 b 707 294 770 93 740 194 b 498 519 669 406 616 490 l 818 936 l 566 936 l 314 545 l 295 545 l 295 936 l 91 936 "},"Γ":{"x_min":91.1875,"x_max":646.53125,"ha":669,"o":"m 91 936 l 91 0 l 298 0 l 298 758 l 646 758 l 646 936 l 91 936 "},"P":{"x_min":89.828125,"x_max":748.609375,"ha":807,"o":"m 89 0 l 295 0 l 295 336 b 366 331 314 332 338 331 b 664 429 488 331 593 362 b 748 651 720 481 748 558 b 650 867 748 743 710 821 b 370 943 589 918 498 943 b 89 924 243 943 153 935 l 89 0 m 295 775 b 379 782 310 779 338 782 b 543 644 484 782 543 731 b 364 493 543 550 475 493 b 295 499 333 493 313 494 l 295 775 "},"%":{"x_min":36.75,"x_max":1159.671875,"ha":1222,"o":"m 284 918 b 36 634 133 918 36 795 b 277 361 36 465 142 361 b 522 648 405 361 522 461 b 285 918 522 804 436 918 l 284 918 m 280 802 b 368 640 344 802 368 731 b 281 476 368 537 340 476 b 190 638 221 476 189 544 b 279 802 190 730 217 802 l 280 802 m 398 -15 l 906 916 l 796 916 l 287 -15 l 398 -15 m 921 543 b 675 259 771 543 675 420 b 914 -12 675 90 781 -12 b 1159 275 1042 -12 1159 87 b 922 543 1159 429 1073 543 l 921 543 m 918 427 b 1005 265 981 427 1005 356 b 918 102 1005 163 977 102 b 828 265 860 102 827 170 b 917 427 828 355 856 427 l 918 427 "},"":{"x_min":31.03125,"x_max":432.5625,"ha":463,"o":"m 31 540 l 31 422 l 280 422 l 280 420 l 54 0 l 207 0 l 432 451 l 432 540 l 31 540 "},"_":{"x_min":0,"x_max":680.5625,"ha":694,"o":"m 0 -104 l 0 -173 l 680 -173 l 680 -104 l 0 -104 "},"ñ":{"x_min":77.578125,"x_max":714.578125,"ha":814,"o":"m 83 0 l 289 0 l 289 391 b 296 444 289 411 291 430 b 402 523 311 483 345 523 b 507 376 477 523 507 463 l 507 0 l 714 0 l 714 401 b 476 694 714 601 612 694 b 270 584 364 694 298 629 l 266 584 l 257 679 l 77 679 b 83 462 80 618 83 547 l 83 0 m 304 775 b 337 837 307 816 318 837 b 389 815 355 837 364 829 b 483 786 417 801 445 786 b 594 963 555 786 598 837 l 499 963 b 464 902 495 915 485 902 b 406 929 447 902 428 916 b 318 956 379 943 352 956 b 206 775 249 956 202 891 l 304 775 "},"Ŕ":{"x_min":90.453125,"x_max":783.25,"ha":824,"o":"m 90 0 l 295 0 l 295 368 l 357 368 b 508 218 442 366 482 336 b 570 0 534 102 557 27 l 783 0 b 709 265 765 36 738 158 b 587 438 686 351 651 412 l 587 443 b 749 672 666 472 749 554 b 663 868 749 758 719 823 b 366 943 598 922 502 943 b 90 922 255 943 157 934 l 90 0 m 295 777 b 389 784 310 781 339 784 b 542 655 485 784 542 740 b 377 520 542 573 481 520 l 295 520 l 295 777 m 403 1158 l 289 987 l 455 987 l 621 1158 l 403 1158 "},"‚":{"x_min":22.4375,"x_max":311,"ha":361,"o":"m 147 -133 b 311 243 210 -27 268 106 l 117 230 b 22 -144 98 108 63 -26 l 147 -133 "},"Æ":{"x_min":3.90625,"x_max":1143.09375,"ha":1206,"o":"m 217 0 l 316 255 l 585 255 l 617 0 l 1143 0 l 1143 173 l 796 173 l 767 391 l 1087 391 l 1087 563 l 740 563 l 717 762 l 1092 762 l 1092 936 l 394 936 l 3 0 l 217 0 m 379 425 l 466 650 b 514 787 481 690 499 741 l 518 787 b 534 651 522 743 529 694 l 561 425 l 379 425 "},"Ū":{"x_min":89.828125,"x_max":838.453125,"ha":947,"o":"m 89 936 l 89 413 b 455 -15 89 116 224 -15 b 838 411 695 -15 838 122 l 838 936 l 631 936 l 631 398 b 462 154 631 231 571 154 b 296 398 357 154 296 236 l 296 936 l 89 936 m 288 1131 l 288 1019 l 641 1019 l 641 1131 l 288 1131 "},"ы":{"x_min":81.671875,"x_max":975.921875,"ha":1079,"o":"m 81 679 l 81 4 b 303 -8 151 -4 227 -8 b 604 66 402 -8 519 6 b 695 248 658 105 695 161 b 396 486 695 422 543 486 b 288 477 351 486 315 481 l 288 679 l 81 679 m 287 336 b 357 343 306 340 326 343 b 490 241 421 343 490 318 b 349 134 490 162 419 134 b 287 137 325 134 304 136 l 287 336 m 769 679 l 769 0 l 975 0 l 975 679 l 769 679 "},"ѓ":{"x_min":82.078125,"x_max":546.203125,"ha":578,"o":"m 82 679 l 82 0 l 288 0 l 288 515 l 546 515 l 546 679 l 82 679 m 327 975 l 210 763 l 351 763 l 517 975 l 327 975 "},"Œ":{"x_min":47.640625,"x_max":1220.921875,"ha":1300,"o":"m 1220 173 l 843 173 l 843 395 l 1181 395 l 1181 568 l 843 568 l 843 762 l 1201 762 l 1201 936 l 720 936 b 634 943 696 936 668 940 b 511 951 601 947 560 951 b 47 459 234 951 47 759 b 507 -15 47 206 194 -15 b 620 -8 552 -15 589 -11 b 703 0 651 -4 679 0 l 1220 0 l 1220 173 m 637 169 b 544 152 613 158 577 152 b 266 468 366 152 266 283 b 529 783 266 673 386 783 b 637 763 574 783 611 776 l 637 169 "},"΅":{"x_min":8.171875,"x_max":579.828125,"ha":604,"o":"m 245 1012 l 216 769 l 322 769 l 397 1012 l 245 1012 m 95 783 b 176 869 141 783 176 822 b 95 956 176 920 140 956 b 8 869 46 956 8 919 b 93 783 8 822 46 783 l 95 783 m 495 783 b 579 869 544 783 579 822 b 495 956 579 920 543 956 b 411 869 447 956 411 919 b 494 783 411 822 446 783 l 495 783 "},"Ą":{"x_min":23.375,"x_max":878.15625,"ha":911,"o":"m 575 936 l 303 936 l 23 0 l 238 0 l 303 240 l 566 240 l 637 1 b 586 -156 622 -25 586 -91 b 739 -304 586 -255 645 -304 b 878 -261 784 -304 841 -290 l 849 -163 b 789 -173 835 -168 815 -173 b 716 -95 747 -173 716 -141 b 750 -1 716 -59 736 -23 l 860 0 l 575 936 m 333 398 l 388 597 b 430 777 403 651 416 722 l 433 777 b 479 597 446 723 463 652 l 536 398 l 333 398 "},"Њ":{"x_min":91.1875,"x_max":1250.859375,"ha":1325,"o":"m 91 936 l 91 0 l 298 0 l 298 410 l 577 410 l 577 4 b 798 -9 623 -2 695 -9 b 1162 96 940 -9 1075 17 b 1250 310 1215 144 1250 217 b 895 605 1250 512 1087 605 b 782 599 854 605 813 603 l 782 936 l 577 936 l 577 587 l 298 587 l 298 936 l 91 936 m 782 444 b 858 450 805 447 827 450 b 1035 304 955 450 1035 408 b 856 149 1035 201 954 149 b 782 154 830 149 807 150 l 782 444 "},"›":{"x_min":30,"x_max":332,"ha":375,"o":"m 193 350 l 30 86 l 172 86 l 332 350 l 172 615 l 30 615 l 193 350 "},"ћ":{"x_min":2.71875,"x_max":732.28125,"ha":831,"o":"m 2 893 l 2 754 l 100 754 l 100 1 l 307 1 l 307 384 b 314 431 307 401 308 419 b 417 506 329 469 362 506 b 525 356 495 506 525 445 l 525 1 l 732 1 l 732 381 b 499 677 732 570 646 677 b 390 650 460 677 421 666 b 310 581 359 633 332 611 l 307 581 l 307 754 l 578 754 l 578 893 l 307 893 l 307 988 l 100 988 l 100 893 l 2 893 "},"":{"x_min":28.578125,"x_max":484.5625,"ha":525,"o":"m 255 362 b 484 640 419 362 484 495 b 255 918 484 794 412 918 b 28 640 98 918 28 791 b 254 362 28 486 99 362 l 255 362 m 255 470 b 179 640 209 470 179 525 b 255 809 179 754 209 809 b 333 640 302 809 333 756 b 257 470 333 525 303 470 l 255 470 "},"":{"x_min":29.9375,"x_max":204.171875,"ha":239,"o":"m 117 608 b 204 697 168 608 204 645 b 117 786 204 750 168 786 b 29 697 65 786 29 750 b 115 608 29 645 65 608 l 117 608 "},"<":{"x_min":78.9375,"x_max":733.640625,"ha":828,"o":"m 78 308 l 733 0 l 733 147 l 238 366 l 238 369 l 733 590 l 733 737 l 78 427 l 78 308 "},"¬":{"x_min":54.4375,"x_max":756.78125,"ha":828,"o":"m 54 586 l 54 456 l 624 456 l 624 147 l 756 147 l 756 586 l 54 586 "},"t":{"x_min":23.140625,"x_max":462.78125,"ha":510,"o":"m 111 806 l 111 679 l 23 679 l 23 523 l 111 523 l 111 245 b 168 44 111 150 130 84 b 325 -13 202 9 258 -13 b 458 4 382 -13 432 -5 l 457 163 b 396 158 438 159 424 158 b 314 277 334 158 314 195 l 314 523 l 462 523 l 462 679 l 314 679 l 314 863 l 111 806 "},"Ц":{"x_min":91.1875,"x_max":917.390625,"ha":964,"o":"m 91 936 l 91 0 l 740 0 l 751 -236 l 907 -236 l 917 161 l 826 166 l 826 936 l 619 936 l 619 173 l 298 173 l 298 936 l 91 936 "},"":{"x_min":31.3125,"x_max":458.6875,"ha":501,"o":"m 247 918 b 49 763 136 918 49 856 b 130 645 49 715 78 670 l 130 643 b 31 512 72 618 31 577 b 239 362 31 447 88 362 b 458 529 377 362 458 433 b 356 659 458 601 404 641 l 356 662 b 436 777 406 684 436 727 b 249 918 436 845 378 918 l 247 918 m 245 462 b 174 527 202 462 174 494 b 235 598 174 562 196 584 b 313 522 273 588 313 566 b 246 462 313 486 284 462 l 245 462 m 243 820 b 304 761 284 820 304 793 b 254 700 304 731 281 708 b 182 766 210 713 182 736 b 242 820 182 797 204 820 l 243 820 "},"ù":{"x_min":80.0625,"x_max":715.703125,"ha":810,"o":"m 710 679 l 503 679 l 503 275 b 495 229 503 256 500 241 b 391 155 482 195 448 155 b 286 313 318 155 286 215 l 286 679 l 80 679 l 80 280 b 314 -15 80 70 178 -15 b 522 95 433 -15 496 54 l 526 95 l 536 0 l 715 0 b 710 218 712 56 710 129 l 710 679 m 179 975 l 345 763 l 487 763 l 369 975 l 179 975 "},"":{"x_min":55.8125,"x_max":299.4375,"ha":361,"o":"m 176 336 b 299 463 250 336 299 390 b 178 593 298 540 249 593 b 55 463 106 593 55 540 b 175 336 55 390 106 336 l 176 336 "},"ï":{"x_min":-53.078125,"x_max":424.671875,"ha":381,"o":"m 289 0 l 289 679 l 83 679 l 83 0 l 289 0 m 44 773 b 137 872 98 773 137 818 b 44 969 137 927 96 969 b -53 872 -9 969 -53 927 b 43 773 -53 818 -10 773 l 44 773 m 330 773 b 424 872 385 773 424 818 b 330 969 424 927 383 969 b 234 872 274 969 234 927 b 328 773 234 818 274 773 l 330 773 "},"Ф":{"x_min":47.640625,"x_max":1026.28125,"ha":1096,"o":"m 441 976 l 441 894 b 47 464 264 879 47 761 b 438 45 47 176 239 61 l 438 -38 l 631 -38 l 631 45 b 1026 471 835 65 1026 181 b 634 894 1026 762 831 879 l 634 976 l 441 976 m 439 193 b 255 468 357 202 255 284 b 439 749 255 666 359 737 l 439 193 m 632 749 b 818 471 720 737 818 668 b 632 193 818 272 714 202 l 632 749 "},"":{"x_min":31.3125,"x_max":715.953125,"ha":758,"o":"m 715 43 l 715 197 l 609 197 l 609 681 l 356 681 l 31 179 l 31 43 l 417 43 l 417 -173 l 609 -173 l 609 43 l 715 43 m 417 197 l 221 197 l 219 202 l 332 372 b 416 531 362 420 392 480 l 421 531 b 417 376 417 481 417 427 l 417 197 "},"Ò":{"x_min":47.875,"x_max":929.875,"ha":996,"o":"m 480 -15 b 929 477 748 -15 929 169 b 494 951 929 736 776 951 b 47 461 224 951 47 741 b 479 -15 47 194 208 -15 l 480 -15 m 488 152 b 267 466 350 152 267 290 b 490 783 267 641 347 783 b 710 470 633 783 710 638 b 490 152 710 287 630 152 l 488 152 m 256 1159 l 422 990 l 588 990 l 473 1159 l 256 1159 "},"I":{"x_min":91.1875,"x_max":298.078125,"ha":396,"o":"m 91 936 l 91 0 l 298 0 l 298 936 l 91 936 "},"˝":{"x_min":-3,"x_max":482.953125,"ha":417,"o":"m 82 973 l -3 766 l 114 766 l 246 973 l 82 973 m 319 973 l 233 766 l 349 766 l 482 973 l 319 973 "},"₉":{"x_min":28.578125,"x_max":458.6875,"ha":497,"o":"m 77 -207 b 130 -209 89 -209 112 -210 b 366 -131 228 -206 308 -182 b 458 110 424 -78 458 4 b 239 344 458 228 393 344 b 28 150 119 344 28 260 b 202 -19 28 40 111 -19 b 310 17 251 -19 289 -2 l 313 15 b 242 -71 303 -19 280 -51 b 130 -99 212 -88 170 -98 b 77 -98 114 -101 92 -99 l 77 -207 m 240 237 b 315 142 295 237 315 190 b 310 110 315 128 314 117 b 243 78 299 93 277 78 b 171 157 194 78 171 117 b 239 237 171 205 202 237 l 240 237 "},"·":{"x_min":55.8125,"x_max":299.4375,"ha":361,"o":"m 176 231 b 299 359 250 231 299 286 b 178 488 298 436 249 488 b 55 359 106 488 55 436 b 175 231 55 286 106 231 l 176 231 "},"¿":{"x_min":57.171875,"x_max":545.8125,"ha":618,"o":"m 337 684 b 216 558 265 684 216 631 b 337 431 216 484 264 431 b 458 558 411 431 458 484 b 338 684 458 631 409 684 l 337 684 m 243 366 l 243 341 b 174 169 245 279 223 225 b 57 -65 122 109 57 41 b 318 -280 57 -179 140 -280 b 545 -223 416 -280 496 -252 l 500 -72 b 364 -113 464 -98 411 -113 b 266 -31 298 -112 266 -79 b 345 113 266 15 302 61 b 426 330 406 187 428 259 l 423 366 l 243 366 "},"Ђ":{"x_min":19.0625,"x_max":935.078125,"ha":1003,"o":"m 19 936 l 19 762 l 257 762 l 257 0 l 464 0 l 464 423 b 564 455 487 440 522 455 b 676 398 612 455 647 437 b 717 225 702 364 717 304 b 661 29 717 130 692 65 b 540 -37 628 -6 582 -26 l 571 -211 b 740 -138 622 -204 683 -183 b 935 239 867 -72 935 66 b 854 515 935 350 909 445 b 630 626 804 580 735 626 b 469 586 567 626 506 607 l 464 586 l 464 762 l 784 762 l 784 936 l 19 936 "},"":{"x_min":12.25,"x_max":394.71875,"ha":417,"o":"m 12 1177 b 202 1002 14 1076 69 1002 b 394 1177 333 1002 392 1076 l 288 1177 b 202 1113 281 1144 259 1113 b 122 1177 145 1113 126 1147 l 12 1177 "},"ű":{"x_min":80.0625,"x_max":715.703125,"ha":810,"o":"m 710 679 l 503 679 l 503 275 b 495 229 503 256 500 241 b 391 155 482 195 448 155 b 286 313 318 155 286 215 l 286 679 l 80 679 l 80 280 b 314 -15 80 70 178 -15 b 522 95 433 -15 496 54 l 526 95 l 536 0 l 715 0 b 710 218 712 56 710 129 l 710 679 m 299 973 l 213 766 l 330 766 l 462 973 l 299 973 m 536 973 l 450 766 l 565 766 l 699 973 l 536 973 "},"₃":{"x_min":12.25,"x_max":441,"ha":482,"o":"m 62 198 b 186 233 89 213 138 233 b 258 183 236 233 258 212 b 153 126 258 140 198 126 l 115 126 l 115 31 l 156 31 b 273 -37 216 31 273 9 b 176 -100 273 -73 232 -100 b 43 -63 127 -100 70 -79 l 12 -172 b 196 -211 51 -194 122 -211 b 441 -45 345 -211 441 -143 b 308 80 441 25 383 73 l 308 83 b 420 206 374 104 420 147 b 224 344 420 283 355 344 b 34 300 145 344 73 323 l 62 198 "},"Ǽ":{"x_min":3.90625,"x_max":1143.09375,"ha":1206,"o":"m 217 0 l 316 255 l 585 255 l 617 0 l 1143 0 l 1143 173 l 796 173 l 767 391 l 1087 391 l 1087 563 l 740 563 l 717 762 l 1092 762 l 1092 936 l 394 936 l 3 0 l 217 0 m 379 425 l 466 650 b 514 787 481 690 499 741 l 518 787 b 534 651 522 743 529 694 l 561 425 l 379 425 m 654 1156 l 540 986 l 706 986 l 872 1156 l 654 1156 "},"φ":{"x_min":44.921875,"x_max":921.46875,"ha":988,"o":"m 288 695 b 44 344 190 663 44 538 b 397 -13 44 108 220 1 l 397 -275 l 579 -275 l 579 -13 b 921 354 744 2 921 125 b 619 693 921 558 774 688 b 397 451 507 695 397 627 l 397 130 b 250 348 306 151 250 236 b 366 583 250 463 310 543 l 288 695 m 579 494 b 615 548 579 529 593 548 b 725 350 668 548 725 465 b 579 127 725 222 662 144 l 579 494 "},";":{"x_min":2.234375,"x_max":318.015625,"ha":361,"o":"m 139 -152 b 309 243 203 -44 266 101 l 101 229 b 2 -165 82 102 45 -43 l 139 -152 m 196 433 b 318 559 270 433 318 487 b 196 687 316 636 269 687 b 75 559 126 687 75 634 b 195 433 75 487 124 433 l 196 433 "},"Ș":{"x_min":55.171875,"x_max":684,"ha":750,"o":"m 55 44 b 315 -13 106 15 210 -13 b 684 276 566 -13 684 119 b 447 555 684 408 609 494 b 277 687 327 601 277 627 b 410 777 277 734 320 777 b 600 733 498 777 565 751 l 647 902 b 413 950 592 929 517 950 b 66 669 198 950 66 829 b 319 391 66 533 166 447 b 473 261 429 352 473 319 b 327 159 473 200 422 159 b 97 218 238 159 151 188 l 55 44 m 272 -334 b 488 -163 391 -330 488 -279 b 434 -54 488 -113 462 -75 l 292 -77 b 331 -161 309 -98 331 -129 b 241 -245 331 -208 286 -236 l 272 -334 "},"Ġ":{"x_min":47.5,"x_max":856,"ha":947,"o":"m 856 536 l 514 536 l 514 370 l 655 370 l 655 173 b 555 161 639 166 601 161 b 265 468 385 161 265 273 b 570 770 265 670 397 770 b 782 730 670 770 732 754 l 826 901 b 571 945 781 922 689 945 b 47 456 270 945 48 768 b 176 115 47 319 93 197 b 549 -9 261 33 382 -9 b 856 43 670 -9 792 20 l 856 536 m 513 988 b 604 1083 564 988 604 1033 b 513 1179 604 1137 564 1179 b 417 1083 459 1179 417 1137 b 511 988 417 1033 458 988 l 513 988 "},"6":{"x_min":40.828125,"x_max":718.671875,"ha":771,"o":"m 622 915 b 539 913 602 916 577 918 b 198 781 401 906 285 863 b 40 379 102 690 40 548 b 393 -15 40 163 156 -15 b 718 311 583 -15 718 131 b 445 605 718 498 593 605 b 257 534 363 605 300 579 l 253 534 b 541 750 276 638 357 736 b 622 752 574 752 598 754 l 622 915 m 389 140 b 246 322 295 140 250 226 b 255 376 246 347 249 363 b 377 455 274 420 321 455 b 509 300 465 455 509 383 b 390 140 509 208 462 140 l 389 140 "},"n":{"x_min":77.578125,"x_max":714.578125,"ha":814,"o":"m 83 0 l 289 0 l 289 391 b 296 444 289 411 291 430 b 402 523 311 483 345 523 b 507 376 477 523 507 463 l 507 0 l 714 0 l 714 401 b 476 694 714 601 612 694 b 270 584 364 694 298 629 l 266 584 l 257 679 l 77 679 b 83 462 80 618 83 547 l 83 0 "},"ά":{"x_min":44.921875,"x_max":766.3125,"ha":810,"o":"m 389 972 l 326 761 l 461 761 l 571 972 l 389 972 m 549 679 b 534 590 544 652 539 622 l 529 590 b 347 694 491 661 424 694 b 44 325 197 694 44 554 b 321 -15 44 116 168 -15 b 536 108 411 -15 488 26 l 539 108 b 683 -15 556 26 605 -15 b 755 -4 711 -15 743 -9 l 766 143 b 705 236 730 140 705 159 b 724 679 705 380 714 572 l 549 679 m 254 336 b 385 533 254 443 304 533 b 502 402 443 533 490 480 b 504 345 504 386 504 368 b 500 277 504 320 503 301 b 379 151 487 211 439 151 b 254 334 306 151 254 230 l 254 336 "},"ϊ":{"x_min":-40.828125,"x_max":424.671875,"ha":389,"o":"m 54 759 b 144 855 106 759 144 802 b 54 951 144 911 104 951 b -40 855 0 951 -40 911 b 53 759 -40 802 0 759 l 54 759 m 333 759 b 424 855 386 759 424 802 b 333 951 424 911 385 951 b 238 855 279 951 238 911 b 332 759 238 802 277 759 l 333 759 m 289 679 l 83 679 l 83 191 b 254 -15 83 30 147 -15 b 341 -1 285 -15 323 -9 l 351 145 b 289 212 308 143 289 161 l 289 679 "},"ģ":{"x_min":45.09375,"x_max":718.84375,"ha":813,"o":"m 713 476 b 718 679 713 577 716 634 l 539 679 l 532 597 l 529 597 b 347 694 495 654 438 694 b 45 336 182 694 45 555 b 328 5 45 141 162 5 b 506 93 404 5 467 37 l 509 93 l 509 50 b 337 -129 509 -76 434 -129 b 143 -77 258 -129 185 -102 l 102 -238 b 343 -290 162 -272 253 -290 b 611 -206 439 -290 539 -270 b 713 98 687 -138 713 -31 l 713 476 m 506 302 b 499 245 506 284 505 262 b 390 161 486 197 443 161 b 254 341 305 161 254 240 b 390 534 254 465 315 534 b 502 441 447 534 487 497 b 506 402 505 429 506 415 l 506 302 m 498 1005 b 283 848 379 1001 283 955 b 336 748 283 805 309 766 l 471 770 b 430 847 452 788 430 816 b 528 930 430 895 473 922 l 498 1005 "},"∂":{"x_min":31.3125,"x_max":737.71875,"ha":796,"o":"m 123 794 b 304 845 153 813 215 845 b 533 556 443 845 533 723 b 533 533 533 550 533 540 l 532 533 b 332 637 504 576 438 637 b 31 294 149 637 31 486 b 330 -15 31 154 125 -15 b 737 516 549 -15 737 168 b 332 1016 737 825 560 1016 b 63 937 194 1016 104 963 l 123 794 m 352 154 b 238 293 287 154 238 204 b 379 475 238 394 296 475 b 513 373 453 475 500 418 b 353 154 500 262 438 154 l 352 154 "},"κ":{"x_min":63.96875,"x_max":737.71875,"ha":761,"o":"m 468 370 b 729 672 559 473 646 576 l 729 679 l 494 679 b 294 395 439 598 367 488 l 289 395 l 289 558 b 268 679 289 620 280 665 l 63 679 b 83 505 76 655 83 572 l 83 0 l 289 0 l 289 276 l 299 276 b 426 136 344 273 379 218 l 499 0 l 737 0 l 631 186 b 468 365 579 275 530 348 l 468 370 "},"":{"x_min":102,"x_max":434.109375,"ha":417,"o":"m 216 1156 l 102 986 l 268 986 l 434 1156 l 216 1156 "},"‡":{"x_min":46.28125,"x_max":665.578125,"ha":728,"o":"m 264 936 l 277 677 l 46 694 l 46 530 l 277 547 l 277 327 l 46 344 l 46 180 l 277 197 l 264 -70 l 449 -70 l 434 197 l 665 180 l 665 344 l 434 327 l 434 547 l 665 530 l 665 694 l 434 677 l 447 936 l 264 936 "},"ň":{"x_min":77.625,"x_max":714.9375,"ha":814,"o":"m 83 0 l 290 0 l 290 391 b 296 444 290 411 291 430 b 403 523 311 483 345 523 b 507 376 478 523 507 463 l 507 0 l 714 0 l 714 401 b 476 694 714 601 612 694 b 270 584 364 694 298 629 l 266 584 l 257 679 l 77 679 b 83 462 80 618 83 547 l 83 0 m 468 763 l 604 975 l 468 975 l 400 854 l 397 854 l 328 975 l 193 975 l 328 763 l 468 763 "},"√":{"x_min":27,"x_max":833,"ha":818,"o":"m 833 1166 l 694 1166 l 470 203 b 446 85 459 159 451 114 l 444 85 b 412 199 436 117 425 159 l 266 612 l 27 512 l 61 417 l 167 460 l 383 -110 l 522 -110 l 833 1166 "},"⁴":{"x_min":27.21875,"x_max":504.96875,"ha":546,"o":"m 435 615 l 435 740 l 504 740 l 504 843 l 435 843 l 435 1161 l 253 1161 l 27 827 l 27 740 l 288 740 l 288 615 l 435 615 m 288 843 l 172 843 l 170 844 l 242 955 b 291 1048 258 981 273 1013 l 294 1048 b 288 944 292 1013 288 980 l 288 843 "},"ę":{"x_min":44.640625,"x_max":677.984375,"ha":733,"o":"m 573 -158 b 513 -172 554 -168 530 -172 b 465 -126 488 -172 465 -158 b 582 6 465 -79 533 -16 b 641 29 599 13 622 20 l 613 172 b 430 143 558 152 500 143 b 242 272 333 143 248 184 l 671 272 b 677 355 673 287 677 319 b 380 694 677 523 596 694 b 44 331 150 694 44 504 b 393 -13 44 120 172 -12 b 410 -13 400 -13 405 -13 l 410 -15 b 319 -184 372 -47 319 -109 b 458 -302 319 -256 372 -302 b 604 -255 513 -302 564 -287 l 573 -158 m 240 416 b 370 554 246 472 281 554 b 485 416 464 554 485 468 l 240 416 "},"į":{"x_min":38.109375,"x_max":329.390625,"ha":381,"o":"m 186 766 b 300 876 257 766 300 815 b 187 986 300 938 255 986 b 73 876 118 986 73 938 b 185 766 73 815 117 766 l 186 766 m 289 680 l 83 680 l 83 1 b 38 -155 70 -25 38 -91 b 190 -304 38 -255 96 -304 b 329 -259 234 -304 291 -290 l 300 -162 b 240 -172 287 -168 266 -172 b 167 -94 198 -172 167 -140 b 197 1 167 -59 183 -22 l 289 1 l 289 680 "},"":{"x_min":13.484375,"x_max":394.84375,"ha":417,"o":"m 108 993 b 141 1052 111 1033 123 1052 b 200 1027 160 1052 175 1041 b 288 1001 224 1013 251 1001 b 394 1175 359 1001 397 1050 l 302 1175 b 265 1115 296 1127 288 1115 b 205 1141 247 1115 228 1127 b 118 1169 181 1156 155 1169 b 13 993 53 1169 10 1109 l 108 993 "},"":{"x_min":57.171875,"x_max":545.8125,"ha":618,"o":"m 337 950 b 216 823 265 950 216 897 b 337 697 216 750 264 697 b 458 823 411 697 458 750 b 338 950 458 897 409 950 l 337 950 m 243 631 l 243 606 b 174 434 245 544 223 490 b 57 200 122 375 57 306 b 318 -15 57 86 140 -15 b 545 41 416 -15 496 12 l 500 193 b 364 151 464 166 411 151 b 266 233 298 152 266 186 b 345 379 266 280 302 326 b 426 595 406 452 428 525 l 423 631 l 243 631 "},"":{"x_min":29.9375,"x_max":204.171875,"ha":239,"o":"m 117 -6 b 204 81 168 -6 204 30 b 117 170 204 134 168 170 b 29 81 65 170 29 134 b 115 -6 29 30 65 -6 l 117 -6 "},"Τ":{"x_min":20.421875,"x_max":725.46875,"ha":761,"o":"m 268 0 l 475 0 l 475 758 l 725 758 l 725 936 l 20 936 l 20 758 l 268 758 l 268 0 "},"":{"x_min":96.640625,"x_max":562.140625,"ha":779,"o":"m 562 0 l 562 679 l 396 679 l 96 561 l 123 405 l 359 501 l 362 501 l 362 0 l 562 0 "},"≈":{"x_min":26,"x_max":786.859375,"ha":828,"o":"m 707 604 b 562 516 680 572 630 516 b 415 564 499 516 456 546 b 249 614 371 583 324 614 b 26 483 151 614 73 551 l 95 396 b 247 485 129 437 181 485 b 396 437 311 485 355 455 b 563 387 439 418 491 387 b 784 522 657 387 737 446 l 707 604 m 713 308 b 563 220 683 268 631 220 b 416 268 501 220 457 250 b 249 318 373 287 324 318 b 28 189 158 318 75 259 l 96 101 b 246 189 130 141 185 189 b 397 141 313 189 356 159 b 563 91 441 122 492 91 b 786 230 657 91 739 150 l 713 308 "},"ΐ":{"x_min":-85.765625,"x_max":481.8125,"ha":389,"o":"m 289 679 l 83 679 l 83 191 b 254 -15 83 30 146 -15 b 341 -1 285 -15 323 -9 l 351 145 b 289 212 308 143 289 161 l 289 679 m 149 998 l 121 758 l 225 758 l 300 998 l 149 998 m 0 769 b 81 855 46 769 81 808 b 0 940 81 904 46 940 b -85 854 -47 940 -85 904 b -1 769 -85 808 -49 769 l 0 769 m 398 769 b 481 855 446 769 481 808 b 398 940 481 904 446 940 b 314 854 351 940 314 904 b 397 769 314 808 349 769 l 398 769 "},"":{"x_min":-11,"x_max":418,"ha":417,"o":"m 281 986 l 418 1156 l 273 1156 l 205 1070 l 202 1070 l 134 1156 l -11 1156 l 126 986 l 281 986 "},"ĸ":{"x_min":83.03125,"x_max":758.140625,"ha":753,"o":"m 289 679 l 83 679 l 83 0 l 289 0 l 289 212 l 341 279 l 503 0 l 758 0 l 485 404 l 724 679 l 475 679 l 340 475 b 292 393 323 450 307 422 l 289 393 l 289 679 "},"g":{"x_min":45.09375,"x_max":718.84375,"ha":813,"o":"m 713 476 b 718 679 713 577 716 634 l 539 679 l 532 597 l 529 597 b 347 694 495 654 438 694 b 45 336 182 694 45 555 b 326 5 45 141 162 5 b 506 93 403 5 467 37 l 509 93 l 509 50 b 336 -129 509 -76 434 -129 b 143 -77 257 -129 185 -102 l 102 -238 b 341 -290 162 -272 253 -290 b 611 -206 439 -290 539 -270 b 713 98 687 -138 713 -31 l 713 476 m 506 302 b 499 245 506 284 505 262 b 389 161 486 197 443 161 b 254 341 303 161 254 240 b 390 534 254 465 314 534 b 502 441 447 534 487 497 b 506 402 505 429 506 415 l 506 302 "},"ǿ":{"x_min":45.078125,"x_max":738.9375,"ha":801,"o":"m 392 694 b 45 337 186 694 45 551 b 160 68 45 219 88 127 l 100 -22 l 169 -77 l 235 21 b 393 -15 281 -3 336 -15 b 738 341 566 -15 738 100 b 627 609 738 455 698 546 l 689 702 l 617 752 l 553 657 b 393 694 506 681 451 694 l 392 694 m 271 230 l 266 230 b 243 338 250 262 243 301 b 390 542 243 434 283 542 b 465 517 420 542 445 534 l 271 230 m 515 442 l 518 441 b 540 336 534 408 540 367 b 392 136 540 216 484 136 b 322 161 366 136 341 143 l 515 442 m 415 974 l 298 763 l 439 763 l 605 974 l 415 974 "},"²":{"x_min":20.421875,"x_max":439.640625,"ha":489,"o":"m 20 615 l 439 615 l 439 736 l 240 736 l 240 738 l 273 766 b 430 995 355 833 430 897 b 223 1163 430 1090 357 1163 b 24 1104 140 1163 69 1137 l 65 998 b 182 1037 95 1019 137 1037 b 262 970 234 1037 262 1009 b 104 770 262 911 206 863 l 20 694 l 20 615 "},"":{"x_min":43.5625,"x_max":721.390625,"ha":779,"o":"m 382 -15 b 721 338 601 -15 721 147 b 382 694 721 531 600 694 b 43 338 163 694 43 531 b 381 -15 43 145 163 -15 l 382 -15 m 382 138 b 240 338 294 138 240 215 b 382 540 240 463 294 540 b 524 338 470 540 524 463 b 383 138 524 215 470 138 l 382 138 "},"":{"x_min":55.8125,"x_max":253.171875,"ha":283,"o":"m 149 959 b 55 627 110 900 55 787 b 149 297 55 469 108 358 l 253 297 b 172 627 213 372 172 480 b 253 959 172 772 215 888 l 149 959 "},"Ã":{"x_min":22.953125,"x_max":860.03125,"ha":911,"o":"m 566 240 l 636 0 l 860 0 l 574 936 l 303 936 l 22 0 l 238 0 l 301 240 l 566 240 m 331 398 l 387 597 b 428 777 401 651 416 722 l 432 777 b 477 597 446 723 462 652 l 534 398 l 331 398 m 355 993 b 387 1052 357 1033 370 1052 b 446 1027 406 1052 421 1041 b 534 1001 470 1013 497 1001 b 640 1175 605 1001 643 1050 l 548 1175 b 511 1115 542 1127 534 1115 b 451 1141 493 1115 474 1127 b 364 1169 427 1156 401 1169 b 259 993 299 1169 257 1109 l 355 993 "},"Ј":{"x_min":-1.359375,"x_max":476.390625,"ha":571,"o":"m 269 345 b 127 161 269 201 215 161 b 21 177 87 161 50 168 l -1 6 b 151 -15 39 -6 102 -15 b 476 344 351 -15 476 77 l 476 936 l 269 936 l 269 345 "},"©":{"x_min":43.5625,"x_max":877.921875,"ha":940,"o":"m 462 901 b 43 473 230 901 43 709 b 462 43 43 234 230 43 b 877 473 694 43 877 234 b 464 901 877 709 694 901 l 462 901 m 461 822 b 788 472 642 822 788 666 b 461 122 788 276 642 120 b 133 472 279 122 133 276 b 460 822 133 666 279 822 l 461 822 m 645 684 b 495 723 627 704 560 723 b 231 465 356 723 231 625 b 481 213 231 323 322 213 b 650 258 541 213 602 226 l 630 329 b 494 295 600 309 549 295 b 326 469 393 295 326 368 b 495 641 326 577 390 641 b 624 611 555 641 608 620 l 645 684 "},"≥":{"x_min":80.3125,"x_max":732.28125,"ha":828,"o":"m 732 408 l 732 534 l 80 779 l 80 638 l 556 472 l 556 469 l 80 304 l 80 162 l 732 408 m 730 0 l 730 120 l 80 120 l 80 0 l 730 0 "},"Ă":{"x_min":23,"x_max":860,"ha":911,"o":"m 566 240 l 636 0 l 860 0 l 574 936 l 303 936 l 23 0 l 238 0 l 302 240 l 566 240 m 331 398 l 387 597 b 428 777 401 651 416 722 l 432 777 b 477 597 446 723 462 652 l 534 398 l 331 398 m 251 1158 b 442 983 254 1056 308 983 b 634 1158 572 983 631 1056 l 527 1158 b 442 1094 521 1125 499 1094 b 361 1158 385 1094 365 1127 l 251 1158 "},"ґ":{"x_min":81.671875,"x_max":562.140625,"ha":599,"o":"m 81 679 l 81 0 l 288 0 l 288 515 l 551 515 l 562 843 l 419 843 l 400 679 l 81 679 "},"":{"x_min":19.40625,"x_max":1140.953125,"ha":1231,"o":"m 1063 966 b 878 1002 1019 988 943 1002 b 531 709 672 1002 531 897 l 531 680 l 313 680 l 313 700 b 341 800 313 737 320 777 b 403 825 356 815 376 825 b 461 811 425 825 446 819 l 508 963 b 392 986 482 973 438 986 b 193 913 302 986 237 956 b 107 691 132 856 107 773 l 107 680 l 19 680 l 19 525 l 107 525 l 107 1 l 314 1 l 314 525 l 531 525 l 531 1 l 738 1 l 738 525 l 934 525 l 934 133 b 893 -87 934 -1 923 -55 b 770 -131 867 -115 823 -127 l 789 -297 b 1047 -213 889 -297 985 -270 b 1140 83 1109 -155 1140 -65 l 1140 680 l 736 680 l 736 704 b 883 836 736 779 774 836 b 1019 808 939 836 987 823 l 1063 966 "},"ÿ":{"x_min":8.171875,"x_max":707.78125,"ha":726,"o":"m 8 679 l 253 56 b 261 22 259 40 261 30 b 250 -8 261 13 257 2 b 164 -93 231 -41 196 -76 b 74 -129 133 -111 100 -123 l 118 -306 b 318 -213 171 -301 247 -277 b 552 231 393 -145 457 -38 l 707 679 l 485 679 l 404 345 b 374 218 394 305 383 255 l 370 218 b 337 344 362 254 348 305 l 238 679 l 8 679 m 231 773 b 323 872 284 773 323 818 b 231 969 323 927 283 969 b 133 872 176 969 133 927 b 230 773 133 818 175 773 l 231 773 m 517 773 b 611 872 571 773 611 818 b 517 969 611 927 570 969 b 420 872 461 969 420 927 b 514 773 420 818 461 773 l 517 773 "},"Ł":{"x_min":-2.71875,"x_max":671.03125,"ha":718,"o":"m 671 0 l 671 177 l 306 177 l 306 466 l 477 584 l 477 731 l 306 613 l 306 936 l 99 936 l 99 473 l -2 401 l -2 255 l 99 326 l 99 0 l 671 0 "},"":{"x_min":28.578125,"x_max":381.109375,"ha":417,"o":"m 28 1131 l 28 1019 l 381 1019 l 381 1131 l 28 1131 "},"∫":{"x_min":13.609375,"x_max":476.390625,"ha":497,"o":"m 476 1112 b 398 1122 461 1116 430 1122 b 245 1059 340 1122 284 1102 b 161 762 189 997 161 913 b 182 126 161 540 182 365 b 148 -61 182 18 167 -34 b 89 -91 132 -81 112 -91 b 36 -83 69 -91 50 -88 l 13 -212 b 110 -229 34 -222 72 -229 b 289 -123 181 -229 250 -198 b 336 131 318 -72 336 16 b 315 750 336 366 315 538 b 344 955 315 862 325 923 b 409 993 357 979 382 993 b 457 986 427 993 443 990 l 476 1112 "},"\\":{"x_min":16,"x_max":427,"ha":458,"o":"m 427 -55 l 153 951 l 16 951 l 289 -55 l 427 -55 "},"Ì":{"x_min":-39.5625,"x_max":297.984375,"ha":396,"o":"m 91 936 l 91 0 l 297 0 l 297 936 l 91 936 m -39 1158 l 126 988 l 292 988 l 178 1158 l -39 1158 "},"ъ":{"x_min":27.21875,"x_max":842.53125,"ha":903,"o":"m 27 679 l 27 518 l 215 518 l 215 4 b 436 -8 284 -4 360 -8 b 751 66 537 -8 666 6 b 842 243 805 105 842 161 b 530 486 842 426 681 486 b 421 479 487 486 451 483 l 421 679 l 27 679 m 420 336 b 483 343 439 340 458 343 b 637 236 551 343 637 325 b 491 134 637 159 560 134 b 420 138 457 134 438 136 l 420 336 "},"":{"x_min":43.5625,"x_max":706.421875,"ha":767,"o":"m 548 456 b 673 638 617 491 673 550 b 382 856 673 750 577 856 b 73 615 194 856 73 756 b 196 440 73 536 121 477 l 196 434 b 43 226 104 393 43 320 b 367 -15 43 84 172 -15 b 706 247 564 -15 706 90 b 548 450 706 350 631 415 l 548 456 m 382 726 b 487 622 438 726 487 690 b 400 509 487 568 447 526 b 274 627 322 531 274 576 b 381 726 274 683 315 726 l 382 726 m 372 126 b 250 244 299 126 250 177 b 352 372 250 302 288 351 b 492 233 435 350 492 300 b 374 126 492 170 442 126 l 372 126 "},"":{"x_min":29.9375,"x_max":319.859375,"ha":417,"o":"m 319 0 l 319 541 l 181 541 l 29 474 l 50 361 l 159 409 l 160 409 l 160 0 l 319 0 "},"ς":{"x_min":44.921875,"x_max":602.96875,"ha":636,"o":"m 602 661 b 435 694 562 682 502 694 b 44 318 182 694 44 508 b 306 -7 44 125 166 32 b 409 -32 343 -18 379 -25 b 374 -168 405 -66 389 -138 l 503 -212 b 600 85 552 -155 600 -9 b 588 104 600 96 596 103 b 398 149 521 117 461 128 b 258 332 313 176 258 232 b 445 536 258 451 336 536 b 563 513 490 536 530 525 l 602 661 "},"Ē":{"x_min":91.1875,"x_max":675.109375,"ha":742,"o":"m 635 568 l 298 568 l 298 762 l 656 762 l 656 936 l 91 936 l 91 0 l 675 0 l 675 173 l 298 173 l 298 395 l 635 395 l 635 568 m 193 1131 l 193 1019 l 545 1019 l 545 1131 l 193 1131 "},"!":{"x_min":59.890625,"x_max":303.53125,"ha":372,"o":"m 259 306 l 289 936 l 74 936 l 104 306 l 259 306 m 182 -15 b 303 111 255 -15 303 38 b 182 237 302 186 254 237 b 59 111 110 237 59 186 b 181 -15 59 38 108 -15 l 182 -15 "},"ç":{"x_min":44.71875,"x_max":583.984375,"ha":626,"o":"m 558 173 b 438 151 526 159 488 151 b 257 341 338 151 257 216 b 435 530 255 451 326 530 b 551 509 490 530 526 520 l 583 666 b 426 693 540 683 480 693 b 44 333 178 693 44 530 b 323 -6 44 147 150 19 l 269 -122 b 377 -173 345 -130 377 -147 b 327 -209 377 -200 355 -209 b 251 -190 303 -209 272 -201 l 225 -276 b 340 -302 257 -294 300 -302 b 503 -173 419 -302 503 -270 b 404 -61 503 -108 456 -73 l 430 -13 b 582 18 496 -11 552 2 l 558 173 "},"Й":{"x_min":89.6875,"x_max":848.578125,"ha":958,"o":"m 89 936 l 89 0 l 325 0 l 512 337 b 668 670 566 436 626 559 l 673 670 b 658 276 660 548 658 420 l 658 0 l 848 0 l 848 936 l 636 936 l 438 568 b 273 234 383 468 322 344 l 269 234 b 280 658 276 359 280 508 l 280 936 l 89 936 m 268 1150 b 465 979 278 1033 347 979 b 673 1150 587 979 664 1031 l 532 1150 b 469 1065 528 1095 510 1065 b 408 1150 426 1065 411 1095 l 268 1150 "},"Б":{"x_min":91.1875,"x_max":773.109375,"ha":838,"o":"m 91 936 l 91 4 b 313 -9 137 -2 210 -9 b 686 97 453 -9 597 18 b 773 309 739 146 773 218 b 666 534 773 412 730 487 b 408 609 597 586 500 609 b 296 603 372 609 328 607 l 296 764 l 699 764 l 699 936 l 91 936 m 296 448 b 368 454 321 451 345 454 b 506 412 417 454 469 441 b 555 305 536 389 555 354 b 510 196 555 259 537 222 b 375 148 476 165 426 148 b 296 154 347 148 319 150 l 296 448 "},"đ":{"x_min":44.90625,"x_max":838.453125,"ha":828,"o":"m 838 748 l 838 863 l 728 863 l 728 986 l 521 986 l 521 863 l 273 863 l 273 748 l 521 748 l 521 616 l 518 616 b 343 693 488 662 426 693 b 44 331 183 693 43 559 b 329 -16 44 120 171 -16 b 537 97 415 -16 496 22 l 541 97 l 549 -1 l 733 -1 b 728 201 730 44 728 125 l 728 748 l 838 748 m 521 300 b 517 252 521 283 519 266 b 396 151 504 193 455 151 b 254 337 310 151 254 223 b 397 530 254 444 302 530 b 518 427 461 530 506 484 b 521 388 521 415 521 401 l 521 300 "},"ċ":{"x_min":44.921875,"x_max":583.921875,"ha":626,"o":"m 558 173 b 439 151 526 159 488 151 b 257 341 338 151 257 216 b 435 530 255 451 326 530 b 551 509 490 530 526 520 l 583 666 b 426 693 540 683 480 693 b 44 333 178 693 44 530 b 397 -13 44 120 182 -13 b 582 18 476 -13 545 0 l 558 173 m 378 773 b 470 870 431 773 470 818 b 378 969 470 927 431 969 b 281 870 323 969 281 927 b 377 773 281 818 322 773 l 378 773 "},"Ā":{"x_min":23,"x_max":860,"ha":911,"o":"m 566 240 l 636 0 l 860 0 l 574 936 l 303 936 l 23 0 l 238 0 l 302 240 l 566 240 m 331 398 l 387 597 b 428 777 401 651 416 722 l 432 777 b 477 597 446 723 462 652 l 534 398 l 331 398 m 263 1131 l 263 1019 l 616 1019 l 616 1131 l 263 1131 "},"Ẃ":{"x_min":20,"x_max":1191,"ha":1233,"o":"m 465 0 l 552 401 b 605 691 574 497 589 586 l 608 691 b 651 402 619 584 634 497 l 729 0 l 954 0 l 1191 936 l 979 936 l 905 554 b 851 227 886 441 865 331 l 849 227 b 800 541 835 331 820 431 l 726 936 l 506 936 l 428 554 b 368 222 405 437 383 325 l 365 222 b 311 551 350 318 331 438 l 241 936 l 20 936 l 237 0 l 465 0 m 636 1156 l 522 986 l 688 986 l 854 1156 l 636 1156 "},"ø":{"x_min":45.078125,"x_max":738.9375,"ha":801,"o":"m 392 694 b 45 337 186 694 45 551 b 160 68 45 219 88 127 l 100 -22 l 169 -77 l 235 21 b 393 -15 281 -3 336 -15 b 738 341 566 -15 738 100 b 627 609 738 455 698 546 l 689 702 l 617 752 l 553 657 b 393 694 506 681 451 694 l 392 694 m 271 230 l 266 230 b 243 338 250 262 243 301 b 390 542 243 434 283 542 b 465 517 420 542 445 534 l 271 230 m 515 442 l 518 441 b 540 336 534 408 540 367 b 392 136 540 216 484 136 b 322 161 366 136 341 143 l 515 442 "},"â":{"x_min":38.953125,"x_max":647.921875,"ha":733,"o":"m 637 401 b 345 694 637 561 567 694 b 86 633 224 694 132 659 l 124 498 b 308 548 168 525 240 548 b 429 461 410 548 429 497 l 429 452 b 38 193 194 452 38 369 b 254 -15 38 84 119 -15 b 444 68 333 -15 401 13 l 449 68 l 461 0 l 647 0 b 637 163 639 37 637 100 l 637 401 m 436 247 b 432 211 436 234 435 222 b 325 133 419 168 375 133 b 243 213 278 133 243 159 b 436 320 243 294 327 320 l 436 247 m 285 975 l 149 763 l 284 763 l 353 884 l 356 884 l 424 763 l 559 763 l 424 975 l 285 975 "},"}":{"x_min":43.5625,"x_max":386.5625,"ha":436,"o":"m 386 451 b 283 547 292 455 283 505 b 291 655 283 580 287 618 b 298 765 294 693 298 730 b 91 952 298 895 217 952 l 43 952 l 43 834 l 68 834 b 151 736 129 833 151 797 b 144 656 151 711 148 686 b 137 561 141 629 137 597 b 253 400 136 456 178 416 l 253 397 b 137 236 178 381 136 341 b 144 138 137 200 141 168 b 151 61 148 111 151 84 b 68 -38 151 0 130 -37 l 43 -38 l 43 -155 l 92 -155 b 298 33 213 -155 298 -105 b 291 143 298 68 294 105 b 283 251 287 180 283 216 b 386 345 283 288 292 341 l 386 451 "},"ț":{"x_min":23.59375,"x_max":463.234375,"ha":510,"o":"m 112 806 l 112 679 l 23 679 l 23 523 l 112 523 l 112 245 b 169 44 112 150 131 84 b 325 -13 203 9 259 -13 b 459 4 382 -13 433 -5 l 457 163 b 396 158 438 159 425 158 b 314 277 335 158 314 195 l 314 523 l 463 523 l 463 679 l 314 679 l 314 863 l 112 806 m 173 -338 b 388 -166 291 -334 388 -281 b 335 -56 388 -118 362 -77 l 192 -80 b 231 -163 210 -101 231 -131 b 142 -248 231 -211 186 -240 l 173 -338 "},"Δ":{"x_min":22,"x_max":855,"ha":900,"o":"m 22 0 l 855 0 l 855 106 l 567 936 l 316 936 l 22 105 l 22 0 m 246 173 l 377 577 b 427 765 396 638 416 719 l 433 765 b 488 565 446 706 469 625 l 618 173 l 246 173 "},"‰":{"x_min":36.75,"x_max":1709.5625,"ha":1785,"o":"m 284 918 b 36 634 133 918 36 795 b 277 361 36 463 142 361 b 522 650 405 361 522 461 b 285 918 522 804 436 918 l 284 918 m 280 802 b 368 640 344 802 368 731 b 281 476 368 537 340 476 b 190 638 221 476 189 544 b 279 802 190 730 217 802 l 280 802 m 398 -15 l 906 916 l 796 916 l 287 -15 l 398 -15 m 921 543 b 675 259 771 543 675 420 b 914 -12 675 90 781 -12 b 1159 275 1042 -12 1159 87 b 922 543 1159 429 1073 543 l 921 543 m 918 427 b 1005 265 981 427 1005 356 b 918 102 1005 163 977 102 b 828 265 858 102 827 170 b 917 427 828 355 856 427 l 918 427 m 1471 543 b 1223 259 1320 543 1223 420 b 1464 -12 1223 90 1329 -12 b 1709 275 1592 -12 1709 87 b 1472 543 1709 429 1623 543 l 1471 543 m 1467 427 b 1555 265 1531 427 1555 356 b 1468 102 1555 163 1527 102 b 1377 265 1408 102 1376 170 b 1465 427 1377 355 1404 427 l 1467 427 "},"Ä":{"x_min":22.890625,"x_max":859.96875,"ha":911,"o":"m 565 240 l 636 0 l 859 0 l 574 936 l 303 936 l 22 0 l 237 0 l 301 240 l 565 240 m 331 398 l 387 597 b 428 777 401 651 416 722 l 432 777 b 477 597 446 723 462 652 l 534 398 l 331 398 m 310 988 b 399 1083 361 988 399 1031 b 310 1179 399 1138 360 1179 b 216 1083 257 1179 216 1137 b 308 988 216 1031 257 988 l 310 988 m 591 988 b 683 1083 644 988 683 1031 b 591 1179 683 1138 643 1179 b 499 1083 538 1179 499 1137 b 590 988 499 1031 537 988 l 591 988 "},"ř":{"x_min":68.0625,"x_max":491.359375,"ha":528,"o":"m 83 0 l 289 0 l 289 343 b 294 390 289 361 291 376 b 435 497 307 456 359 497 b 491 491 458 497 475 494 l 491 690 b 447 694 476 693 466 694 b 268 552 382 694 302 652 l 262 552 l 254 679 l 77 679 b 83 455 81 620 83 555 l 83 0 m 343 763 l 479 975 l 343 975 l 274 854 l 272 854 l 202 975 l 68 975 l 202 763 l 343 763 "},"":{"x_min":20.421875,"x_max":439.640625,"ha":489,"o":"m 20 369 l 439 369 l 439 490 l 240 490 l 240 493 l 273 520 b 430 750 355 587 430 651 b 223 918 430 844 357 918 b 24 858 140 918 69 891 l 65 752 b 182 791 95 773 137 791 b 262 725 234 791 262 763 b 104 525 262 665 206 618 l 20 448 l 20 369 "},"—":{"x_min":40.828125,"x_max":1320.28125,"ha":1389,"o":"m 40 418 l 40 287 l 1320 287 l 1320 418 l 40 418 "},"N":{"x_min":90.09375,"x_max":849.59375,"ha":958,"o":"m 280 0 l 280 281 b 271 691 280 434 277 566 l 276 691 b 435 361 320 581 381 462 l 631 0 l 849 0 l 849 936 l 659 936 l 659 663 b 675 272 659 522 663 395 l 672 272 b 522 593 630 377 577 494 l 332 936 l 90 936 l 90 0 l 280 0 "},"⁄":{"x_min":-19.21875,"x_max":596,"ha":589,"o":"m 93 -15 l 596 918 l 483 918 l -19 -15 l 93 -15 "},"2":{"x_min":58.53125,"x_max":686,"ha":771,"o":"m 686 0 l 686 173 l 351 173 l 351 176 l 432 245 b 668 634 562 362 668 483 b 357 918 668 798 559 918 b 69 825 239 918 134 876 l 127 675 b 317 748 174 709 240 748 b 461 616 419 748 461 690 b 171 231 460 511 366 409 l 58 127 l 58 0 l 686 0 "},"":{"x_min":-29.9375,"x_max":436.921875,"ha":417,"o":"m 63 990 b 153 1084 115 990 153 1033 b 63 1180 153 1140 114 1180 b -29 1084 10 1180 -29 1138 b 62 990 -29 1033 10 990 l 63 990 m 345 990 b 436 1084 398 990 436 1033 b 345 1180 436 1140 397 1180 b 253 1084 292 1180 253 1138 b 344 990 253 1033 291 990 l 345 990 "},"М":{"x_min":69.421875,"x_max":1082.078125,"ha":1175,"o":"m 880 0 l 1082 0 l 1033 936 l 760 936 l 664 625 b 577 288 632 520 601 397 l 571 288 b 494 623 551 398 524 515 l 404 936 l 127 936 l 69 0 l 261 0 l 279 355 b 294 743 284 472 289 616 l 296 743 b 379 377 319 619 349 487 l 477 15 l 639 15 l 751 380 b 854 743 786 490 824 623 l 857 743 b 865 358 857 605 861 470 l 880 0 "},"Ó":{"x_min":47.640625,"x_max":929.640625,"ha":996,"o":"m 480 -15 b 929 477 748 -15 929 169 b 494 951 929 736 775 951 b 47 461 224 951 47 741 b 479 -15 47 194 208 -15 l 480 -15 m 488 152 b 266 466 349 152 266 290 b 490 783 266 641 347 783 b 710 470 632 783 710 638 b 490 152 710 287 630 152 l 488 152 m 507 1158 l 393 987 l 559 987 l 725 1158 l 507 1158 "},"˜":{"x_min":10.640625,"x_max":399.078125,"ha":417,"o":"m 108 775 b 141 837 111 816 122 837 b 193 815 159 837 168 829 b 287 786 221 801 249 786 b 398 963 359 786 402 837 l 303 963 b 268 902 299 915 289 902 b 210 929 251 902 232 916 b 122 956 183 943 156 956 b 10 775 53 956 6 891 l 108 775 "},"ˇ":{"x_min":-1,"x_max":410,"ha":417,"o":"m 273 763 l 410 975 l 273 975 l 205 854 l 203 854 l 133 975 l -1 975 l 133 763 l 273 763 "},"":{"x_min":43.5625,"x_max":386.5625,"ha":436,"o":"m 386 504 b 283 600 292 508 283 558 b 291 708 283 633 287 670 b 298 818 294 745 298 783 b 91 1005 298 948 217 1005 l 43 1005 l 43 887 l 68 887 b 151 788 129 886 151 850 b 144 709 151 763 148 738 b 137 613 141 681 137 650 b 253 452 136 509 178 469 l 253 450 b 137 288 178 434 136 394 b 144 191 137 252 141 220 b 151 113 148 163 151 137 b 68 13 151 52 130 15 l 43 13 l 43 -102 l 92 -102 b 298 86 213 -102 298 -52 b 291 195 298 120 294 158 b 283 304 287 233 283 269 b 386 398 283 341 292 394 l 386 504 "},"ų":{"x_min":80.71875,"x_max":783.046875,"ha":810,"o":"m 710 679 l 504 679 l 504 275 b 495 229 504 256 501 241 b 392 155 483 195 449 155 b 287 313 318 155 287 215 l 287 679 l 80 679 l 80 280 b 314 -15 80 70 178 -15 b 523 95 434 -15 497 54 l 527 95 l 536 1 b 491 -155 524 -25 491 -91 b 644 -304 491 -255 550 -304 b 783 -259 689 -304 746 -290 l 754 -162 b 694 -172 740 -168 720 -172 b 621 -94 652 -172 621 -140 b 651 1 621 -59 637 -22 l 716 0 b 710 218 713 55 710 129 l 710 679 "},"Ў":{"x_min":3.640625,"x_max":806.53125,"ha":817,"o":"m 3 937 l 312 287 b 315 243 319 272 321 259 b 191 156 297 201 255 156 b 122 163 160 156 139 159 l 108 -5 b 209 -20 134 -15 162 -20 b 452 102 318 -20 392 26 b 635 475 522 188 577 330 l 806 937 l 588 937 l 489 604 b 439 420 466 523 451 461 l 434 420 b 369 600 414 477 395 534 l 236 937 l 3 937 m 201 1151 b 398 980 211 1034 279 980 b 605 1151 519 980 596 1033 l 464 1151 b 402 1066 460 1097 443 1066 b 341 1151 358 1066 343 1097 l 201 1151 "},"Ŭ":{"x_min":89.828125,"x_max":838.453125,"ha":947,"o":"m 89 936 l 89 413 b 455 -15 89 116 224 -15 b 838 411 695 -15 838 122 l 838 936 l 631 936 l 631 398 b 462 154 631 231 571 154 b 296 398 357 154 296 236 l 296 936 l 89 936 m 272 1161 b 462 986 274 1059 329 986 b 654 1161 593 986 651 1059 l 548 1161 b 462 1097 541 1127 519 1097 b 382 1161 405 1097 386 1130 l 272 1161 "},"ĝ":{"x_min":45.09375,"x_max":718.390625,"ha":813,"o":"m 712 476 b 718 679 712 577 715 634 l 538 679 l 532 597 l 529 597 b 347 694 495 654 438 694 b 45 336 182 694 45 555 b 326 5 45 141 162 5 b 506 93 402 5 466 37 l 508 93 l 508 50 b 336 -129 508 -76 434 -129 b 143 -77 257 -129 185 -102 l 102 -238 b 341 -290 162 -272 253 -290 b 610 -206 439 -290 538 -270 b 712 98 687 -138 712 -31 l 712 476 m 506 302 b 499 245 506 284 504 262 b 389 161 485 197 443 161 b 254 341 303 161 254 240 b 390 534 254 465 314 534 b 502 441 447 534 487 497 b 506 402 504 429 506 415 l 506 302 m 332 976 l 196 765 l 330 765 l 400 886 l 402 886 l 470 765 l 605 765 l 470 976 l 332 976 "},"Ω":{"x_min":43.5625,"x_max":967.75,"ha":1033,"o":"m 785 165 b 951 527 857 227 951 347 b 514 951 951 745 794 951 b 59 512 245 951 59 756 b 223 165 59 347 147 227 l 223 159 l 43 159 l 43 0 l 450 0 l 450 122 b 276 484 355 183 276 333 b 510 783 276 650 368 783 b 737 486 653 783 737 644 b 564 122 739 315 658 195 l 564 0 l 967 0 l 967 159 l 785 159 l 785 165 "},"s":{"x_min":44.703125,"x_max":546.953125,"ha":603,"o":"m 44 34 b 259 -13 95 6 172 -13 b 546 206 450 -13 546 79 b 367 415 545 305 493 370 b 259 493 285 443 259 461 b 338 547 259 526 288 547 b 482 509 394 547 453 525 l 518 654 b 331 694 477 675 409 694 b 61 470 167 694 61 598 b 251 268 59 391 112 315 b 348 190 327 243 348 225 b 259 134 348 155 322 134 b 81 184 198 134 119 161 l 44 34 "},"?":{"x_min":66.6875,"x_max":555.328125,"ha":618,"o":"m 368 304 l 368 329 b 438 502 367 391 389 445 b 555 737 490 561 555 630 b 294 952 555 851 472 952 b 66 895 196 952 115 925 l 111 744 b 247 786 148 770 201 786 b 345 702 314 784 345 751 b 266 558 345 656 310 611 b 186 340 205 483 183 411 l 189 304 l 368 304 m 274 -15 b 396 111 348 -15 396 38 b 273 237 394 186 347 237 b 152 111 202 237 152 186 b 273 -15 152 38 201 -15 l 274 -15 "},"₆":{"x_min":29.9375,"x_max":464.140625,"ha":504,"o":"m 400 341 b 347 341 389 343 367 343 b 123 262 249 338 179 312 b 29 27 63 206 29 123 b 255 -211 29 -93 98 -211 b 464 -12 363 -211 464 -136 b 292 161 464 95 393 161 b 176 123 246 161 204 144 l 175 123 b 349 233 194 186 250 227 b 401 231 367 234 387 233 l 400 341 m 253 -102 b 170 -11 198 -102 170 -55 b 174 16 170 1 171 9 b 243 63 185 41 210 63 b 319 -20 298 63 319 23 b 254 -102 319 -66 292 -102 l 253 -102 "},"Ņ":{"x_min":90.09375,"x_max":849.59375,"ha":958,"o":"m 280 0 l 280 281 b 271 691 280 434 277 566 l 276 691 b 435 361 320 581 381 462 l 631 0 l 849 0 l 849 936 l 659 936 l 659 663 b 675 272 659 522 663 395 l 672 272 b 522 593 630 377 577 494 l 332 936 l 90 936 l 90 0 l 280 0 m 377 -331 b 592 -161 495 -327 592 -276 b 539 -51 592 -111 566 -72 l 396 -75 b 435 -158 414 -95 435 -126 b 345 -243 435 -205 390 -233 l 377 -331 "},"Ī":{"x_min":19.0625,"x_max":371.578125,"ha":396,"o":"m 91 936 l 91 0 l 298 0 l 298 936 l 91 936 m 19 1131 l 19 1019 l 371 1019 l 371 1131 l 19 1131 "},"Μ":{"x_min":69.421875,"x_max":1082.078125,"ha":1175,"o":"m 880 0 l 1082 0 l 1033 936 l 760 936 l 664 625 b 577 288 632 520 601 397 l 571 288 b 494 623 551 398 524 515 l 404 936 l 127 936 l 69 0 l 261 0 l 279 355 b 294 743 284 472 289 616 l 296 743 b 379 377 319 619 349 487 l 477 15 l 639 15 l 751 380 b 854 743 786 490 824 623 l 857 743 b 865 358 857 605 861 470 l 880 0 "},"•":{"x_min":53.0625,"x_max":406.96875,"ha":469,"o":"m 230 180 b 406 361 329 180 406 259 b 230 543 406 463 328 543 b 53 361 132 543 51 463 b 228 180 53 258 132 180 l 230 180 "},"н":{"x_min":81.671875,"x_max":705.0625,"ha":804,"o":"m 81 679 l 81 0 l 288 0 l 288 269 l 498 269 l 498 0 l 705 0 l 705 679 l 498 679 l 498 433 l 288 433 l 288 679 l 81 679 "},"":{"x_min":9.53125,"x_max":400.171875,"ha":417,"o":"m 9 959 b 200 763 14 840 74 763 b 400 959 317 763 392 830 l 269 959 b 202 861 265 900 243 861 b 140 959 164 861 141 898 l 9 959 "},"(":{"x_min":81.671875,"x_max":381.109375,"ha":436,"o":"m 236 959 b 81 397 164 851 83 668 b 236 -162 81 129 164 -54 l 381 -162 b 243 397 304 -31 243 152 b 381 959 243 645 304 831 l 236 959 "},"◊":{"x_min":54,"x_max":726,"ha":797,"o":"m 726 451 l 466 954 l 313 954 l 54 451 l 313 -52 l 466 -52 l 726 451 m 560 445 l 411 140 b 392 98 406 127 398 109 l 390 98 b 372 140 387 109 377 127 l 218 454 l 366 761 b 385 802 373 772 380 790 l 388 802 b 407 761 392 790 400 772 l 560 445 "},"α":{"x_min":44.921875,"x_max":766.3125,"ha":810,"o":"m 549 679 b 534 590 544 652 539 622 l 529 590 b 347 694 491 661 424 694 b 44 325 197 694 44 554 b 321 -15 44 116 168 -15 b 536 108 411 -15 488 26 l 539 108 b 683 -15 556 26 605 -15 b 755 -4 711 -15 743 -9 l 766 143 b 705 236 730 140 705 159 b 724 679 705 380 714 572 l 549 679 m 254 336 b 385 533 254 443 304 533 b 502 402 443 533 490 480 b 504 345 504 386 504 368 b 500 277 504 320 503 301 b 379 151 487 211 439 151 b 254 334 306 151 254 230 l 254 336 "},"Ħ":{"x_min":10.890625,"x_max":941.890625,"ha":974,"o":"m 941 654 l 941 779 l 854 779 l 854 936 l 647 936 l 647 779 l 304 779 l 304 936 l 98 936 l 98 779 l 10 779 l 10 654 l 98 654 l 98 0 l 304 0 l 304 355 l 647 355 l 647 0 l 854 0 l 854 654 l 941 654 m 647 540 l 304 540 l 304 654 l 647 654 l 647 540 "}}}
